EBGaramond12-BoldItalic.sfdir
StartChar: exclam
Encoding: 814 33 813
GlifName: exclam
Width: 305
VWidth: 0
Flags: W
LayerCount: 2
Back
SplineSet
137 172 m 256
 154 172 169 194 185 225 c 256
 260 373 313 484 341 556 c 256
 363 614 330 649 280 649 c 256
 233 649 195 610 186 566 c 256
 169 482 147 379 120 225 c 256
 113 186 119 172 137 172 c 256
83 -14 m 256
 134 -14 179 26 179 71 c 256
 179 101 157 135 114 135 c 256
 65 135 22 92 22 45 c 256
 22 14 49 -14 83 -14 c 256
EndSplineSet
Fore
SplineSet
137 172 m 256
 154 172 169 194 185 225 c 256
 260 373 313 484 322 508 c 256
 357 599 324 649 285 649 c 256
 229 649 191 589 179 530 c 256
 169 482 147 379 120 225 c 256
 113 186 119 172 137 172 c 256
83 -14 m 256
 134 -14 179 26 179 71 c 256
 179 101 157 135 114 135 c 256
 65 135 22 92 22 45 c 256
 22 14 49 -14 83 -14 c 256
EndSplineSet
PickledDataWithLists: "(dp0
Vpublic.markColor
p1
V0.67,0.95,0.38,1
p2
s."
Substitution2: "'smcp' Lowercase to Small Capitals in Latin lookup 21 subtable" exclam.sc
Substitution2: "'c2sc' Capitals to Small Capitals in Latin lookup 20 subtable" exclam.sc
Substitution2: "'sups' Superscript in Latin lookup 10 subtable" exclam.sups
Substitution2: "'sinf' Scientific Inferiors in Latin lookup 9 subtable" exclam.sinf
Substitution2: "'subs' Subscript in Latin lookup 8 subtable" exclam.subs
Comment: "+AAoA-exclam+AAoA"
EndChar
StartChar: numbersign
Encoding: 1122 35 1121
GlifName: numbersign
Width: 484
VWidth: 0
Flags: W
LayerCount: 2
Back
SplineSet
23 -40 m 256
 44 -44 54 -44 64 -24 c 258
 136 124 l 257
 248 105 l 257
 181 -33 l 257
 180 -37 l 258
 178 -46 182 -57 192 -59 c 256
 212 -63 224 -63 233 -44 c 258
 301 96 l 257
 377 83 l 258
 397 80 426 111 434 145 c 256
 437 158 429 169 412 172 c 258
 343 184 l 257
 390 283 l 257
 457 272 l 258
 477 269 505 299 513 333 c 256
 516 346 508 359 492 361 c 258
 433 370 l 257
 497 503 l 257
 498 506 500 507 501 511 c 256
 503 520 500 530 492 532 c 256
 470 537 455 535 447 514 c 257
 381 378 l 257
 269 398 l 257
 331 528 l 257
 331 531 334 531 334 535 c 256
 334 544 334 555 326 556 c 256
 303 559 288 559 280 538 c 257
 216 406 l 257
 142 418 l 258
 122 421 101 410 89 355 c 256
 87 346 92 332 107 330 c 258
 173 319 l 257
 126 221 l 257
 62 231 l 258
 43 234 21 222 9 168 c 256
 7 159 12 145 27 142 c 258
 83 132 l 257
 13 -13 l 257
 11 -18 l 258
 8 -26 13 -38 23 -40 c 256
178 211 m 257
 226 311 l 257
 338 291 l 257
 290 192 l 257
 178 211 l 257
EndSplineSet
Fore
SplineSet
-9 -96 m 256
 12 -96 30 -93 40 -72 c 258
 118 88 l 257
 237 92 l 257
 163 -56 l 257
 162 -61 l 258
 160 -70 170 -80 180 -80 c 256
 201 -80 208 -77 218 -56 c 258
 292 95 l 257
 371 98 l 258
 391 99 423 135 431 170 c 256
 434 183 426 193 409 192 c 258
 338 189 l 257
 391 296 l 257
 459 299 l 258
 480 300 511 336 519 371 c 256
 522 384 514 394 497 393 c 258
 438 390 l 257
 508 534 l 257
 508 537 511 538 512 542 c 256
 514 551 511 561 503 561 c 256
 480 561 463 556 454 534 c 257
 382 387 l 257
 263 383 l 257
 331 523 l 257
 332 526 334 527 335 531 c 256
 337 540 335 550 327 550 c 256
 304 550 282 545 273 523 c 257
 203 380 l 257
 127 377 l 258
 107 376 82 360 70 304 c 256
 68 295 73 282 88 283 c 258
 156 286 l 257
 110 180 l 257
 39 177 l 258
 19 176 -5 160 -17 104 c 256
 -19 95 -15 82 0 83 c 258
 58 85 l 257
 -19 -72 l 257
 -21 -77 l 258
 -25 -86 -19 -96 -9 -96 c 256
164 182 m 257
 217 289 l 257
 335 293 l 257
 283 186 l 257
 164 182 l 257
EndSplineSet
PickledDataWithLists: "(dp0
Vpublic.markColor
p1
V0.67,0.95,0.38,1
p2
s."
Substitution2: "'smcp' Lowercase to Small Capitals in Latin lookup 21 subtable" numbersign.sc
Substitution2: "'c2sc' Capitals to Small Capitals in Latin lookup 20 subtable" numbersign.sc
Substitution2: "'sups' Superscript in Latin lookup 10 subtable" numbersign.sups
Substitution2: "'sinf' Scientific Inferiors in Latin lookup 9 subtable" numbersign.sinf
Substitution2: "'subs' Subscript in Latin lookup 8 subtable" numbersign.subs
Comment: "+AAoA-numbersign+AAoA"
EndChar
StartChar: dollar
Encoding: 724 36 723
GlifName: dollar
Width: 564
VWidth: 0
Flags: W
LayerCount: 2
Back
SplineSet
128 -96 m 256
 146 -96 163 -91 166 -82 c 257
 487 678 l 257
 489 683 490 687 493 692 c 256
 505 711 501 725 486 725 c 256
 463 725 440 717 434 703 c 257
 111 -63 l 257
 105 -79 107 -96 128 -96 c 256
240 -14 m 256
 399 -14 495 96 495 199 c 256
 495 267 473 319 391 387 c 256
 309 455 293 477 293 524 c 256
 293 571 324 628 397 628 c 256
 468 628 515 567 515 481 c 256
 515 450 520 437 534 437 c 256
 548 437 554 446 558 460 c 256
 573 511 606 590 632 624 c 256
 641 636 638 648 624 648 c 256
 614 648 604 643 594 637 c 256
 585 632 578 631 568 631 c 256
 551 631 538 636 511 644 c 256
 482 653 440 664 389 664 c 256
 247 664 145 577 145 465 c 256
 145 384 175 337 241 279 c 256
 327 203 344 177 344 134 c 256
 344 77 301 25 222 25 c 256
 138 25 99 95 99 158 c 256
 99 205 97 226 78 226 c 256
 61 226 54 216 50 191 c 256
 40 115 -4 39 -4 24 c 256
 -4 14 12 0 20 0 c 256
 26 0 35 6 45 12 c 256
 52 16 62 20 71 20 c 256
 75 20 89 15 108 7 c 256
 145 -9 189 -14 240 -14 c 256
EndSplineSet
Fore
SplineSet
237 -14 m 256
 402 -14 502 96 502 199 c 256
 502 267 479 319 394 387 c 256
 309 455 288 477 288 524 c 256
 288 571 324 628 400 628 c 256
 474 628 525 567 525 481 c 256
 525 450 530 437 545 437 c 256
 559 437 564 446 568 460 c 256
 583 511 618 590 645 624 c 256
 654 636 651 648 636 648 c 256
 626 648 616 643 605 637 c 256
 596 632 589 631 578 631 c 256
 561 631 547 636 519 644 c 256
 489 653 445 664 392 664 c 256
 244 664 138 577 138 465 c 256
 138 384 169 337 238 279 c 256
 327 203 349 176 349 133 c 256
 349 76 300 23 218 23 c 256
 131 23 88 95 88 158 c 256
 88 205 86 226 66 226 c 256
 49 226 43 216 39 191 c 256
 29 115 -17 39 -17 24 c 256
 -17 14 0 0 8 0 c 256
 14 0 24 6 34 12 c 256
 41 16 52 20 61 20 c 256
 65 20 80 15 100 7 c 256
 138 -9 184 -14 237 -14 c 256
128 -96 m 256
 146 -96 163 -91 166 -82 c 257
 493 692 l 258
 502 712 501 725 486 725 c 256
 463 725 440 717 434 703 c 257
 111 -63 l 257
 105 -79 107 -96 128 -96 c 256
EndSplineSet
PickledDataWithLists: "(dp0
Vcom.schriftgestaltung.Glyphs.glyph.leftMetricsKey
p1
VS
p2
sVcom.schriftgestaltung.Glyphs.glyph.rightMetricsKey
p3
g2
s."
Substitution2: "'smcp' Lowercase to Small Capitals in Latin lookup 21 subtable" dollar.sc
Substitution2: "'c2sc' Capitals to Small Capitals in Latin lookup 20 subtable" dollar.sc
Substitution2: "'sups' Superscript in Latin lookup 10 subtable" dollar.sups
Substitution2: "'sinf' Scientific Inferiors in Latin lookup 9 subtable" dollar.sinf
Substitution2: "'subs' Subscript in Latin lookup 8 subtable" dollar.subs
Comment: "+AAoA-dollar+AAoA"
EndChar
StartChar: ampersand
Encoding: 535 38 534
GlifName: ampersand
Width: 859
VWidth: 0
Flags: W
LayerCount: 2
Back
SplineSet
434 -15 m 256
 636 -15 778 115 778 300 c 256
 778 361 771 401 743 446 c 256
 738 454 742 459 753 459 c 256
 862 459 931 516 931 607 c 256
 931 673 896 716 843 716 c 256
 792 716 754 686 754 647 c 256
 754 615 776 593 808 593 c 256
 831 593 849 608 849 627 c 256
 849 636 844 647 834 650 c 256
 823 653 819 662 819 671 c 256
 819 680 827 689 838 689 c 256
 868 689 890 664 890 630 c 256
 890 562 843 528 749 527 c 258
 662 526 l 258
 576 525 507 465 507 391 c 256
 507 327 553 285 622 285 c 256
 686 285 708 385 640 385 c 256
 605 385 615 343 584 343 c 256
 556 343 545 366 545 391 c 256
 545 430 571 458 616 458 c 256
 709 458 740 402 740 322 c 256
 740 191 647 68 457 68 c 256
 238 68 167 173 167 289 c 256
 167 392 221 464 308 464 c 256
 349 464 377 445 377 419 c 256
 377 388 354 368 318 368 c 256
 252 368 220 419 220 525 c 256
 220 603 276 658 343 658 c 256
 366 658 381 643 381 621 c 256
 381 607 398 591 413 591 c 256
 440 591 457 609 457 636 c 256
 457 686 420 717 361 718 c 256
 258 720 168 638 168 534 c 256
 168 412 230 328 320 328 c 256
 377 328 420 366 420 416 c 256
 420 465 377 498 311 499 c 256
 198 501 111 394 111 249 c 256
 111 93 244 -15 434 -15 c 256
419 -14 m 256
 621 -14 803 96 788 281 c 256
 784 329 784 360 752 403 c 256
 746 411 751 414 788 416 c 256
 871 421 930 502 930 591 c 256
 930 679 881 718 825 718 c 256
 752 718 718 666 718 620 c 256
 717 585 738 553 777 553 c 256
 814 553 835 580 835 606 c 256
 835 619 829 632 817 641 c 256
 808 648 802 656 802 664 c 256
 802 673 811 681 832 681 c 256
 855 681 885 662 885 624 c 256
 885 552 844 523 730 523 c 258
 650 523 l 258
 547 523 463 472 463 350 c 256
 463 282 519 234 600 234 c 256
 683 234 709 353 626 353 c 256
 598 353 583 311 561 311 c 256
 530 311 516 328 516 353 c 256
 516 393 550 425 597 426 c 256
 684 428 723 380 723 320 c 256
 723 205 624 115 453 115 c 256
 253 115 167 211 167 312 c 256
 167 408 221 471 312 471 c 256
 353 471 376 447 376 419 c 256
 376 388 352 365 312 365 c 256
 240 365 205 419 205 525 c 256
 205 603 255 648 333 648 c 256
 361 648 386 617 386 587 c 256
 386 568 408 547 426 547 c 256
 459 547 481 571 481 607 c 256
 481 674 435 717 361 718 c 256
 239 720 141 635 141 526 c 256
 141 404 216 321 314 321 c 256
 377 321 427 366 427 416 c 256
 427 466 392 507 311 508 c 256
 187 509 85 394 85 250 c 256
 85 94 231 -14 419 -14 c 256
EndSplineSet
Fore
SplineSet
419 -14 m 256
 629 -14 779 105 779 304 c 256
 779 340 771 379 752 409 c 256
 747 417 751 420 788 422 c 256
 871 426 930 502 930 591 c 256
 930 679 881 718 825 718 c 256
 752 718 718 666 718 620 c 256
 717 585 738 553 777 553 c 256
 814 553 835 580 835 606 c 256
 835 619 829 632 817 641 c 256
 808 648 802 656 802 664 c 256
 802 673 811 681 832 681 c 256
 855 681 885 662 885 624 c 256
 885 552 844 523 730 523 c 258
 650 523 l 258
 547 523 463 472 463 350 c 256
 463 282 519 234 600 234 c 256
 643 234 677 263 677 307 c 256
 677 332 661 353 626 353 c 256
 613 353 603 344 593 334 c 256
 582 323 572 310 560 310 c 256
 529 310 507 328 507 353 c 256
 507 393 546 431 593 432 c 256
 680 434 723 380 723 320 c 256
 723 205 624 115 453 115 c 256
 253 115 167 211 167 312 c 256
 167 408 221 471 312 471 c 256
 353 471 376 447 376 419 c 256
 376 388 352 365 312 365 c 256
 240 365 205 419 205 525 c 256
 205 603 255 648 333 648 c 256
 361 648 386 617 386 587 c 256
 386 568 408 547 426 547 c 256
 459 547 481 571 481 607 c 256
 481 674 435 717 361 718 c 256
 239 720 141 635 141 526 c 256
 141 404 216 321 314 321 c 256
 377 321 427 366 427 416 c 256
 427 466 392 507 311 508 c 256
 187 509 85 394 85 250 c 256
 85 94 231 -14 419 -14 c 256
EndSplineSet
Substitution2: "'smcp' Lowercase to Small Capitals in Latin lookup 21 subtable" ampersand.sc
Substitution2: "'c2sc' Capitals to Small Capitals in Latin lookup 20 subtable" ampersand.sc
Substitution2: "'sups' Superscript in Latin lookup 10 subtable" ampersand.sups
Substitution2: "'sinf' Scientific Inferiors in Latin lookup 9 subtable" ampersand.sinf
Substitution2: "'subs' Subscript in Latin lookup 8 subtable" ampersand.subs
Comment: "+AAoA-ampersand+AAoA"
EndChar
StartChar: quotesingle
Encoding: 1280 39 1279
GlifName: quotesingle
Width: 245
VWidth: 0
Flags: W
LayerCount: 2
Back
SplineSet
161 467 m 256
 158 458 155 444 160 444 c 256
 165 444 178 457 186 469 c 257
 212 505 245 555 275 624 c 256
 284 645 294 676 280 676 c 256
 265 676 252 667 233 655 c 256
 222 648 208 633 205 619 c 256
 192 557 179 520 161 467 c 256
EndSplineSet
Fore
SplineSet
140 400 m 256
 147 400 169 417 182 432 c 256
 221 477 298 582 318 647 c 256
 324 667 319 685 303 685 c 256
 277 685 259 676 230 660 c 257
 215 652 193 637 187 617 c 256
 176 582 171 543 156 496 c 256
 149 474 146 455 137 429 c 257
 133 418 130 400 140 400 c 256
EndSplineSet
PickledDataWithLists: "(dp0
Vpublic.markColor
p1
V0.67,0.95,0.38,1
p2
s."
Substitution2: "'smcp' Lowercase to Small Capitals in Latin lookup 21 subtable" quotesingle.sc
Substitution2: "'c2sc' Capitals to Small Capitals in Latin lookup 20 subtable" quotesingle.sc
Substitution2: "'sups' Superscript in Latin lookup 10 subtable" quotesingle.sups
Substitution2: "'sinf' Scientific Inferiors in Latin lookup 9 subtable" quotesingle.sinf
Substitution2: "'subs' Subscript in Latin lookup 8 subtable" quotesingle.subs
Comment: "+AAoA-quotesingle+AAoA"
EndChar
StartChar: parenleft
Encoding: 1202 40 1201
GlifName: parenleft
Width: 298
VWidth: 0
Flags: W
LayerCount: 2
Back
SplineSet
125 -215 m 256
 137 -215 146 -203 146 -188 c 256
 146 -139 65 -22 154 270 c 256
 215 472 320 595 421 671 c 256
 431 679 436 687 436 692 c 256
 436 701 427 706 414 706 c 256
 401 706 386 701 369 692 c 256
 212 597 98 435 53 282 c 256
 -5 86 38 -215 125 -215 c 256
EndSplineSet
Fore
SplineSet
125 -215 m 256
 137 -215 146 -203 146 -188 c 256
 146 -156 112 -96 112 22 c 256
 112 263 231 528 421 671 c 256
 431 679 436 687 436 692 c 256
 436 701 427 706 414 706 c 256
 401 706 386 701 369 692 c 256
 155 563 26 322 26 74 c 256
 26 -23 43 -116 71 -169 c 256
 86 -198 104 -215 125 -215 c 256
EndSplineSet
Guideline: "" "" -19 46 73 0 0
Guideline: "" "" -30 -334 73 0 0
Substitution2: "'ss04' Style Set 4 in Latin lookup 35 subtable" uni2619
Substitution2: "'ss02' Style Set 2 in Latin lookup 32 subtable" uni261C
Substitution2: "'smcp' Lowercase to Small Capitals in Latin lookup 21 subtable" parenleft.sc
Substitution2: "'c2sc' Capitals to Small Capitals in Latin lookup 20 subtable" parenleft.sc
Substitution2: "'sups' Superscript in Latin lookup 10 subtable" parenleft.sups
Substitution2: "'sinf' Scientific Inferiors in Latin lookup 9 subtable" parenleft.sinf
Substitution2: "'subs' Subscript in Latin lookup 8 subtable" parenleft.subs
Comment: "+AAoA-parenleft+AAoA"
EndChar
StartChar: asterisk
Encoding: 573 42 572
GlifName: asterisk
Width: 364
VWidth: 0
Flags: W
LayerCount: 2
Back
SplineSet
228 378 m 256
 236 378 241 385 245 393 c 257
 259 425 270 453 279 480 c 257
 298 459 320 437 343 411 c 257
 346 408 353 405 359 405 c 256
 366 405 373 410 373 419 c 256
 373 424 371 430 368 434 c 257
 348 463 330 485 312 507 c 257
 402 528 l 257
 410 530 419 536 419 545 c 256
 419 553 409 562 401 562 c 256
 393 562 331 554 303 549 c 257
 312 578 331 638 331 645 c 256
 331 654 325 664 315 664 c 256
 307 664 302 657 298 649 c 257
 284 617 273 589 264 562 c 257
 245 583 223 605 200 631 c 257
 197 634 190 637 184 637 c 256
 177 637 170 632 170 623 c 256
 170 618 172 612 175 608 c 257
 195 579 213 557 231 535 c 257
 231 535 153 517 141 513 c 256
 133 511 124 505 124 496 c 256
 124 488 134 479 142 480 c 256
 176 483 212 488 240 493 c 257
 240 493 215 418 213 404 c 256
 211 391 217 378 228 378 c 256
223 355 m 256
 243 345 260 359 268 376 c 256
 279 399 291 435 295 443 c 257
 311 428 328 411 344 396 c 257
 368 379 392 380 402 402 c 256
 408 415 403 431 393 443 c 256
 378 462 354 487 349 495 c 257
 371 501 393 507 415 513 c 256
 433 517 444 534 445 548 c 256
 447 571 430 582 400 579 c 256
 376 577 342 568 333 568 c 257
 340 590 346 611 353 633 c 256
 358 650 353 670 337 679 c 257
 315 688 298 674 289 656 c 256
 278 634 270 615 262 592 c 257
 246 608 231 625 216 642 c 256
 196 665 168 661 158 639 c 256
 152 626 156 610 164 598 c 256
 178 577 202 551 206 542 c 257
 184 537 162 532 140 527 c 257
 125 525 108 511 108 490 c 256
 108 473 128 459 152 462 c 256
 177 465 214 469 223 468 c 257
 217 446 212 423 206 401 c 257
 200 382 207 363 223 355 c 256
EndSplineSet
Fore
SplineSet
236 352 m 256
 250 352 262 363 268 376 c 256
 279 399 291 435 295 443 c 257
 311 428 329 412 344 396 c 256
 354 386 366 384 375 384 c 256
 392 384 405 399 405 414 c 256
 405 424 400 435 393 443 c 256
 378 462 354 487 349 495 c 257
 371 501 393 507 415 513 c 256
 435 517 445 537 445 552 c 256
 445 570 431 579 409 579 c 256
 386 579 343 568 333 568 c 257
 340 590 346 611 353 633 c 256
 359 659 347 682 324 682 c 256
 308 682 296 670 289 656 c 256
 278 634 270 615 262 592 c 257
 246 608 231 625 216 642 c 256
 207 653 196 657 186 657 c 256
 168 657 155 642 155 625 c 256
 155 616 159 606 164 598 c 256
 178 577 202 551 206 542 c 257
 184 537 162 532 140 527 c 257
 125 525 108 511 108 490 c 256
 108 473 128 459 152 462 c 256
 177 465 214 469 223 468 c 257
 217 446 211 424 206 401 c 256
 200 375 212 352 236 352 c 256
EndSplineSet
PickledDataWithLists: "(dp0
Vpublic.markColor
p1
V0.67,0.95,0.38,1
p2
s."
Substitution2: "'ss04' Style Set 4 in Latin lookup 35 subtable" uni2766
Substitution2: "'smcp' Lowercase to Small Capitals in Latin lookup 21 subtable" asterisk.sc
Substitution2: "'c2sc' Capitals to Small Capitals in Latin lookup 20 subtable" asterisk.sc
Substitution2: "'sups' Superscript in Latin lookup 10 subtable" asterisk.sups
Substitution2: "'sinf' Scientific Inferiors in Latin lookup 9 subtable" asterisk.sinf
Substitution2: "'subs' Subscript in Latin lookup 8 subtable" asterisk.subs
Comment: "+AAoA-asterisk+AAoA"
EndChar
StartChar: plus
Encoding: 1240 43 1239
GlifName: plus
Width: 599
VWidth: 0
Flags: W
LayerCount: 2
Fore
SplineSet
294 -12 m 256
 309 -12 344 -4 344 17 c 258
 344 206 l 258
 344 215 348 219 357 219 c 258
 550 219 l 258
 569 219 584 249 584 266 c 256
 584 276 573 282 561 282 c 258
 357 282 l 258
 348 282 344 286 344 296 c 258
 344 489 l 258
 344 501 338 512 328 512 c 256
 311 512 281 497 281 478 c 258
 281 296 l 258
 281 286 280 282 267 282 c 258
 69 282 l 258
 48 282 40 247 40 232 c 256
 40 226 48 219 57 219 c 258
 268 219 l 258
 278 219 281 213 281 206 c 258
 281 5 l 258
 281 -4 288 -12 294 -12 c 256
EndSplineSet
PickledDataWithLists: "(dp0
Vpublic.markColor
p1
V0.67,0.95,0.38,1
p2
s."
Substitution2: "'smcp' Lowercase to Small Capitals in Latin lookup 21 subtable" plus.sc
Substitution2: "'c2sc' Capitals to Small Capitals in Latin lookup 20 subtable" plus.sc
Substitution2: "'sups' Superscript in Latin lookup 10 subtable" plus.sups
Substitution2: "'sinf' Scientific Inferiors in Latin lookup 9 subtable" plus.sinf
Substitution2: "'subs' Subscript in Latin lookup 8 subtable" plus.subs
Comment: "+AAoA-plus+AAoA"
EndChar
StartChar: comma
Encoding: 685 44 684
GlifName: comma
Width: 280
VWidth: 0
Flags: W
LayerCount: 2
Back
SplineSet
-16 -129 m 256
 45 -129 141 -50 141 50 c 256
 141 84 117 120 83 120 c 256
 48 120 20 103 20 80 c 256
 20 47 81 64 81 25 c 256
 81 -25 43 -73 -15 -104 c 256
 -30 -112 -40 -115 -40 -121 c 256
 -40 -128 -26 -129 -16 -129 c 256
EndSplineSet
Fore
SplineSet
-49 -166 m 256
 68 -166 178 -58 178 31 c 256
 178 85 140 119 91 119 c 256
 44 119 7 80 7 35 c 256
 7 14 20 1 35 -4 c 256
 51 -9 65 -18 65 -36 c 256
 65 -77 14 -120 -40 -127 c 256
 -55 -129 -66 -136 -70 -147 c 256
 -74 -158 -65 -166 -49 -166 c 256
EndSplineSet
PickledDataWithLists: "(dp0
Vpublic.markColor
p1
V0.67,0.95,0.38,1
p2
s."
Substitution2: "'smcp' Lowercase to Small Capitals in Latin lookup 21 subtable" comma.sc
Substitution2: "'c2sc' Capitals to Small Capitals in Latin lookup 20 subtable" comma.sc
Substitution2: "'sups' Superscript in Latin lookup 10 subtable" comma.sups
Substitution2: "'sinf' Scientific Inferiors in Latin lookup 9 subtable" comma.sinf
Substitution2: "'subs' Subscript in Latin lookup 8 subtable" comma.subs
Comment: "+AAoA-comma+AAoA"
EndChar
StartChar: hyphen
Encoding: 956 45 955
GlifName: hyphen
Width: 333
VWidth: 0
Flags: W
LayerCount: 2
Back
SplineSet
25 163 m 256
 101 170 201 183 279 194 c 256
 295 197 303 207 316 250 c 256
 319 261 318 268 304 267 c 256
 229 261 138 250 61 238 c 256
 44 235 31 218 17 174 c 256
 15 167 16 162 25 163 c 256
EndSplineSet
Fore
SplineSet
30 163 m 256
 106 170 201 183 279 194 c 256
 295 197 318 232 318 249 c 256
 318 260 318 268 304 267 c 256
 229 261 138 250 61 238 c 256
 44 235 17 212 17 174 c 256
 17 167 21 162 30 163 c 256
EndSplineSet
PickledDataWithLists: "(dp0
Vpublic.markColor
p1
V0.67,0.95,0.38,1
p2
s."
Substitution2: "'smcp' Lowercase to Small Capitals in Latin lookup 21 subtable" hyphen.sc
Substitution2: "'c2sc' Capitals to Small Capitals in Latin lookup 20 subtable" hyphen.sc
Substitution2: "'sups' Superscript in Latin lookup 10 subtable" hyphen.sups
Substitution2: "'sinf' Scientific Inferiors in Latin lookup 9 subtable" hyphen.sinf
Substitution2: "'subs' Subscript in Latin lookup 8 subtable" hyphen.subs
Comment: "+AAoA-hyphen+AAoA"
EndChar
StartChar: period
Encoding: 1223 46 1222
GlifName: period
Width: 280
VWidth: 0
Flags: W
LayerCount: 2
Fore
SplineSet
70 -34 m 256
 129 -34 178 13 178 66 c 256
 178 101 153 141 106 141 c 256
 50 141 2 90 2 35 c 256
 2 -1 32 -34 70 -34 c 256
EndSplineSet
PickledDataWithLists: "(dp0
Vpublic.markColor
p1
V0.67,0.95,0.38,1
p2
s."
Substitution2: "'smcp' Lowercase to Small Capitals in Latin lookup 21 subtable" period.sc
Substitution2: "'c2sc' Capitals to Small Capitals in Latin lookup 20 subtable" period.sc
Substitution2: "'sups' Superscript in Latin lookup 10 subtable" period.sups
Substitution2: "'sinf' Scientific Inferiors in Latin lookup 9 subtable" period.sinf
Substitution2: "'subs' Subscript in Latin lookup 8 subtable" period.subs
Comment: "+AAoA-period+AAoA"
EndChar
StartChar: slash
Encoding: 1367 47 1366
GlifName: slash
Width: 277
VWidth: 0
Flags: W
LayerCount: 2
Back
SplineSet
351 648 m 258
 -51 -47 l 257
 -55 -53 -48 -62 -41 -62 c 256
 -25 -62 -11 -61 -3 -47 c 258
 399 648 l 257
 403 654 399 665 392 665 c 256
 375 665 360 663 351 648 c 258
EndSplineSet
Fore
SplineSet
-44 -60 m 256
 -25 -61 -6 -61 4 -44 c 258
 399 639 l 258
 404 648 397 661 379 663 c 256
 357 665 340 663 330 645 c 258
 -63 -38 l 258
 -69 -48 -59 -59 -44 -60 c 256
EndSplineSet
PickledDataWithLists: "(dp0
Vpublic.markColor
p1
V0.67,0.95,0.38,1
p2
s."
Substitution2: "'smcp' Lowercase to Small Capitals in Latin lookup 21 subtable" slash.sc
Substitution2: "'c2sc' Capitals to Small Capitals in Latin lookup 20 subtable" slash.sc
Substitution2: "'sups' Superscript in Latin lookup 10 subtable" slash.sups
Substitution2: "'sinf' Scientific Inferiors in Latin lookup 9 subtable" slash.sinf
Substitution2: "'subs' Subscript in Latin lookup 8 subtable" slash.subs
Comment: "+AAoA-slash+AAoA"
EndChar
StartChar: one
Encoding: 1159 49 1158
GlifName: one
Width: 540
VWidth: 0
Flags: W
LayerCount: 2
Back
SplineSet
59 -3 m 256
 103 -3 170 2 210 2 c 256
 249 2 322 -2 364 -2 c 256
 374 -2 387 3 389 13 c 256
 392 26 383 30 372 34 c 256
 325 49 316 61 327 98 c 258
 468 552 l 258
 479 589 491 609 496 625 c 256
 499 632 494 637 484 637 c 256
 481 637 473 634 466 631 c 256
 389 598 329 578 244 573 c 256
 227 572 208 562 204 545 c 256
 200 530 212 524 222 522 c 256
 246 517 280 495 265 445 c 258
 157 97 l 258
 144 56 126 45 71 34 c 256
 58 31 49 24 46 12 c 256
 43 3 51 -3 59 -3 c 256
EndSplineSet
Fore
SplineSet
44 -3 m 256
 88 -3 170 2 210 2 c 256
 249 2 337 -2 379 -2 c 256
 389 -2 402 3 404 13 c 256
 407 26 398 30 387 34 c 256
 341 51 316 61 327 98 c 258
 468 552 l 258
 479 589 491 609 496 625 c 256
 499 632 494 637 484 637 c 256
 481 637 473 634 466 631 c 256
 389 598 314 578 229 573 c 256
 212 572 193 562 189 545 c 256
 185 530 197 524 207 522 c 256
 250 513 281 498 265 445 c 258
 157 97 l 258
 144 56 111 47 56 34 c 256
 43 31 34 24 31 12 c 256
 29 3 36 -3 44 -3 c 256
EndSplineSet
PickledDataWithLists: "(dp0
Vpublic.markColor
p1
V0.67,0.95,0.38,1
p2
s."
Substitution2: "'case' Case-Sensitive Forms in Latin lookup 24 subtable" one.lf
Substitution2: "'smcp' Lowercase to Small Capitals in Latin lookup 21 subtable" one.sc
Substitution2: "'c2sc' Capitals to Small Capitals in Latin lookup 20 subtable" one.sc
Substitution2: "'onum' Oldstyle Figures in Latin lookup 18 subtable" one.tosf
Substitution2: "'pnum' Proportional Numbers in Latin lookup 16 subtable" one.lf
Substitution2: "'sups' Superscript in Latin lookup 10 subtable" onesuperior
Substitution2: "'sinf' Scientific Inferiors in Latin lookup 9 subtable" oneinferior
Substitution2: "'subs' Subscript in Latin lookup 8 subtable" one.subs
Comment: "+AAoA-one.tablining+AAoA"
EndChar
StartChar: less
Encoding: 1043 60 1042
GlifName: less
Width: 600
VWidth: 0
Flags: W
LayerCount: 2
Fore
SplineSet
503 0 m 258
 514 -6 527 1 527 22 c 256
 527 42 512 62 490 72 c 258
 137 229 l 258
 130 232 132 237 137 239 c 258
 490 397 l 258
 512 407 527 427 527 447 c 256
 527 464 517 476 498 467 c 258
 75 272 l 257
 51 263 35 230 35 220 c 256
 35 212 64 198 85 188 c 257
 503 0 l 258
EndSplineSet
PickledDataWithLists: "(dp0
Vpublic.markColor
p1
V0.67,0.95,0.38,1
p2
s."
Substitution2: "'ss04' Style Set 4 in Latin lookup 35 subtable" bullet.03
Substitution2: "'ss02' Style Set 2 in Latin lookup 32 subtable" bullet.02
Substitution2: "'smcp' Lowercase to Small Capitals in Latin lookup 21 subtable" less.sc
Substitution2: "'c2sc' Capitals to Small Capitals in Latin lookup 20 subtable" less.sc
Substitution2: "'sups' Superscript in Latin lookup 10 subtable" less.sups
Substitution2: "'sinf' Scientific Inferiors in Latin lookup 9 subtable" less.sinf
Substitution2: "'subs' Subscript in Latin lookup 8 subtable" less.subs
Comment: "+AAoA-less+AAoA"
EndChar
StartChar: equal
Encoding: 801 61 800
GlifName: equal
Width: 643
VWidth: 0
Flags: W
LayerCount: 2
Fore
SplineSet
64 316 m 258
 589 316 l 258
 606 316 621 342 621 358 c 256
 621 367 611 374 598 374 c 258
 76 374 l 258
 55 374 48 341 48 329 c 256
 48 324 55 316 64 316 c 258
64 133 m 258
 589 133 l 258
 606 133 621 159 621 175 c 256
 621 184 611 191 598 191 c 258
 76 191 l 258
 55 191 48 158 48 146 c 256
 48 141 55 133 64 133 c 258
EndSplineSet
PickledDataWithLists: "(dp0
Vpublic.markColor
p1
V0.67,0.95,0.38,1
p2
s."
Substitution2: "'smcp' Lowercase to Small Capitals in Latin lookup 21 subtable" equal.sc
Substitution2: "'c2sc' Capitals to Small Capitals in Latin lookup 20 subtable" equal.sc
Substitution2: "'sups' Superscript in Latin lookup 10 subtable" equal.sups
Substitution2: "'sinf' Scientific Inferiors in Latin lookup 9 subtable" equal.sinf
Substitution2: "'subs' Subscript in Latin lookup 8 subtable" equal.subs
Comment: "+AAoA-equal+AAoA"
EndChar
StartChar: greater
Encoding: 917 62 916
GlifName: greater
Width: 600
VWidth: 0
Flags: W
LayerCount: 2
Fore
SplineSet
85 5 m 257
 512 197 l 257
 538 209 554 240 554 250 c 256
 554 257 524 273 502 282 c 257
 85 474 l 258
 83 475 80 476 78 476 c 256
 65 476 61 464 61 452 c 256
 61 432 76 412 98 402 c 258
 451 244 l 258
 456 242 458 237 451 234 c 258
 98 77 l 258
 76 67 61 47 61 27 c 256
 61 6 74 -1 85 5 c 257
EndSplineSet
PickledDataWithLists: "(dp0
Vpublic.markColor
p1
V0.67,0.95,0.38,1
p2
s."
Substitution2: "'ss04' Style Set 4 in Latin lookup 35 subtable" uni2767.01
Substitution2: "'ss02' Style Set 2 in Latin lookup 32 subtable" bullet.01
Substitution2: "'smcp' Lowercase to Small Capitals in Latin lookup 21 subtable" greater.sc
Substitution2: "'c2sc' Capitals to Small Capitals in Latin lookup 20 subtable" greater.sc
Substitution2: "'sups' Superscript in Latin lookup 10 subtable" greater.sups
Substitution2: "'sinf' Scientific Inferiors in Latin lookup 9 subtable" greater.sinf
Substitution2: "'subs' Subscript in Latin lookup 8 subtable" greater.subs
Comment: "+AAoA-greater+AAoA"
EndChar
StartChar: question
Encoding: 1259 63 1258
GlifName: question
Width: 404
VWidth: 0
Flags: W
LayerCount: 2
Back
SplineSet
165 177 m 256
 177 177 189 179 189 189 c 256
 189 197 187 206 185 216 c 256
 183 225 182 234 182 245 c 256
 182 267 191 279 227 293 c 258
 321 330 l 258
 388 356 430 419 430 491 c 256
 430 586 359 661 278 661 c 256
 225 661 174 634 174 588 c 256
 173 560 192 543 216 543 c 256
 230 543 240 547 251 552 c 256
 269 560 287 565 303 565 c 256
 351 565 375 544 375 521 c 256
 375 479 344 450 270 429 c 256
 129 386 109 330 109 261 c 256
 109 217 150 177 165 177 c 256
162 -14 m 256
 212 -14 255 27 255 72 c 256
 255 102 234 136 193 136 c 256
 146 136 104 93 104 45 c 256
 104 14 130 -14 162 -14 c 256
EndSplineSet
Fore
SplineSet
168 177 m 256
 180 177 192 179 192 189 c 256
 192 197 187 206 185 216 c 256
 183 225 182 234 182 245 c 256
 182 267 191 279 227 293 c 258
 321 330 l 258
 382 354 430 414 430 467 c 256
 430 586 352 661 271 661 c 256
 218 661 174 634 174 588 c 256
 173 560 192 543 216 543 c 256
 230 543 247 553 258 558 c 256
 275 566 295 580 314 580 c 256
 366 580 386 555 386 521 c 256
 386 479 344 450 270 429 c 256
 129 386 109 330 109 261 c 256
 109 217 153 177 168 177 c 256
130 -14 m 256
 180 -14 223 27 223 72 c 256
 223 102 202 136 161 136 c 256
 114 136 72 93 72 45 c 256
 72 14 98 -14 130 -14 c 256
EndSplineSet
PickledDataWithLists: "(dp0
Vpublic.markColor
p1
V0.67,0.95,0.38,1
p2
s."
Substitution2: "'smcp' Lowercase to Small Capitals in Latin lookup 21 subtable" question.sc
Substitution2: "'c2sc' Capitals to Small Capitals in Latin lookup 20 subtable" question.sc
Substitution2: "'sups' Superscript in Latin lookup 10 subtable" question.sups
Substitution2: "'sinf' Scientific Inferiors in Latin lookup 9 subtable" question.sinf
Substitution2: "'subs' Subscript in Latin lookup 8 subtable" question.subs
Comment: "+AAoA-question+AAoA"
EndChar
StartChar: at
Encoding: 579 64 578
GlifName: at
Width: 800
VWidth: 0
Flags: W
LayerCount: 2
Back
SplineSet
299 -158 m 256
 419 -158 615 -63 625 -29 c 256
 629 -17 622 -10 604 -10 c 256
 594 -10 576 -20 562 -28 c 256
 495 -66 392 -96 330 -96 c 256
 163 -96 59 31 110 196 c 256
 164 371 343 481 509 481 c 256
 672 481 746 379 698 226 c 256
 673 144 596 94 526 94 c 256
 512 94 512 108 516 123 c 256
 519 132 524 140 527 148 c 257
 594 285 l 258
 604 306 631 355 653 386 c 257
 655 394 626 397 621 397 c 256
 608 397 595 370 583 370 c 256
 578 370 567 376 557 379 c 256
 542 383 512 390 487 390 c 256
 353 390 214 296 168 148 c 256
 142 64 192 17 274 17 c 256
 350 17 417 64 429 64 c 256
 441 64 439 22 499 22 c 256
 603 22 739 116 779 244 c 256
 832 417 719 543 542 543 c 256
 329 543 105 420 33 185 c 256
 -30 -18 101 -158 299 -158 c 256
333 75 m 256
 297 75 264 106 287 181 c 256
 319 282 389 342 445 342 c 256
 485 342 510 314 498 276 c 256
 496 271 495 266 493 264 c 257
 435 147 l 258
 421 117 410 104 395 95 c 256
 373 82 355 75 333 75 c 256
EndSplineSet
Fore
SplineSet
294 -158 m 256
 464 -158 625 -62 625 -29 c 256
 625 -18 617 -12 610 -12 c 256
 598 -12 582 -21 564 -31 c 256
 497 -69 411 -96 318 -96 c 256
 180 -96 88 -9 88 114 c 256
 88 309 301 481 509 481 c 256
 639 481 712 416 712 312 c 256
 712 195 636 94 542 94 c 256
 508 94 513 120 525 146 c 258
 594 285 l 258
 604 306 631 355 653 386 c 257
 655 394 613 398 608 398 c 256
 595 398 583 373 570 374 c 256
 563 375 550 380 535 383 c 256
 519 387 503 389 487 390 c 256
 323 398 166 269 166 123 c 256
 166 62 210 17 281 17 c 256
 345 17 401 53 423 71 c 256
 433 79 441 88 441 67 c 256
 441 52 453 22 499 22 c 256
 643 22 792 166 792 320 c 256
 792 449 676 543 529 543 c 256
 264 543 8 340 8 86 c 256
 8 -62 130 -158 294 -158 c 256
333 75 m 256
 305 75 277 101 277 144 c 256
 277 230 351 345 439 345 c 256
 485 345 505 330 504 301 c 256
 504 291 500 278 493 264 c 258
 440 157 l 258
 425 127 413 116 400 105 c 256
 381 88 355 75 333 75 c 256
EndSplineSet
Substitution2: "'smcp' Lowercase to Small Capitals in Latin lookup 21 subtable" at.sc
Substitution2: "'c2sc' Capitals to Small Capitals in Latin lookup 20 subtable" at.sc
Substitution2: "'sups' Superscript in Latin lookup 10 subtable" at.sups
Substitution2: "'sinf' Scientific Inferiors in Latin lookup 9 subtable" at.sinf
Substitution2: "'subs' Subscript in Latin lookup 8 subtable" at.subs
Comment: "+AAoA-at+AAoA"
EndChar
StartChar: A
Encoding: 1 65 1
GlifName: A_
Width: 766
VWidth: 0
Flags: W
AnchorPoint: "bottom.cap" 248 -30 basechar 0
AnchorPoint: "top.cap" 654 675 basechar 0
LayerCount: 2
Back
SplineSet
-45 -5 m 256
 -3 -5 52 1 91 1 c 256
 131 1 171 -2 215 -2 c 256
 229 -2 246 3 247 12 c 256
 248 24 234 31 222 34 c 256
 165 48 153 76 204 140 c 258
 266 219 l 258
 272 227 281 236 292 236 c 258
 453 236 l 258
 463 236 469 230 466 219 c 258
 436 97 l 258
 427 59 401 44 356 34 c 256
 343 31 330 24 329 12 c 256
 328 3 336 -3 347 -3 c 256
 391 -3 467 2 507 2 c 256
 552 2 624 -2 666 -2 c 256
 676 -2 697 3 697 13 c 256
 697 27 686 30 671 34 c 256
 620 48 600 70 608 112 c 258
 706 606 l 257
 726 677 729 701 713 701 c 256
 698 701 670 676 647 650 c 256
 630 630 592 625 543 625 c 256
 530 625 513 574 476 532 c 256
 348 387 221 243 93 98 c 256
 61 62 -4 42 -40 34 c 256
 -53 31 -64 25 -67 12 c 256
 -70 -1 -60 -5 -45 -5 c 256
342 284 m 258
 321 284 320 288 332 302 c 258
 516 523 l 258
 520 527 526 530 528 530 c 256
 533 530 531 522 529 514 c 258
 482 295 l 258
 480 286 476 284 465 284 c 258
 342 284 l 258
EndSplineSet
Fore
SplineSet
-45 -5 m 256
 -3 -5 52 1 91 1 c 256
 131 1 171 -2 215 -2 c 256
 229 -2 246 3 247 12 c 256
 248 24 234 31 222 34 c 256
 165 48 153 76 204 140 c 258
 266 219 l 258
 272 227 281 236 292 236 c 258
 453 236 l 258
 463 236 469 230 466 219 c 258
 436 97 l 258
 427 59 401 44 356 34 c 256
 343 31 330 24 329 12 c 256
 328 3 336 -3 347 -3 c 256
 391 -3 467 2 507 2 c 256
 552 2 624 -2 666 -2 c 256
 676 -2 697 3 697 13 c 256
 697 27 686 30 671 34 c 256
 620 48 600 70 608 112 c 258
 706 606 l 258
 713 639 712 672 697 672 c 256
 684 672 662 656 640 644 c 256
 614 630 578 625 543 625 c 256
 530 625 513 574 476 532 c 256
 348 387 221 243 93 98 c 256
 61 62 -4 42 -40 34 c 256
 -53 31 -64 25 -67 12 c 256
 -70 -1 -60 -5 -45 -5 c 256
342 284 m 258
 321 284 320 288 332 302 c 258
 516 523 l 258
 520 527 526 530 528 530 c 256
 533 530 531 522 529 514 c 258
 482 295 l 258
 480 286 476 284 465 284 c 258
 342 284 l 258
EndSplineSet
PickledDataWithLists: "(dp0
Vpublic.markColor
p1
V0.67,0.95,0.38,1
p2
s."
Substitution2: "'swsh' Swash in Latin lookup 30 subtable" A.swsh
Substitution2: "'c2pc' Capitals to Petite Capitals in Latin lookup 22 subtable" A.pc
Substitution2: "'c2sc' Capitals to Small Capitals in Latin lookup 20 subtable" A.sc
Substitution2: "Single Substitution lookup 13 subtable" ordfeminine
Substitution2: "'sups' Superscript in Latin lookup 10 subtable" A.sups
Substitution2: "'sinf' Scientific Inferiors in Latin lookup 9 subtable" A.sinf
Substitution2: "'subs' Subscript in Latin lookup 8 subtable" A.subs
Comment: "+AAoA-A+AAoA"
EndChar
StartChar: B
Encoding: 34 66 34
GlifName: B_
Width: 639
VWidth: 0
Flags: W
AnchorPoint: "bottom.cap" 253 -30 basechar 0
AnchorPoint: "top.cap" 421 675 basechar 0
LayerCount: 2
Back
SplineSet
-32 -5 m 256
 7 -5 72 0 113 0 c 256
 165 0 208 -4 259 -4 c 256
 442 -4 596 44 596 198 c 256
 596 281 541 327 464 353 c 256
 458 355 462 362 467 363 c 256
 565 383 651 448 651 526 c 256
 651 610 581 654 460 654 c 256
 387 654 360 647 312 647 c 256
 260 647 237 655 172 655 c 256
 158 655 146 645 146 633 c 256
 146 627 150 621 161 618 c 256
 200 607 216 595 201 551 c 258
 59 95 l 258
 46 54 28 46 -20 32 c 256
 -36 27 -48 16 -48 7 c 256
 -48 0 -42 -5 -32 -5 c 256
272 30 m 257
 253 30 237 43 231 54 c 256
 225 65 227 85 231 99 c 258
 295 304 l 258
 301 323 314 328 346 328 c 256
 398 328 427 283 427 230 c 256
 427 145 352 42 272 30 c 257
352 362 m 256
 326 362 316 370 322 390 c 258
 383 589 l 258
 392 617 407 626 436 626 c 256
 476 626 507 583 507 539 c 256
 507 470 471 417 428 382 c 257
 404 371 382 362 352 362 c 256
EndSplineSet
Fore
SplineSet
-32 -5 m 256
 7 -5 72 0 113 0 c 256
 165 0 208 -4 259 -4 c 256
 442 -4 596 44 596 198 c 256
 596 281 541 327 464 353 c 256
 458 355 462 362 467 363 c 256
 565 383 651 448 651 526 c 256
 651 610 581 654 460 654 c 256
 387 654 360 647 312 647 c 256
 260 647 237 655 172 655 c 256
 158 655 146 645 146 633 c 256
 146 627 150 621 161 618 c 256
 200 607 216 595 201 551 c 258
 59 95 l 258
 46 54 28 46 -20 32 c 256
 -36 27 -48 16 -48 7 c 256
 -48 0 -42 -5 -32 -5 c 256
272 30 m 257
 253 30 237 43 231 54 c 256
 225 65 227 85 231 99 c 258
 295 304 l 258
 301 323 314 328 346 328 c 256
 398 328 427 283 427 230 c 256
 427 145 352 42 272 30 c 257
352 362 m 256
 326 362 316 370 322 390 c 258
 383 589 l 258
 392 617 407 626 436 626 c 256
 476 626 507 583 507 539 c 256
 507 470 471 417 428 382 c 257
 404 371 382 362 352 362 c 256
EndSplineSet
PickledDataWithLists: "(dp0
Vcom.schriftgestaltung.Glyphs.glyph.leftMetricsKey
p1
VH
p2
sVpublic.markColor
p3
V0.67,0.95,0.38,1
p4
s."
Substitution2: "'swsh' Swash in Latin lookup 30 subtable" B.swsh
Substitution2: "'c2pc' Capitals to Petite Capitals in Latin lookup 22 subtable" B.pc
Substitution2: "'c2sc' Capitals to Small Capitals in Latin lookup 20 subtable" B.sc
Substitution2: "'sups' Superscript in Latin lookup 10 subtable" B.sups
Substitution2: "'sinf' Scientific Inferiors in Latin lookup 9 subtable" B.sinf
Substitution2: "'subs' Subscript in Latin lookup 8 subtable" B.subs
Comment: "+AAoA-B+AAoA"
EndChar
StartChar: C
Encoding: 43 67 43
GlifName: C_
Width: 673
VWidth: 0
Flags: W
AnchorPoint: "top.cap" 537 675 basechar 0
LayerCount: 2
Back
SplineSet
314 -14 m 256
 353 -14 384 -7 408 -1 c 256
 431 5 449 11 465 11 c 256
 486 11 496 7 504 2 c 256
 512 -3 517 -9 530 -9 c 256
 549 -9 597 104 615 172 c 256
 619 187 610 199 599 199 c 256
 589 199 584 186 573 172 c 256
 504 83 431 27 353 27 c 257
 230 27 193 130 252 344 c 256
 305 541 407 627 511 627 c 256
 573 627 626 548 622 481 c 256
 620 450 625 429 639 429 c 256
 653 429 659 438 663 452 c 256
 678 503 713 590 739 624 c 256
 748 636 745 648 731 648 c 256
 721 648 711 643 701 637 c 256
 692 632 684 631 675 631 c 256
 659 631 647 636 622 644 c 256
 595 653 560 664 513 664 c 256
 286 664 129 543 72 351 c 256
 14 155 136 -14 314 -14 c 256
EndSplineSet
Fore
SplineSet
314 -14 m 256
 353 -14 384 -7 408 -1 c 256
 431 5 449 11 465 11 c 256
 486 11 496 7 504 2 c 256
 512 -3 517 -9 530 -9 c 256
 549 -9 597 104 615 172 c 256
 619 187 610 199 599 199 c 256
 589 199 584 186 573 172 c 256
 504 83 431 27 353 27 c 257
 268 27 225 76 225 176 c 256
 225 364 333 627 511 627 c 256
 546 627 578 602 599 567 c 256
 615 541 624 510 622 481 c 256
 620 450 625 429 639 429 c 256
 653 429 659 438 663 452 c 256
 678 503 713 590 739 624 c 256
 748 638 744 648 731 648 c 256
 721 648 711 643 701 637 c 256
 692 632 684 631 675 631 c 256
 659 631 647 636 622 644 c 256
 595 653 560 664 513 664 c 256
 260 664 57 492 57 253 c 256
 57 102 166 -14 314 -14 c 256
EndSplineSet
PickledDataWithLists: "(dp0
Vcom.schriftgestaltung.Glyphs.glyph.leftMetricsKey
p1
VO
p2
sVpublic.markColor
p3
V0.67,0.95,0.38,1
p4
s."
Substitution2: "'swsh' Swash in Latin lookup 30 subtable" C.swsh
Substitution2: "'c2pc' Capitals to Petite Capitals in Latin lookup 22 subtable" C.pc
Substitution2: "'c2sc' Capitals to Small Capitals in Latin lookup 20 subtable" C.sc
Substitution2: "'sups' Superscript in Latin lookup 10 subtable" C.sups
Substitution2: "'sinf' Scientific Inferiors in Latin lookup 9 subtable" C.sinf
Substitution2: "'subs' Subscript in Latin lookup 8 subtable" C.subs
Comment: "+AAoA-C+AAoA"
EndChar
StartChar: D
Encoding: 68 68 68
GlifName: D_
Width: 729
VWidth: 0
Flags: W
AnchorPoint: "bottom.cap" 290 -30 basechar 0
AnchorPoint: "top.cap" 454 675 basechar 0
LayerCount: 2
Back
SplineSet
303 -7 m 256
 543 -7 752 176 752 371 c 256
 752 515 645 654 454 654 c 256
 384 654 343 650 304 650 c 256
 264 650 200 655 156 655 c 256
 148 655 136 649 133 640 c 256
 129 628 134 621 145 618 c 256
 193 605 203 596 191 551 c 258
 50 97 l 258
 37 56 19 46 -35 34 c 256
 -48 31 -57 24 -61 12 c 256
 -64 3 -56 -3 -48 -3 c 256
 -4 -3 66 4 106 4 c 256
 132 4 223 -7 303 -7 c 256
302 31 m 257
 263 31 210 53 230 119 c 258
 365 563 l 258
 377 601 402 615 449 615 c 256
 532 615 578 556 578 375 c 256
 578 227 474 31 302 31 c 257
EndSplineSet
Fore
SplineSet
303 -7 m 256
 544 -7 742 175 742 385 c 256
 742 529 641 654 454 654 c 256
 384 654 343 650 304 650 c 256
 264 650 200 655 156 655 c 256
 148 655 136 649 133 640 c 256
 129 628 134 621 145 618 c 256
 193 605 203 596 191 551 c 258
 50 97 l 258
 37 56 19 46 -35 34 c 256
 -48 31 -57 24 -61 12 c 256
 -64 3 -56 -3 -48 -3 c 256
 -4 -3 66 4 106 4 c 256
 132 4 223 -7 303 -7 c 256
302 31 m 256
 263 31 210 53 230 119 c 258
 365 572 l 258
 374 604 396 615 434 615 c 256
 512 615 568 559 568 402 c 256
 568 223 436 31 302 31 c 256
EndSplineSet
PickledDataWithLists: "(dp0
Vcom.schriftgestaltung.Glyphs.glyph.leftMetricsKey
p1
V=|H-15
p2
sVcom.schriftgestaltung.Glyphs.glyph.rightMetricsKey
p3
VO
p4
sVpublic.markColor
p5
V0.67,0.95,0.38,1
p6
s."
Substitution2: "'swsh' Swash in Latin lookup 30 subtable" D.swsh
Substitution2: "'c2pc' Capitals to Petite Capitals in Latin lookup 22 subtable" D.pc
Substitution2: "'c2sc' Capitals to Small Capitals in Latin lookup 20 subtable" D.sc
Substitution2: "'sups' Superscript in Latin lookup 10 subtable" D.sups
Substitution2: "'sinf' Scientific Inferiors in Latin lookup 9 subtable" D.sinf
Substitution2: "'subs' Subscript in Latin lookup 8 subtable" D.subs
Comment: "+AAoA-D+AAoA"
EndChar
StartChar: E
Encoding: 81 69 81
GlifName: E_
Width: 572
VWidth: 0
Flags: W
AnchorPoint: "bottom.cap" 250 -30 basechar 0
AnchorPoint: "top.cap" 399 675 basechar 0
LayerCount: 2
Back
SplineSet
-45 -5 m 256
 -6 -5 60 0 100 0 c 256
 221 0 433 -4 446 -4 c 256
 456 -4 467 -1 474 8 c 256
 504 46 544 123 544 160 c 256
 544 169 542 175 534 175 c 256
 526 175 518 173 511 163 c 256
 485 125 461 91 432 72 c 256
 408 56 378 46 352 46 c 258
 253 46 l 258
 216 46 206 54 219 97 c 258
 276 288 l 258
 280 302 290 311 305 311 c 258
 402 311 l 258
 427 311 435 285 432 242 c 256
 431 228 439 218 449 218 c 256
 456 218 463 226 468 246 c 256
 475 276 481 302 489 329 c 256
 497 356 508 383 520 412 c 256
 526 427 521 435 515 435 c 256
 507 435 495 429 488 417 c 256
 466 380 443 355 408 355 c 258
 324 355 l 258
 308 355 301 361 306 379 c 258
 359 559 l 258
 368 588 398 605 431 605 c 258
 489 605 l 258
 547 605 555 583 561 506 c 256
 562 494 569 489 576 489 c 256
 583 489 596 496 596 509 c 256
 596 550 620 614 620 640 c 256
 620 654 606 663 596 663 c 256
 583 663 553 650 501 650 c 258
 302 649 l 258
 262 649 203 655 176 655 c 256
 147 655 135 648 132 639 c 256
 129 631 134 622 149 618 c 256
 192 607 201 594 188 551 c 258
 47 95 l 258
 34 54 15 46 -33 32 c 256
 -47 28 -57 19 -59 11 c 256
 -61 3 -57 -5 -45 -5 c 256
EndSplineSet
Fore
SplineSet
-45 -5 m 256
 -6 -5 60 0 100 0 c 256
 221 0 441 -4 454 -4 c 256
 464 -4 475 -1 482 8 c 256
 511 48 540 130 540 152 c 256
 540 169 537 175 529 175 c 256
 521 175 518 173 511 163 c 256
 485 125 461 83 432 64 c 256
 408 48 378 38 352 38 c 258
 280 38 l 258
 226 38 211 65 226 115 c 258
 276 288 l 258
 280 302 290 311 305 311 c 258
 402 311 l 258
 427 311 435 285 432 242 c 256
 431 228 439 218 449 218 c 256
 456 218 463 226 468 246 c 256
 475 276 481 302 489 329 c 256
 497 356 508 383 520 412 c 256
 526 427 521 435 515 435 c 256
 507 435 495 429 488 417 c 256
 466 380 443 355 408 355 c 258
 324 355 l 258
 308 355 301 361 306 379 c 258
 350 532 l 258
 369 597 390 614 423 614 c 258
 491 614 l 258
 542 614 554 583 564 506 c 256
 566 494 574 489 580 489 c 256
 587 489 596 496 596 509 c 256
 596 550 622 615 622 641 c 256
 622 655 612 663 602 663 c 256
 589 663 553 650 468 650 c 258
 302 649 l 258
 262 649 203 655 176 655 c 256
 147 655 135 648 132 639 c 256
 129 631 134 622 149 618 c 256
 192 607 201 594 188 551 c 258
 47 95 l 258
 34 54 15 46 -33 32 c 256
 -47 28 -57 19 -59 11 c 256
 -61 3 -57 -5 -45 -5 c 256
EndSplineSet
PickledDataWithLists: "(dp0
Vcom.schriftgestaltung.Glyphs.glyph.leftMetricsKey
p1
VD
p2
sVpublic.markColor
p3
V0.67,0.95,0.38,1
p4
s."
Substitution2: "'swsh' Swash in Latin lookup 30 subtable" E.swsh
Substitution2: "'c2pc' Capitals to Petite Capitals in Latin lookup 22 subtable" E.pc
Substitution2: "'c2sc' Capitals to Small Capitals in Latin lookup 20 subtable" E.sc
Substitution2: "'sups' Superscript in Latin lookup 10 subtable" E.sups
Substitution2: "'sinf' Scientific Inferiors in Latin lookup 9 subtable" E.sinf
Substitution2: "'subs' Subscript in Latin lookup 8 subtable" E.subs
Comment: "+AAoA-E+AAoA"
EndChar
StartChar: F
Encoding: 132 70 132
GlifName: F_
Width: 541
VWidth: 0
Flags: W
AnchorPoint: "bottom.cap" 117 -30 basechar 0
AnchorPoint: "top.cap" 449 675 basechar 0
LayerCount: 2
Back
SplineSet
-34 -3 m 256
 10 -3 78 2 118 2 c 256
 157 2 242 -2 284 -2 c 256
 294 -2 302 3 305 13 c 256
 309 26 304 31 293 34 c 257
 239 46 221 56 234 98 c 257
 288 278 l 257
 292 292 302 301 317 301 c 256
 333 301 404 301 421 301 c 256
 446 301 457 289 456 248 c 256
 456 234 462 224 472 224 c 256
 479 224 487 232 491 252 c 256
 501 303 519 357 542 412 c 257
 547 427 543 435 537 435 c 256
 529 435 519 429 510 417 c 256
 486 383 464 363 435 363 c 258
 342 363 l 257
 326 363 318 369 324 387 c 256
 331 412 365 520 373 546 c 256
 382 575 411 592 444 592 c 258
 507 592 l 258
 544 592 563 585 574 570 c 256
 584 555 585 531 589 495 c 256
 591 483 598 478 605 478 c 256
 612 478 622 485 624 498 c 256
 633 551 648 582 655 609 c 256
 657 617 659 625 661 633 c 256
 665 649 652 654 642 654 c 256
 621 654 581 650 551 650 c 258
 318 650 l 258
 278 650 220 655 183 655 c 256
 164 655 154 648 151 639 c 256
 148 631 151 622 171 617 c 256
 209 607 218 594 205 551 c 258
 64 97 l 258
 51 56 33 45 -21 34 c 256
 -34 31 -43 24 -47 12 c 256
 -50 3 -42 -3 -34 -3 c 256
EndSplineSet
Fore
SplineSet
-34 -3 m 256
 10 -3 78 2 118 2 c 256
 157 2 252 -2 294 -2 c 256
 304 -2 312 3 315 13 c 256
 319 26 314 33 303 34 c 256
 237 40 222 56 234 98 c 258
 288 281 l 258
 292 295 304 309 327 309 c 256
 343 309 396 309 413 309 c 256
 438 309 448 294 448 253 c 256
 448 239 454 229 464 229 c 256
 471 229 479 237 483 257 c 256
 493 308 507 351 530 406 c 257
 535 421 531 429 525 429 c 256
 517 429 506 423 498 411 c 256
 473 371 441 351 396 351 c 258
 369 351 l 258
 324 351 317 365 323 383 c 256
 331 408 371 543 379 569 c 256
 388 598 417 618 450 617 c 258
 500 616 l 258
 531 615 553 602 567 579 c 256
 579 558 585 530 586 495 c 256
 586 483 591 478 598 478 c 256
 605 478 612 485 614 498 c 256
 622 551 640 592 647 619 c 256
 649 627 651 635 653 643 c 256
 657 659 644 664 634 664 c 256
 613 664 571 650 478 650 c 258
 318 650 l 258
 278 650 220 655 183 655 c 256
 164 655 154 648 151 639 c 256
 148 631 151 622 171 617 c 256
 209 607 218 594 205 551 c 258
 64 97 l 258
 51 56 33 45 -21 34 c 256
 -34 31 -43 24 -47 12 c 256
 -50 3 -42 -3 -34 -3 c 256
EndSplineSet
PickledDataWithLists: "(dp0
Vcom.schriftgestaltung.Glyphs.glyph.leftMetricsKey
p1
VH
p2
sVpublic.markColor
p3
V0.67,0.95,0.38,1
p4
s."
Substitution2: "'swsh' Swash in Latin lookup 30 subtable" F.swsh
Substitution2: "'c2pc' Capitals to Petite Capitals in Latin lookup 22 subtable" F.pc
Substitution2: "'c2sc' Capitals to Small Capitals in Latin lookup 20 subtable" F.sc
Substitution2: "'sups' Superscript in Latin lookup 10 subtable" F.sups
Substitution2: "'sinf' Scientific Inferiors in Latin lookup 9 subtable" F.sinf
Substitution2: "'subs' Subscript in Latin lookup 8 subtable" F.subs
Comment: "+AAoA-F+AAoA"
EndChar
StartChar: G
Encoding: 140 71 140
GlifName: G_
Width: 734
VWidth: 0
Flags: W
AnchorPoint: "bottom.cap" 307 -30 basechar 0
AnchorPoint: "top" 522 675 basechar 0
AnchorPoint: "top.cap" 512 675 basechar 0
LayerCount: 2
Back
SplineSet
362 -26 m 256
 421 -26 531 10 546 48 c 257
 538 60 535 68 535 80 c 256
 535 95 554 162 571 201 c 256
 583 228 598 238 628 244 c 256
 649 248 660 257 660 264 c 256
 660 272 651 278 639 278 c 256
 606 278 587 272 554 272 c 256
 508 272 483 278 437 278 c 256
 419 278 405 272 405 263 c 256
 405 254 422 251 436 248 c 256
 446 246 464 243 481 238 c 256
 499 233 505 222 499 197 c 258
 471 88 l 258
 459 41 423 2 362 2 c 256
 261 2 142 83 142 216 c 256
 142 419 283 622 468 622 c 256
 520 622 552 596 569 573 c 256
 590 545 591 511 586 481 c 256
 583 463 588 452 601 452 c 256
 608 452 616 462 619 475 c 256
 629 520 664 587 686 617 c 257
 690 622 691 633 679 633 c 256
 672 633 666 630 659 626 c 256
 651 622 643 617 636 617 c 256
 620 617 604 624 584 632 c 256
 560 642 530 651 487 651 c 256
 241 651 54 474 54 242 c 256
 54 61 190 -26 362 -26 c 256
EndSplineSet
Fore
SplineSet
328 -14 m 256
 417 -14 600 30 623 77 c 257
 609 91 601 102 601 117 c 256
 601 131 625 190 641 221 c 256
 655 248 668 260 711 270 c 256
 724 273 732 278 736 291 c 256
 739 301 735 306 725 306 c 256
 661 306 623 297 584 297 c 256
 544 297 468 307 424 307 c 256
 413 307 401 301 398 292 c 256
 394 280 405 272 416 269 c 256
 432 265 461 259 478 251 c 256
 496 243 497 229 493 215 c 258
 459 103 l 258
 446 61 408 23 360 23 c 256
 239 23 172 148 220 306 c 256
 290 531 404 628 514 628 c 256
 553 628 591 609 610 582 c 256
 628 556 632 522 629 481 c 256
 627 450 634 437 648 437 c 256
 662 437 668 446 672 460 c 256
 687 511 720 590 746 624 c 256
 755 636 752 648 738 648 c 256
 728 648 718 643 708 637 c 256
 699 632 691 631 682 631 c 256
 666 631 654 636 629 644 c 256
 602 653 567 664 520 664 c 256
 296 664 122 526 72 363 c 256
 2 135 128 -14 328 -14 c 256
EndSplineSet
PickledDataWithLists: "(dp0
Vcom.schriftgestaltung.Glyphs.glyph.leftMetricsKey
p1
VO
p2
sVpublic.markColor
p3
V0.67,0.95,0.38,1
p4
s."
Substitution2: "'swsh' Swash in Latin lookup 30 subtable" G.swsh
Substitution2: "'c2pc' Capitals to Petite Capitals in Latin lookup 22 subtable" G.pc
Substitution2: "'c2sc' Capitals to Small Capitals in Latin lookup 20 subtable" G.sc
Substitution2: "'sups' Superscript in Latin lookup 10 subtable" G.sups
Substitution2: "'sinf' Scientific Inferiors in Latin lookup 9 subtable" G.sinf
Substitution2: "'subs' Subscript in Latin lookup 8 subtable" G.subs
Comment: "+AAoA-G+AAoA"
EndChar
StartChar: H
Encoding: 161 72 161
GlifName: H_
Width: 786
VWidth: 0
Flags: W
AnchorPoint: "bottom.cap" 318 -30 basechar 0
AnchorPoint: "top.cap" 537 675 basechar 0
LayerCount: 2
Back
SplineSet
4 -5 m 256
 54 -5 68 0 108 0 c 256
 150 0 166 -5 216 -5 c 256
 232 -5 246 -2 246 6 c 256
 246 15 241 20 221 24 c 256
 181 32 159 64 172 106 c 258
 233 296 l 257
 235 304 237 307 241 307 c 258
 596 307 l 258
 602 307 598 299 596 292 c 258
 534 97 l 258
 520 54 490 31 448 24 c 256
 425 20 412 15 412 6 c 256
 412 -2 420 -5 436 -5 c 256
 486 -5 498 0 537 0 c 256
 575 0 582 -5 632 -5 c 256
 648 -5 662 -2 662 6 c 256
 662 15 657 20 637 24 c 256
 593 33 594 51 609 100 c 258
 748 552 l 258
 760 590 769 613 818 622 c 256
 841 626 855 633 855 642 c 256
 855 650 847 653 831 653 c 256
 781 653 779 650 746 650 c 256
 704 650 689 653 639 653 c 256
 623 653 609 650 609 642 c 256
 609 633 613 626 633 622 c 256
 677 613 684 588 673 552 c 258
 612 357 l 258
 609 348 607 345 602 345 c 258
 257 345 l 258
 251 345 245 346 247 354 c 257
 308 551 l 258
 320 590 344 613 393 622 c 256
 416 626 430 633 430 642 c 256
 430 650 422 653 406 653 c 256
 356 653 345 650 307 650 c 256
 270 650 262 653 212 653 c 256
 196 653 182 650 182 642 c 256
 182 633 186 626 206 622 c 256
 250 613 248 597 234 551 c 258
 96 99 l 258
 81 51 66 33 17 24 c 256
 -6 20 -19 15 -19 6 c 256
 -19 -2 -12 -5 4 -5 c 256
-40 -3 m 256
 -2 -3 66 2 106 2 c 256
 145 2 217 -2 259 -2 c 256
 269 -2 277 3 280 13 c 256
 284 26 278 30 268 34 c 256
 221 53 211 61 222 98 c 258
 278 279 l 258
 281 289 289 296 300 296 c 258
 541 296 l 258
 551 296 553 290 549 279 c 257
 493 98 l 258
 482 61 465 50 409 34 c 256
 395 30 387 26 383 13 c 256
 380 3 384 -2 394 -2 c 256
 436 -2 512 2 551 2 c 256
 591 2 655 -3 693 -3 c 256
 701 -3 713 3 716 12 c 256
 720 24 715 31 704 34 c 256
 662 45 650 56 663 97 c 258
 804 551 l 258
 817 594 834 606 884 618 c 256
 897 621 906 628 910 640 c 256
 913 649 905 655 897 655 c 256
 853 655 791 650 751 650 c 256
 712 650 640 654 598 654 c 256
 588 654 580 649 577 639 c 256
 573 626 579 622 589 618 c 256
 638 598 645 590 633 550 c 258
 580 378 l 257
 577 367 570 363 561 363 c 258
 320 363 l 258
 310 363 306 367 309 378 c 258
 362 550 l 258
 374 590 388 601 448 618 c 256
 462 622 470 626 474 639 c 256
 477 649 473 654 463 654 c 256
 421 654 345 650 306 650 c 256
 266 650 208 655 164 655 c 256
 156 655 144 649 141 640 c 256
 137 628 142 621 153 618 c 256
 197 606 206 594 193 551 c 258
 52 97 l 258
 39 56 21 45 -27 34 c 256
 -40 31 -49 24 -53 12 c 256
 -56 3 -48 -3 -40 -3 c 256
EndSplineSet
Fore
SplineSet
-33 -3 m 256
 5 -3 73 2 113 2 c 256
 152 2 224 -2 266 -2 c 256
 276 -2 284 3 287 13 c 256
 291 26 285 30 275 34 c 256
 228 53 218 61 229 98 c 258
 287 289 l 258
 290 299 298 306 309 306 c 258
 536 306 l 258
 546 306 548 300 544 289 c 257
 486 98 l 258
 475 61 458 50 402 34 c 256
 388 30 380 26 376 13 c 256
 373 3 377 -2 387 -2 c 256
 429 -2 505 2 544 2 c 256
 584 2 648 -3 686 -3 c 256
 694 -3 706 3 709 12 c 256
 713 24 708 31 697 34 c 256
 655 45 643 56 656 97 c 258
 797 551 l 258
 810 594 827 606 877 618 c 256
 890 621 899 628 903 640 c 256
 906 649 898 655 890 655 c 256
 846 655 784 650 744 650 c 256
 705 650 633 654 591 654 c 256
 581 654 573 649 570 639 c 256
 566 626 572 622 582 618 c 256
 631 598 638 590 626 550 c 258
 571 369 l 258
 568 358 561 354 552 354 c 258
 325 354 l 258
 315 354 311 358 314 369 c 258
 369 550 l 258
 381 590 395 601 455 618 c 256
 469 622 477 626 481 639 c 256
 484 649 480 654 470 654 c 256
 428 654 352 650 313 650 c 256
 273 650 215 655 171 655 c 256
 163 655 151 649 148 640 c 256
 144 628 149 621 160 618 c 256
 204 606 213 594 200 551 c 258
 59 97 l 258
 46 56 28 45 -20 34 c 256
 -33 31 -42 24 -46 12 c 256
 -49 3 -41 -3 -33 -3 c 256
EndSplineSet
PickledDataWithLists: "(dp0
Vpublic.markColor
p1
V0.67,0.95,0.38,1
p2
s."
Substitution2: "'swsh' Swash in Latin lookup 30 subtable" H.swsh
Substitution2: "'c2pc' Capitals to Petite Capitals in Latin lookup 22 subtable" H.pc
Substitution2: "'c2sc' Capitals to Small Capitals in Latin lookup 20 subtable" H.sc
Substitution2: "'sups' Superscript in Latin lookup 10 subtable" H.sups
Substitution2: "'sinf' Scientific Inferiors in Latin lookup 9 subtable" H.sinf
Substitution2: "'subs' Subscript in Latin lookup 8 subtable" H.subs
Comment: "+AAoA-H+AAoA"
EndChar
StartChar: I
Encoding: 177 73 177
GlifName: I_
Width: 381
VWidth: 0
Flags: W
AnchorPoint: "bottom.cap" 115 -30 basechar 0
AnchorPoint: "top.cap" 327 675 basechar 0
LayerCount: 2
Back
SplineSet
-33 -3 m 256
 11 -3 79 2 119 2 c 256
 158 2 230 -2 272 -2 c 256
 282 -2 290 3 293 13 c 256
 297 26 291 30 281 34 c 256
 234 53 224 61 235 98 c 258
 375 550 l 258
 387 590 401 601 461 618 c 256
 475 622 483 626 487 639 c 256
 490 649 486 654 476 654 c 256
 434 654 358 650 319 650 c 256
 279 650 215 655 171 655 c 256
 163 655 151 649 148 640 c 256
 144 628 149 621 160 618 c 256
 210 604 219 594 206 551 c 258
 65 97 l 258
 52 56 34 46 -20 34 c 256
 -33 31 -42 24 -46 12 c 256
 -49 3 -41 -3 -33 -3 c 256
EndSplineSet
Fore
SplineSet
-33 -3 m 256
 11 -3 79 2 119 2 c 256
 158 2 242 -2 284 -2 c 256
 294 -2 302 3 305 13 c 256
 309 26 303 31 272 39 c 256
 227 51 224 61 249 142 c 258
 375 550 l 258
 387 590 401 601 461 618 c 256
 475 622 483 626 487 639 c 256
 490 649 486 654 476 654 c 256
 434 654 358 650 319 650 c 256
 279 650 215 655 171 655 c 256
 163 655 151 649 148 640 c 256
 144 628 149 621 160 618 c 256
 210 604 219 594 206 551 c 258
 65 97 l 258
 52 56 34 46 -20 34 c 256
 -33 31 -42 24 -46 12 c 256
 -49 3 -41 -3 -33 -3 c 256
EndSplineSet
PickledDataWithLists: "(dp0
Vcom.schriftgestaltung.Glyphs.glyph.leftMetricsKey
p1
VH
p2
sVcom.schriftgestaltung.Glyphs.glyph.rightMetricsKey
p3
g2
sVpublic.markColor
p4
V0.67,0.95,0.38,1
p5
s."
Substitution2: "'swsh' Swash in Latin lookup 30 subtable" I.swsh
Substitution2: "'c2pc' Capitals to Petite Capitals in Latin lookup 22 subtable" I.pc
Substitution2: "'c2sc' Capitals to Small Capitals in Latin lookup 20 subtable" I.sc
Substitution2: "'sups' Superscript in Latin lookup 10 subtable" I.sups
Substitution2: "'sinf' Scientific Inferiors in Latin lookup 9 subtable" I.sinf
Substitution2: "'subs' Subscript in Latin lookup 8 subtable" I.subs
Comment: "+AAoA-I+AAoA"
EndChar
StartChar: J
Encoding: 209 74 209
GlifName: J_
Width: 397
VWidth: 0
Flags: W
AnchorPoint: "top.cap" 348 675 basechar 0
LayerCount: 2
Back
SplineSet
-64 -200 m 256
 15 -200 81 -167 132 -118 c 256
 190 -63 232 13 268 131 c 258
 398 550 l 258
 410 590 424 602 484 618 c 256
 497 622 505 626 509 639 c 256
 512 649 508 654 498 654 c 256
 456 654 381 650 342 650 c 256
 302 650 237 655 193 655 c 256
 185 655 173 649 171 640 c 256
 167 628 172 621 183 618 c 256
 232 606 241 594 228 551 c 258
 65 25 l 258
 26 -103 5 -161 -27 -161 c 256
 -47 -161 -72 -137 -97 -114 c 256
 -121 -91 -144 -69 -162 -69 c 256
 -186 -69 -203 -101 -203 -142 c 256
 -202 -178 -167 -200 -64 -200 c 256
EndSplineSet
Fore
SplineSet
-64 -200 m 256
 0 -200 64 -169 117 -124 c 256
 179 -73 227 -4 244 52 c 258
 398 550 l 258
 410 590 424 602 484 618 c 256
 497 622 505 626 509 639 c 256
 512 649 508 654 498 654 c 256
 456 654 381 650 342 650 c 256
 302 650 237 655 193 655 c 256
 185 655 173 649 171 640 c 256
 167 628 172 621 183 618 c 256
 232 606 241 594 228 551 c 258
 65 25 l 258
 26 -103 5 -161 -27 -161 c 256
 -47 -161 -72 -137 -97 -114 c 256
 -121 -91 -144 -69 -162 -69 c 256
 -186 -69 -203 -101 -203 -142 c 256
 -202 -178 -167 -200 -64 -200 c 256
EndSplineSet
PickledDataWithLists: "(dp0
Vpublic.markColor
p1
V0.67,0.95,0.38,1
p2
s."
Substitution2: "'ss07' Style Set 7 in Latin lookup 38 subtable" J.hist
Substitution2: "'swsh' Swash in Latin lookup 30 subtable" J.swsh
Substitution2: "'hist' Historical Forms in Latin lookup 27 subtable" J.hist
Substitution2: "'c2pc' Capitals to Petite Capitals in Latin lookup 22 subtable" J.pc
Substitution2: "'c2sc' Capitals to Small Capitals in Latin lookup 20 subtable" J.sc
Substitution2: "'hist' Historical Forms in Latin lookup 19 subtable" J.hist
Substitution2: "'sups' Superscript in Latin lookup 10 subtable" J.sups
Substitution2: "'sinf' Scientific Inferiors in Latin lookup 9 subtable" J.sinf
Substitution2: "'subs' Subscript in Latin lookup 8 subtable" J.subs
Comment: "+AAoA-J+AAoA"
EndChar
StartChar: K
Encoding: 220 75 220
GlifName: K_
Width: 776
VWidth: 0
Flags: W
AnchorPoint: "bottom.cap" 327 -30 basechar 0
AnchorPoint: "top.cap" 526 675 basechar 0
LayerCount: 2
Back
SplineSet
77 -5 m 256
 127 -5 150 2 196 2 c 256
 234 2 243 -5 293 -5 c 256
 309 -5 323 -2 323 6 c 256
 323 15 318 20 298 24 c 256
 254 33 241 53 257 110 c 258
 311 302 l 258
 313 310 316 323 321 323 c 256
 326 323 347 318 354 306 c 258
 484 89 l 258
 523 23 552 0 574 0 c 256
 625 0 638 -5 693 -5 c 256
 709 -5 723 -2 723 6 c 256
 723 15 719 18 698 24 c 256
 665 33 638 40 607 70 c 256
 560 116 503 198 425 339 c 257
 421 346 421 352 426 357 c 256
 513 444 579 497 665 558 c 256
 720 597 777 615 826 624 c 256
 849 628 863 635 863 644 c 256
 863 651 858 655 846 655 c 256
 810 655 747 651 694 651 c 258
 644 651 l 258
 628 651 608 648 608 640 c 256
 608 631 617 625 632 620 c 256
 648 615 651 609 651 605 c 256
 651 594 637 582 620 567 c 258
 409 385 l 258
 382 362 362 347 342 347 c 256
 332 347 328 350 331 360 c 258
 387 551 l 258
 403 604 410 613 459 622 c 256
 482 626 496 633 496 642 c 256
 496 650 488 653 472 653 c 256
 422 653 416 651 381 651 c 256
 341 651 328 653 278 653 c 256
 262 653 247 650 247 642 c 256
 247 633 252 626 272 622 c 256
 316 613 327 597 313 551 c 258
 175 101 l 258
 160 51 138 33 89 24 c 256
 66 20 53 15 53 6 c 256
 53 -2 61 -5 77 -5 c 256
22 59 m 256
 87 41 121 49 160 40 c 256
 198 31 236 13 299 2 c 256
 312 0 328 4 330 14 c 256
 332 26 320 33 309 39 c 257
 262 65 261 77 267 114 c 256
 276 173 290 230 302 289 c 256
 304 300 310 304 315 303 c 256
 322 302 329 295 335 282 c 257
 447 75 l 257
 455 60 459 47 456 38 c 256
 453 25 438 18 407 18 c 256
 395 19 386 13 384 1 c 256
 381 -8 390 -16 398 -17 c 256
 445 -24 484 -31 532 -41 c 256
 595 -54 653 -74 713 -87 c 256
 739 -93 755 -88 757 -78 c 256
 760 -65 742 -56 731 -50 c 257
 683 -25 663 2 645 33 c 258
 470 342 l 258
 462 356 465 366 476 373 c 256
 545 415 607 466 672 497 c 256
 715 517 765 531 836 524 c 256
 848 523 866 525 869 538 c 256
 872 548 859 557 846 559 c 256
 765 573 712 584 644 598 c 257
 573 614 l 257
 565 616 556 612 553 603 c 256
 550 591 556 583 567 578 c 256
 595 564 609 550 605 536 c 256
 603 528 593 520 581 510 c 258
 351 346 l 257
 338 340 330 335 323 337 c 256
 317 339 313 343 316 354 c 258
 359 556 l 258
 368 595 379 605 436 609 c 257
 449 611 457 613 460 626 c 256
 462 635 457 642 447 644 c 256
 406 653 333 664 294 672 c 256
 255 681 191 697 149 708 c 256
 141 710 130 706 129 697 c 256
 127 685 131 677 142 672 c 256
 192 648 202 634 193 592 c 258
 98 149 l 258
 89 108 78 98 26 99 c 256
 10 99 1 95 -2 83 c 256
 -4 74 10 62 22 59 c 256
EndSplineSet
Fore
SplineSet
-24 -6 m 256
 45 -6 79 4 119 4 c 256
 158 4 195 -4 259 -4 c 256
 273 -4 294 3 294 16 c 256
 294 27 284 30 274 34 c 256
 227 49 226 61 237 98 c 258
 299 311 l 258
 301 317 304 321 312 321 c 256
 319 321 330 310 343 282 c 258
 425 101 l 258
 433 79 447 44 414 38 c 256
 397 35 382 28 382 14 c 256
 382 5 395 -2 405 -2 c 256
 450 -2 492 1 540 1 c 256
 589 1 633 -5 694 -5 c 256
 721 -5 732 3 732 14 c 256
 732 27 710 34 697 39 c 256
 666 51 639 67 612 98 c 256
 574 141 524 213 462 349 c 256
 457 360 459 368 472 381 c 256
 534 443 610 505 674 557 c 256
 717 592 761 612 835 618 c 256
 847 619 871 627 871 639 c 256
 871 649 862 654 849 654 c 256
 767 654 711 651 642 651 c 258
 562 651 l 258
 549 651 538 645 538 633 c 256
 538 621 543 616 560 613 c 256
 580 609 605 596 600 582 c 256
 597 573 588 563 573 548 c 258
 426 405 l 258
 392 371 362 356 335 356 c 256
 321 356 316 359 320 372 c 258
 375 550 l 258
 387 590 401 602 461 618 c 256
 474 622 489 627 489 643 c 256
 489 650 485 654 475 654 c 256
 433 654 358 650 319 650 c 256
 279 650 214 655 180 655 c 256
 161 655 147 645 147 633 c 256
 147 625 151 620 160 618 c 256
 209 606 218 594 205 551 c 258
 65 97 l 258
 52 56 39 44 -15 34 c 256
 -32 31 -43 24 -47 12 c 256
 -50 3 -36 -6 -24 -6 c 256
EndSplineSet
PickledDataWithLists: "(dp0
Vcom.schriftgestaltung.Glyphs.glyph.leftMetricsKey
p1
VH
p2
sVpublic.markColor
p3
V0.67,0.95,0.38,1
p4
s."
Substitution2: "'swsh' Swash in Latin lookup 30 subtable" K.swsh
Substitution2: "'c2pc' Capitals to Petite Capitals in Latin lookup 22 subtable" K.pc
Substitution2: "'c2sc' Capitals to Small Capitals in Latin lookup 20 subtable" K.sc
Substitution2: "'sups' Superscript in Latin lookup 10 subtable" K.sups
Substitution2: "'sinf' Scientific Inferiors in Latin lookup 9 subtable" K.sinf
Substitution2: "'subs' Subscript in Latin lookup 8 subtable" K.subs
Comment: "+AAoA-K+AAoA"
EndChar
StartChar: L
Encoding: 235 76 235
GlifName: L_
Width: 578
VWidth: 0
Flags: W
AnchorPoint: "bottom.cap" 268 -30 basechar 0
AnchorPoint: "top.cap" 346 675 basechar 0
LayerCount: 2
Back
SplineSet
-28 -5 m 256
 11 -5 77 0 117 0 c 256
 238 0 450 -5 487 -5 c 256
 499 -5 504 5 510 14 c 256
 533 48 571 132 571 174 c 256
 571 183 567 190 560 190 c 256
 552 190 546 188 537 178 c 256
 471 88 438 59 369 59 c 258
 272 59 l 258
 238 59 227 73 238 110 c 258
 375 550 l 258
 387 590 401 602 461 618 c 257
 474 622 482 626 486 639 c 256
 489 649 485 654 475 654 c 256
 433 654 358 650 319 650 c 256
 279 650 214 655 170 655 c 256
 162 655 150 649 148 640 c 256
 145 628 149 621 160 618 c 256
 209 605 218 594 205 551 c 258
 64 95 l 258
 51 54 32 46 -16 32 c 256
 -30 28 -40 19 -42 11 c 256
 -44 3 -40 -5 -28 -5 c 256
EndSplineSet
Fore
SplineSet
-28 -5 m 256
 11 -5 77 0 117 0 c 256
 238 0 435 -5 472 -5 c 256
 484 -5 489 5 495 14 c 256
 518 48 558 142 558 184 c 256
 558 193 553 204 546 204 c 256
 538 204 529 195 524 184 c 256
 502 138 475 101 437 75 c 256
 403 53 358 40 305 40 c 258
 279 40 l 258
 241 40 225 62 253 154 c 258
 375 550 l 258
 387 590 401 602 461 618 c 257
 474 622 482 626 486 639 c 256
 489 649 485 654 475 654 c 256
 433 654 358 650 319 650 c 256
 279 650 214 655 170 655 c 256
 162 655 150 649 148 640 c 256
 145 628 149 621 160 618 c 256
 209 605 218 594 205 551 c 258
 64 95 l 258
 51 54 32 46 -16 32 c 256
 -30 28 -40 19 -42 11 c 256
 -44 3 -40 -5 -28 -5 c 256
EndSplineSet
PickledDataWithLists: "(dp0
Vcom.schriftgestaltung.Glyphs.glyph.leftMetricsKey
p1
VH
p2
sVpublic.markColor
p3
V0.67,0.95,0.38,1
p4
s."
Substitution2: "'swsh' Swash in Latin lookup 30 subtable" L.swsh
Substitution2: "'c2pc' Capitals to Petite Capitals in Latin lookup 22 subtable" L.pc
Substitution2: "'c2sc' Capitals to Small Capitals in Latin lookup 20 subtable" L.sc
Substitution2: "'sups' Superscript in Latin lookup 10 subtable" L.sups
Substitution2: "'sinf' Scientific Inferiors in Latin lookup 9 subtable" L.sinf
Substitution2: "'subs' Subscript in Latin lookup 8 subtable" L.subs
Comment: "+AAoA-L+AAoA"
EndChar
StartChar: M
Encoding: 253 77 253
GlifName: M_
Width: 987
VWidth: 0
Flags: W
AnchorPoint: "bottom.cap" 375 -30 basechar 0
AnchorPoint: "top.cap" 623 675 basechar 0
LayerCount: 2
Back
SplineSet
352 -14 m 256
 360 -14 372 -3 378 5 c 257
 474 137 l 257
 723 429 l 258
 731 438 735 439 733 431 c 256
 710 320 681 208 648 97 c 256
 636 57 617 47 562 34 c 256
 549 31 537 24 533 12 c 256
 530 3 539 -3 550 -3 c 256
 594 -3 661 2 701 2 c 256
 740 2 820 -2 862 -2 c 256
 872 -2 883 3 886 13 c 256
 890 26 881 30 870 34 c 257
 834 45 811 65 818 98 c 256
 847 241 880 385 916 522 c 256
 929 572 953 601 999 613 c 256
 1035 622 1054 632 1054 644 c 256
 1054 656 1046 658 1031 658 c 256
 994 658 942 650 882 650 c 258
 837 650 l 258
 828 650 822 646 816 637 c 256
 806 621 792 601 773 573 c 256
 712 480 599 326 494 221 c 256
 482 209 476 215 475 227 c 258
 460 548 l 258
 458 598 474 653 419 653 c 257
 368 653 263 658 221 658 c 256
 206 658 186 657 186 643 c 256
 186 630 195 628 211 624 c 256
 307 601 316 575 276 494 c 258
 113 161 l 258
 64 60 33 47 -14 30 c 256
 -28 25 -43 24 -47 12 c 256
 -50 3 -44 -3 -28 -3 c 258
 -28 -3 41 1 87 1 c 256
 128 1 134 -2 189 -2 c 256
 199 -2 215 3 218 13 c 256
 222 26 208 31 197 34 c 256
 155 45 147 85 176 168 c 256
 208 260 250 356 294 448 c 256
 301 462 313 468 314 455 c 256
 328 308 336 161 336 9 c 256
 336 -6 344 -14 352 -14 c 256
EndSplineSet
Fore
SplineSet
352 -14 m 256
 360 -14 372 -3 378 5 c 257
 474 137 l 257
 723 424 l 258
 731 433 735 434 733 426 c 256
 706 316 681 208 648 97 c 256
 636 57 617 47 562 34 c 256
 549 31 537 24 533 12 c 256
 530 3 539 -3 550 -3 c 256
 594 -3 661 2 701 2 c 256
 740 2 820 -2 862 -2 c 256
 872 -2 883 3 886 13 c 256
 890 26 881 30 870 34 c 257
 834 45 811 65 818 98 c 256
 847 241 880 385 916 522 c 256
 929 572 953 601 999 613 c 256
 1035 622 1054 632 1054 644 c 256
 1054 656 1046 658 1031 658 c 256
 994 658 942 650 882 650 c 258
 832 650 l 258
 823 650 817 646 811 637 c 256
 801 621 787 601 768 573 c 256
 706 481 599 328 494 223 c 256
 482 211 476 217 475 229 c 258
 460 548 l 258
 458 598 474 653 419 653 c 257
 368 653 263 658 221 658 c 256
 206 658 186 657 186 643 c 256
 186 630 195 628 211 624 c 256
 307 601 316 575 276 494 c 258
 113 161 l 258
 64 60 33 47 -14 30 c 256
 -28 25 -43 24 -47 12 c 256
 -50 3 -44 -3 -28 -3 c 258
 -28 -3 41 1 87 1 c 256
 128 1 134 -2 189 -2 c 256
 199 -2 215 3 218 13 c 256
 222 26 208 31 197 34 c 256
 155 45 147 85 176 168 c 256
 208 260 249 350 295 441 c 256
 302 455 314 461 315 448 c 256
 326 301 336 161 336 9 c 256
 336 -6 344 -14 352 -14 c 256
EndSplineSet
PickledDataWithLists: "(dp0
Vpublic.markColor
p1
V0.67,0.95,0.38,1
p2
s."
Substitution2: "'swsh' Swash in Latin lookup 30 subtable" M.swsh
Substitution2: "'c2pc' Capitals to Petite Capitals in Latin lookup 22 subtable" M.pc
Substitution2: "'c2sc' Capitals to Small Capitals in Latin lookup 20 subtable" M.sc
Substitution2: "'sups' Superscript in Latin lookup 10 subtable" M.sups
Substitution2: "'sinf' Scientific Inferiors in Latin lookup 9 subtable" M.sinf
Substitution2: "'subs' Subscript in Latin lookup 8 subtable" M.subs
Comment: "+AAoA-M+AAoA"
EndChar
StartChar: N
Encoding: 262 78 262
GlifName: N_
Width: 783
VWidth: 0
Flags: W
AnchorPoint: "bottom.cap" 382 -30 basechar 0
AnchorPoint: "top.cap" 531 675 basechar 0
LayerCount: 2
Back
SplineSet
3 -3 m 258
 3 -3 69 1 115 1 c 256
 147 1 156 -2 211 -2 c 256
 221 -2 237 3 240 13 c 256
 244 26 231 31 220 34 c 256
 164 49 151 62 162 113 c 256
 182 205 248 392 284 477 c 256
 287 484 291 496 297 496 c 256
 300 496 304 489 305 486 c 257
 303 491 460 117 485 52 c 256
 501 10 516 -9 558 -8 c 256
 598 -7 620 0 678 0 c 256
 693 0 699 8 693 20 c 256
 688 31 681 38 675 45 c 256
 668 53 662 61 656 72 c 256
 639 103 642 129 655 171 c 256
 694 298 730 426 755 505 c 256
 783 593 805 609 854 619 c 256
 869 622 888 627 888 637 c 256
 888 646 883 652 869 652 c 256
 819 652 784 645 745 645 c 256
 726 645 684 651 630 651 c 256
 620 651 605 645 604 636 c 256
 603 627 609 623 620 621 c 256
 693 608 720 580 698 490 c 256
 684 435 629 234 619 208 c 256
 616 200 612 194 607 194 c 256
 603 194 600 201 597 206 c 257
 408 631 l 257
 401 645 391 653 372 653 c 256
 309 653 216 658 174 658 c 256
 159 658 141 650 141 642 c 256
 141 629 151 622 168 620 c 256
 247 614 279 584 251 510 c 258
 100 115 l 258
 82 69 56 43 16 33 c 256
 2 29 -11 24 -15 12 c 256
 -18 3 -5 -3 3 -3 c 258
EndSplineSet
Fore
SplineSet
3 -3 m 258
 3 -3 69 1 115 1 c 256
 147 1 156 -2 211 -2 c 256
 221 -2 237 3 240 13 c 256
 244 26 231 31 220 34 c 256
 164 49 151 62 162 113 c 256
 182 205 248 392 284 477 c 256
 287 484 291 496 297 496 c 256
 300 496 304 489 305 486 c 257
 303 491 460 117 485 52 c 256
 501 10 516 -9 558 -8 c 256
 598 -7 618 0 676 0 c 256
 691 0 698 3 698 16 c 256
 698 22 689 24 679 34 c 256
 670 43 662 59 656 69 c 256
 638 99 637 117 650 158 c 256
 689 285 730 426 755 505 c 256
 783 593 805 609 854 619 c 256
 869 622 888 627 888 637 c 256
 888 646 883 652 869 652 c 256
 819 652 784 645 745 645 c 256
 726 645 684 651 630 651 c 256
 620 651 605 645 604 636 c 256
 603 627 609 623 620 621 c 256
 693 608 716 580 698 490 c 256
 672 357 631 227 621 201 c 256
 618 193 614 187 609 187 c 256
 605 187 601 194 599 199 c 258
 408 631 l 257
 401 645 391 653 372 653 c 256
 309 653 216 658 174 658 c 256
 159 658 141 650 141 642 c 256
 141 629 151 622 168 620 c 256
 247 614 279 584 251 510 c 258
 100 115 l 258
 82 69 56 43 16 33 c 256
 2 29 -11 24 -15 12 c 256
 -18 3 -5 -3 3 -3 c 258
EndSplineSet
Guideline: "" "" 845 359 73 0 0
PickledDataWithLists: "(dp0
Vpublic.markColor
p1
V0.67,0.95,0.38,1
p2
s."
Substitution2: "'swsh' Swash in Latin lookup 30 subtable" N.swsh
Substitution2: "'c2pc' Capitals to Petite Capitals in Latin lookup 22 subtable" N.pc
Substitution2: "'c2sc' Capitals to Small Capitals in Latin lookup 20 subtable" N.sc
Substitution2: "'sups' Superscript in Latin lookup 10 subtable" N.sups
Substitution2: "'sinf' Scientific Inferiors in Latin lookup 9 subtable" N.sinf
Substitution2: "'subs' Subscript in Latin lookup 8 subtable" N.subs
Comment: "+AAoA-N+AAoA"
EndChar
StartChar: O
Encoding: 278 79 277
GlifName: O_
Width: 692
VWidth: 0
Flags: W
AnchorPoint: "bottom.cap" 278 -30 basechar 0
AnchorPoint: "top.cap" 501 675 basechar 0
LayerCount: 2
Back
SplineSet
292 -14 m 256
 520 -14 710 188 710 408 c 256
 710 561 604 664 470 664 c 256
 241 664 53 463 53 242 c 256
 53 89 158 -14 292 -14 c 256
294 28 m 256
 232 28 203 93 203 176 c 256
 203 336 330 622 466 622 c 256
 528 622 559 557 559 473 c 256
 559 314 431 28 294 28 c 256
EndSplineSet
Fore
SplineSet
292 -14 m 256
 520 -14 710 188 710 408 c 256
 710 561 604 664 470 664 c 256
 241 664 53 463 53 242 c 256
 53 89 158 -14 292 -14 c 256
291 25 m 256
 229 25 203 93 203 176 c 256
 203 336 333 629 469 629 c 256
 531 629 559 557 559 473 c 256
 559 314 428 25 291 25 c 256
EndSplineSet
PickledDataWithLists: "(dp0
Vpublic.markColor
p1
V0.67,0.95,0.38,1
p2
s."
Substitution2: "'swsh' Swash in Latin lookup 30 subtable" O.swsh
Substitution2: "'c2pc' Capitals to Petite Capitals in Latin lookup 22 subtable" O.pc
Substitution2: "'c2sc' Capitals to Small Capitals in Latin lookup 20 subtable" O.sc
Substitution2: "Single Substitution lookup 14 subtable" ordmasculine
Substitution2: "'sups' Superscript in Latin lookup 10 subtable" O.sups
Substitution2: "'sinf' Scientific Inferiors in Latin lookup 9 subtable" O.sinf
Substitution2: "'subs' Subscript in Latin lookup 8 subtable" O.subs
Comment: "+AAoA-O+AAoA"
EndChar
StartChar: P
Encoding: 314 80 313
GlifName: P_
Width: 637
VWidth: 0
Flags: W
AnchorPoint: "top.cap" 441 675 basechar 0
LayerCount: 2
Back
SplineSet
-27 -3 m 256
 17 -3 85 2 125 2 c 256
 164 2 250 -2 292 -2 c 256
 306 -2 326 3 326 13 c 256
 326 26 315 31 304 34 c 256
 251 46 229 56 242 98 c 258
 376 529 l 258
 401 610 413 614 433 614 c 256
 482 614 527 588 527 466 c 256
 527 383 482 291 390 275 c 256
 373 272 364 270 351 268 c 256
 339 266 329 261 329 252 c 256
 329 236 339 229 375 229 c 256
 546 229 672 330 678 467 c 256
 682 576 600 657 458 657 c 256
 404 657 358 652 326 650 c 256
 286 648 223 655 179 655 c 256
 167 655 150 648 147 639 c 256
 144 631 154 622 169 618 c 256
 212 607 225 594 212 551 c 258
 71 97 l 258
 58 56 40 46 -14 34 c 256
 -27 31 -45 24 -45 12 c 256
 -45 3 -35 -3 -27 -3 c 256
EndSplineSet
Fore
SplineSet
-27 -3 m 256
 17 -3 85 2 125 2 c 256
 164 2 250 -2 292 -2 c 256
 306 -2 326 3 326 13 c 256
 326 26 315 31 304 34 c 256
 251 46 229 56 242 98 c 258
 376 529 l 258
 401 610 413 614 433 614 c 256
 482 614 528 596 528 474 c 256
 528 391 482 291 390 275 c 256
 373 272 364 270 351 268 c 256
 339 266 329 261 329 252 c 256
 329 236 339 229 375 229 c 256
 546 229 672 330 678 467 c 256
 682 576 600 657 458 657 c 256
 404 657 358 652 326 650 c 256
 286 648 223 655 179 655 c 256
 167 655 150 648 147 639 c 256
 144 631 154 622 169 618 c 256
 212 607 225 594 212 551 c 258
 71 97 l 258
 58 56 40 46 -14 34 c 256
 -27 31 -45 24 -45 12 c 256
 -45 3 -35 -3 -27 -3 c 256
EndSplineSet
PickledDataWithLists: "(dp0
Vcom.schriftgestaltung.Glyphs.glyph.leftMetricsKey
p1
VH
p2
sVpublic.markColor
p3
V0.67,0.95,0.38,1
p4
s."
Substitution2: "'swsh' Swash in Latin lookup 30 subtable" P.swsh
Substitution2: "'c2pc' Capitals to Petite Capitals in Latin lookup 22 subtable" P.pc
Substitution2: "'c2sc' Capitals to Small Capitals in Latin lookup 20 subtable" P.sc
Substitution2: "'sups' Superscript in Latin lookup 10 subtable" P.sups
Substitution2: "'sinf' Scientific Inferiors in Latin lookup 9 subtable" P.sinf
Substitution2: "'subs' Subscript in Latin lookup 8 subtable" P.subs
Comment: "+AAoA-P+AAoA"
EndChar
StartChar: Q
Encoding: 327 81 326
GlifName: Q_
Width: 703
VWidth: 0
Flags: W
LayerCount: 2
Back
SplineSet
531 -290 m 256
 614 -290 705 -206 729 -149 c 256
 741 -125 721 -101 694 -137 c 256
 673 -166 643 -186 604 -186 c 256
 563 -186 514 -150 456 -118 c 256
 407 -90 355 -64 302 -64 c 257
 266 -64 225 -69 189 -87 c 257
 199 -94 l 257
 329 -54 384 -26 474 29 c 256
 625 122 710 252 710 408 c 256
 710 561 604 664 470 664 c 256
 241 664 53 463 53 242 c 256
 53 89 158 -14 292 -14 c 256
 308 -14 325 -13 341 -11 c 257
 380 38 l 257
 360 34 342 33 326 33 c 256
 230 34 203 97 203 176 c 256
 203 336 327 612 463 612 c 256
 525 612 559 557 559 473 c 256
 559 284 486 104 276 -14 c 256
 212 -49 25 -105 25 -144 c 256
 25 -154 32 -162 43 -162 c 256
 55 -162 71 -149 90 -142 c 256
 103 -137 123 -133 145 -133 c 256
 195 -133 258 -169 316 -205 c 256
 382 -246 452 -290 531 -290 c 256
EndSplineSet
Fore
SplineSet
571 -290 m 256
 654 -290 746 -206 769 -149 c 256
 779 -124 760 -101 734 -137 c 256
 713 -166 683 -186 644 -186 c 256
 605 -186 542 -153 476 -121 c 256
 411 -89 345 -58 297 -58 c 256
 261 -58 215 -69 179 -87 c 257
 178 -94 l 257
 308 -54 363 -26 453 29 c 256
 604 122 710 252 710 408 c 256
 710 561 604 664 470 664 c 256
 241 664 53 463 53 242 c 256
 53 89 158 -14 292 -14 c 256
 308 -14 325 -13 341 -11 c 257
 376 30 l 257
 356 26 338 25 322 25 c 256
 226 26 203 97 203 176 c 256
 203 352 332 620 470 620 c 256
 533 620 559 570 559 473 c 256
 559 284 486 104 276 -14 c 256
 212 -49 25 -105 25 -144 c 256
 25 -154 32 -162 43 -162 c 256
 55 -162 71 -149 90 -142 c 256
 103 -137 123 -133 145 -133 c 256
 198 -133 264 -167 333 -204 c 256
 412 -246 495 -290 571 -290 c 256
EndSplineSet
PickledDataWithLists: "(dp0
Vcom.schriftgestaltung.Glyphs.glyph.leftMetricsKey
p1
VO
p2
sVpublic.markColor
p3
V0.67,0.95,0.38,1
p4
s."
Substitution2: "'ss06' Style Set 6 in Latin lookup 37 subtable" Q.long
Substitution2: "'swsh' Swash in Latin lookup 30 subtable" Q.swsh
Substitution2: "'c2pc' Capitals to Petite Capitals in Latin lookup 22 subtable" Q.pc
Substitution2: "'c2sc' Capitals to Small Capitals in Latin lookup 20 subtable" Q.sc
Substitution2: "'sups' Superscript in Latin lookup 10 subtable" Q.sups
Substitution2: "'sinf' Scientific Inferiors in Latin lookup 9 subtable" Q.sinf
Substitution2: "'subs' Subscript in Latin lookup 8 subtable" Q.subs
Comment: "+AAoA-Q+AAoA"
EndChar
StartChar: R
Encoding: 340 82 339
GlifName: R_
Width: 773
VWidth: 0
Flags: W
AnchorPoint: "bottom.cap" 344 -30 basechar 0
AnchorPoint: "top.cap" 464 675 basechar 0
LayerCount: 2
Back
SplineSet
-23 -3 m 256
 21 -3 88 2 128 2 c 256
 167 2 253 -2 295 -2 c 256
 305 -2 312 3 316 13 c 256
 320 26 314 31 303 34 c 257
 250 46 232 56 245 98 c 258
 301 280 l 258
 305 292 311 300 322 300 c 256
 340 300 351 286 356 268 c 256
 374 197 385 161 405 100 c 256
 423 46 458 0 571 0 c 256
 684 0 721 7 721 31 c 256
 721 48 702 54 685 54 c 256
 638 54 604 87 580 131 c 256
 548 190 531 226 496 311 c 257
 494 315 495 321 500 323 c 257
 592 343 672 418 668 508 c 256
 664 587 605 657 474 657 c 256
 399 657 375 647 327 647 c 256
 275 647 251 655 186 655 c 256
 174 655 151 650 151 639 c 256
 151 628 161 622 176 618 c 256
 219 607 228 594 215 551 c 258
 75 97 l 258
 62 56 43 45 -11 34 c 256
 -24 31 -33 24 -37 12 c 256
 -40 3 -31 -3 -23 -3 c 256
353 328 m 256
 331 328 321 339 329 366 c 258
 396 582 l 258
 406 613 418 617 443 617 c 256
 482 617 510 578 510 524 c 256
 510 407 452 328 353 328 c 256
EndSplineSet
Fore
SplineSet
-23 -3 m 256
 21 -3 88 2 128 2 c 256
 167 2 253 -2 295 -2 c 256
 305 -2 312 3 316 13 c 256
 320 26 314 31 303 34 c 257
 250 46 232 56 245 98 c 258
 301 280 l 258
 305 292 311 300 322 300 c 256
 340 300 351 286 356 268 c 256
 374 197 385 161 405 100 c 256
 423 46 458 0 571 0 c 256
 684 0 718 4 718 28 c 256
 718 45 699 51 682 51 c 256
 635 51 599 87 578 131 c 256
 549 191 523 234 488 319 c 257
 486 323 487 329 492 331 c 257
 584 351 668 418 668 508 c 256
 668 590 611 657 474 657 c 256
 399 657 375 647 327 647 c 256
 275 647 251 655 186 655 c 256
 174 655 148 650 148 639 c 256
 148 628 161 622 176 618 c 256
 219 607 231 598 218 555 c 258
 75 97 l 258
 62 56 43 45 -11 34 c 256
 -24 31 -33 24 -37 12 c 256
 -40 3 -31 -3 -23 -3 c 256
353 328 m 256
 331 328 321 339 329 366 c 258
 381 532 l 258
 408 618 416 622 441 622 c 256
 480 622 510 578 510 524 c 256
 510 407 452 328 353 328 c 256
EndSplineSet
PickledDataWithLists: "(dp0
Vcom.schriftgestaltung.Glyphs.glyph.leftMetricsKey
p1
VH
p2
sVpublic.markColor
p3
V0.67,0.95,0.38,1
p4
s."
Substitution2: "'swsh' Swash in Latin lookup 30 subtable" R.swsh
Substitution2: "'c2pc' Capitals to Petite Capitals in Latin lookup 22 subtable" R.pc
Substitution2: "'c2sc' Capitals to Small Capitals in Latin lookup 20 subtable" R.sc
Substitution2: "'sups' Superscript in Latin lookup 10 subtable" R.sups
Substitution2: "'sinf' Scientific Inferiors in Latin lookup 9 subtable" R.sinf
Substitution2: "'subs' Subscript in Latin lookup 8 subtable" R.subs
Comment: "+AAoA-R+AAoA"
EndChar
StartChar: S
Encoding: 353 83 352
GlifName: S_
Width: 539
VWidth: 0
Flags: W
AnchorPoint: "bottom.cap" 185 -30 basechar 0
AnchorPoint: "top.cap" 416 675 basechar 0
LayerCount: 2
Back
SplineSet
227 -14 m 256
 386 -14 483 102 483 205 c 256
 483 283 451 326 387 379 c 256
 318 437 280 460 280 524 c 256
 280 573 323 612 386 612 c 256
 430 612 508 575 502 481 c 256
 500 450 507 437 521 437 c 256
 535 437 541 446 545 460 c 256
 560 511 593 590 619 624 c 256
 628 636 625 648 611 648 c 256
 601 648 591 643 581 637 c 256
 572 632 565 631 555 631 c 256
 538 631 525 636 498 644 c 256
 469 653 427 664 376 664 c 256
 234 664 132 577 132 465 c 256
 132 384 162 337 228 279 c 256
 301 214 331 184 331 141 c 256
 331 83 285 44 206 44 c 256
 122 44 86 95 86 158 c 256
 86 205 84 226 65 226 c 256
 48 226 41 216 37 191 c 256
 27 115 -17 39 -17 24 c 256
 -17 14 -1 0 7 0 c 256
 13 0 22 6 32 12 c 256
 39 16 49 20 58 20 c 256
 62 20 76 15 95 7 c 256
 132 -9 176 -14 227 -14 c 256
EndSplineSet
Fore
SplineSet
227 -14 m 256
 386 -14 482 96 482 199 c 256
 482 267 460 319 378 387 c 256
 296 455 280 477 280 524 c 256
 280 571 311 624 384 624 c 256
 455 624 502 567 502 481 c 256
 502 450 507 437 521 437 c 256
 535 437 541 446 545 460 c 256
 560 511 593 590 619 624 c 256
 628 636 625 648 611 648 c 256
 601 648 591 643 581 637 c 256
 572 632 565 631 555 631 c 256
 538 631 525 636 498 644 c 256
 469 653 427 664 376 664 c 256
 234 664 132 577 132 465 c 256
 132 384 162 337 228 279 c 256
 314 203 331 177 331 134 c 256
 331 77 288 29 209 29 c 256
 125 29 86 95 86 158 c 256
 86 205 84 226 65 226 c 256
 48 226 41 216 37 191 c 256
 27 115 -17 39 -17 24 c 256
 -17 14 -1 0 7 0 c 256
 13 0 22 6 32 12 c 256
 39 16 49 20 58 20 c 256
 62 20 76 15 95 7 c 256
 132 -9 176 -14 227 -14 c 256
EndSplineSet
PickledDataWithLists: "(dp0
Vpublic.markColor
p1
V0.67,0.95,0.38,1
p2
s."
Substitution2: "'swsh' Swash in Latin lookup 30 subtable" S.swsh
Substitution2: "'c2pc' Capitals to Petite Capitals in Latin lookup 22 subtable" S.pc
Substitution2: "'c2sc' Capitals to Small Capitals in Latin lookup 20 subtable" S.sc
Substitution2: "'sups' Superscript in Latin lookup 10 subtable" S.sups
Substitution2: "'sinf' Scientific Inferiors in Latin lookup 9 subtable" S.sinf
Substitution2: "'subs' Subscript in Latin lookup 8 subtable" S.subs
Comment: "+AAoA-S+AAoA"
EndChar
StartChar: T
Encoding: 373 84 372
GlifName: T_
Width: 688
VWidth: 0
Flags: W
AnchorPoint: "bottom.cap" 280 -30 basechar 0
AnchorPoint: "top.cap" 502 675 basechar 0
LayerCount: 2
Back
SplineSet
127 -3 m 256
 171 -3 244 2 284 2 c 256
 323 2 401 -2 443 -2 c 256
 453 -2 463 3 466 13 c 256
 470 26 461 30 451 34 c 257
 403 49 389 61 400 98 c 258
 539 546 l 258
 548 575 577 592 610 592 c 258
 631 592 l 258
 688 592 706 569 708 516 c 256
 709 488 713 477 726 477 c 256
 739 477 746 490 754 514 c 256
 770 562 789 602 824 664 c 256
 828 671 830 678 832 683 c 256
 836 693 833 699 824 699 c 256
 807 699 790 679 764 665 c 256
 753 659 727 651 697 651 c 258
 362 650 l 258
 312 650 292 657 276 674 c 256
 264 686 250 700 235 700 c 256
 221 700 212 692 205 674 c 256
 186 625 161 576 117 526 c 256
 110 518 104 507 102 499 c 256
 100 490 100 481 112 481 c 256
 133 481 171 519 186 534 c 256
 220 568 271 592 315 592 c 258
 351 592 l 258
 375 592 380 579 373 559 c 258
 230 97 l 258
 217 56 194 46 140 34 c 256
 127 31 115 24 111 12 c 256
 108 3 119 -3 127 -3 c 256
EndSplineSet
Fore
SplineSet
127 -3 m 256
 171 -3 244 2 284 2 c 256
 323 2 401 -2 443 -2 c 256
 453 -2 463 3 466 13 c 256
 470 26 461 30 451 34 c 257
 403 49 388 61 400 98 c 258
 533 524 l 258
 556 596 567 613 600 613 c 258
 639 613 l 258
 696 613 713 584 715 531 c 256
 716 503 720 492 733 492 c 256
 746 492 753 505 761 529 c 256
 777 577 796 617 824 664 c 256
 828 671 830 678 832 683 c 256
 836 693 833 699 824 699 c 256
 807 699 789 678 760 667 c 256
 749 663 727 651 639 651 c 258
 380 650 l 258
 312 650 301 661 281 674 c 256
 267 683 250 700 235 700 c 256
 221 700 212 692 205 674 c 256
 186 625 170 591 126 541 c 256
 119 533 113 522 111 514 c 256
 109 505 109 496 121 496 c 256
 142 496 180 534 195 549 c 256
 229 583 279 613 323 613 c 258
 362 613 l 258
 386 613 387 600 363 522 c 258
 230 97 l 258
 217 56 194 46 140 34 c 256
 127 31 115 24 111 12 c 256
 108 3 119 -3 127 -3 c 256
EndSplineSet
PickledDataWithLists: "(dp0
Vpublic.markColor
p1
V0.67,0.95,0.38,1
p2
s."
Substitution2: "'swsh' Swash in Latin lookup 30 subtable" T.swsh
Substitution2: "'c2pc' Capitals to Petite Capitals in Latin lookup 22 subtable" T.pc
Substitution2: "'c2sc' Capitals to Small Capitals in Latin lookup 20 subtable" T.sc
Substitution2: "'sups' Superscript in Latin lookup 10 subtable" T.sups
Substitution2: "'sinf' Scientific Inferiors in Latin lookup 9 subtable" T.sinf
Substitution2: "'subs' Subscript in Latin lookup 8 subtable" T.subs
Comment: "+AAoA-T+AAoA"
EndChar
StartChar: U
Encoding: 392 85 391
GlifName: U_
Width: 715
VWidth: 0
Flags: W
AnchorPoint: "bottom.cap" 302 -30 basechar 0
AnchorPoint: "top.cap" 543 675 basechar 0
LayerCount: 2
Back
SplineSet
318 -14 m 256
 490 -14 583 94 633 257 c 256
 663 352 688 437 721 534 c 256
 738 584 756 605 807 618 c 256
 826 623 837 630 840 640 c 256
 844 652 834 655 820 655 c 256
 778 655 769 651 731 651 c 256
 694 651 682 654 630 654 c 256
 611 654 599 649 596 639 c 256
 592 625 619 622 632 614 c 256
 665 593 677 573 653 476 c 256
 639 418 619 350 588 260 c 256
 553 156 469 68 368 68 c 256
 289 68 230 138 262 237 c 258
 357 530 l 258
 372 575 394 598 418 608 c 256
 442 618 472 623 477 639 c 256
 480 649 471 654 455 654 c 256
 413 654 346 650 307 650 c 256
 267 650 216 655 172 655 c 256
 157 655 144 649 141 640 c 256
 138 630 144 623 161 618 c 256
 194 608 198 570 188 536 c 258
 101 256 l 258
 53 101 137 -14 318 -14 c 256
EndSplineSet
Fore
SplineSet
318 -14 m 256
 490 -14 583 94 633 257 c 256
 663 352 688 437 721 534 c 256
 738 584 756 605 807 618 c 256
 826 623 837 630 840 640 c 256
 844 652 834 655 820 655 c 256
 778 655 769 651 731 651 c 256
 694 651 682 654 630 654 c 256
 611 654 599 649 596 639 c 256
 592 625 619 622 632 614 c 256
 660 596 674 563 646 445 c 256
 639 418 619 350 588 260 c 256
 553 156 469 68 368 68 c 256
 289 68 230 138 262 237 c 258
 357 530 l 258
 372 575 394 598 418 608 c 256
 442 618 472 623 477 639 c 256
 480 649 471 654 455 654 c 256
 413 654 346 650 307 650 c 256
 267 650 216 655 172 655 c 256
 157 655 144 649 141 640 c 256
 138 630 144 623 161 618 c 256
 194 608 198 570 188 536 c 258
 101 256 l 258
 53 101 137 -14 318 -14 c 256
EndSplineSet
PickledDataWithLists: "(dp0
Vpublic.markColor
p1
V0.67,0.95,0.38,1
p2
s."
Substitution2: "'swsh' Swash in Latin lookup 30 subtable" U.swsh
Substitution2: "'c2pc' Capitals to Petite Capitals in Latin lookup 22 subtable" U.pc
Substitution2: "'c2sc' Capitals to Small Capitals in Latin lookup 20 subtable" U.sc
Substitution2: "'sups' Superscript in Latin lookup 10 subtable" U.sups
Substitution2: "'sinf' Scientific Inferiors in Latin lookup 9 subtable" U.sinf
Substitution2: "'subs' Subscript in Latin lookup 8 subtable" U.subs
Comment: "+AAoA-U+AAoA"
EndChar
StartChar: V
Encoding: 430 86 429
GlifName: V_
Width: 735
VWidth: 0
Flags: W
AnchorPoint: "bottom.cap" 170 -30 basechar 0
AnchorPoint: "top.cap" 534 675 basechar 0
LayerCount: 2
Back
SplineSet
208 -18 m 256
 248 -14 305 79 353 134 c 258
 710 540 l 258
 745 579 781 609 824 620 c 256
 837 624 862 627 862 641 c 256
 862 651 846 657 831 657 c 256
 789 657 760 651 721 651 c 256
 681 651 662 654 618 654 c 256
 604 654 587 649 584 640 c 256
 580 628 595 622 607 618 c 256
 654 602 661 569 573 464 c 258
 336 181 l 258
 331 175 331 173 328 173 c 256
 325 173 325 175 326 180 c 258
 397 555 l 258
 405 597 420 607 468 618 c 256
 481 621 499 628 503 640 c 256
 506 649 492 655 481 655 c 256
 437 655 362 650 322 650 c 256
 283 650 219 654 177 654 c 256
 155 654 143 649 143 638 c 256
 143 624 158 623 180 615 c 256
 208 605 221 590 217 554 c 256
 201 410 179 273 148 122 c 256
 134 53 144 -24 208 -18 c 256
EndSplineSet
Fore
SplineSet
182 -18 m 256
 208 -18 300 81 349 136 c 258
 708 540 l 258
 743 579 781 609 824 620 c 256
 837 624 862 627 862 641 c 256
 862 651 846 657 831 657 c 256
 789 657 760 651 721 651 c 256
 681 651 659 654 615 654 c 256
 601 654 584 649 581 640 c 256
 577 628 592 622 604 618 c 256
 651 602 666 568 578 464 c 258
 336 177 l 258
 331 171 331 169 328 169 c 256
 325 169 325 171 326 176 c 258
 397 555 l 258
 405 597 420 607 468 618 c 256
 481 621 499 628 503 640 c 256
 506 649 492 655 481 655 c 256
 437 655 362 650 322 650 c 256
 283 650 219 654 177 654 c 256
 155 654 143 649 143 638 c 256
 143 624 158 623 180 615 c 256
 208 605 221 590 217 554 c 256
 201 410 179 273 148 122 c 256
 131 39 133 -18 182 -18 c 256
EndSplineSet
PickledDataWithLists: "(dp0
Vpublic.markColor
p1
V0.67,0.95,0.38,1
p2
s."
Substitution2: "'swsh' Swash in Latin lookup 30 subtable" V.swsh
Substitution2: "'c2pc' Capitals to Petite Capitals in Latin lookup 22 subtable" V.pc
Substitution2: "'c2sc' Capitals to Small Capitals in Latin lookup 20 subtable" V.sc
Substitution2: "'sups' Superscript in Latin lookup 10 subtable" V.sups
Substitution2: "'sinf' Scientific Inferiors in Latin lookup 9 subtable" V.sinf
Substitution2: "'subs' Subscript in Latin lookup 8 subtable" V.subs
Comment: "+AAoA-V+AAoA"
EndChar
StartChar: W
Encoding: 440 87 439
GlifName: W_
Width: 1121
VWidth: 0
Flags: W
AnchorPoint: "bottom.cap" 437 -30 basechar 0
AnchorPoint: "top.cap" 720 675 basechar 0
LayerCount: 2
Back
SplineSet
194 -18 m 256
 244 -18 304 82 351 139 c 258
 614 457 l 257
 600 361 569 214 551 111 c 256
 536 24 544 -14 589 -14 c 256
 618 -14 670 60 740 141 c 258
 1087 540 l 258
 1121 579 1167 610 1210 620 c 256
 1223 623 1248 627 1248 641 c 256
 1248 651 1232 657 1217 657 c 256
 1175 657 1146 651 1107 651 c 256
 1067 651 1036 654 992 654 c 256
 978 654 961 649 958 640 c 256
 954 628 969 622 981 618 c 256
 1015 606 1033 570 952 466 c 258
 757 214 l 258
 748 202 741 199 743 213 c 258
 799 555 l 258
 806 597 827 608 875 618 c 256
 890 621 908 628 908 640 c 256
 908 651 898 655 883 655 c 256
 839 655 754 650 714 650 c 256
 675 650 621 654 579 654 c 256
 557 654 545 649 545 638 c 256
 545 624 560 623 582 615 c 256
 610 605 619 593 619 564 c 256
 619 535 597 506 574 478 c 258
 356 212 l 258
 346 200 340 202 342 216 c 256
 358 329 377 442 396 555 c 256
 403 597 419 607 467 618 c 256
 480 621 498 628 502 640 c 256
 505 649 491 655 480 655 c 256
 436 655 351 650 311 650 c 256
 272 650 219 654 177 654 c 256
 155 654 143 649 143 638 c 256
 143 624 158 623 180 615 c 256
 208 605 221 590 217 554 c 256
 201 410 180 273 158 122 c 256
 148 53 155 -18 194 -18 c 256
EndSplineSet
Fore
SplineSet
194 -18 m 256
 244 -18 304 82 351 139 c 258
 614 457 l 257
 600 361 569 214 551 111 c 256
 536 24 544 -14 589 -14 c 256
 618 -14 670 60 740 141 c 258
 1087 540 l 258
 1121 579 1167 610 1210 620 c 256
 1223 623 1248 627 1248 641 c 256
 1248 651 1232 657 1217 657 c 256
 1175 657 1146 651 1107 651 c 256
 1067 651 1036 654 992 654 c 256
 978 654 961 649 958 640 c 256
 954 628 969 622 981 618 c 256
 1015 606 1033 570 952 466 c 258
 749 205 l 258
 740 193 732 190 735 204 c 258
 799 555 l 258
 807 597 827 608 875 618 c 256
 890 621 908 628 908 640 c 256
 908 651 898 655 883 655 c 256
 839 655 754 650 714 650 c 256
 675 650 621 654 579 654 c 256
 557 654 545 649 545 638 c 256
 545 624 560 623 582 615 c 256
 610 605 619 593 619 564 c 256
 619 535 597 506 574 478 c 258
 346 202 l 258
 336 190 330 192 332 206 c 256
 350 319 377 442 396 555 c 256
 403 597 419 607 467 618 c 256
 480 621 498 628 502 640 c 256
 505 649 491 655 480 655 c 256
 436 655 351 650 311 650 c 256
 272 650 219 654 177 654 c 256
 155 654 143 649 143 638 c 256
 143 624 158 623 180 615 c 256
 208 605 221 590 217 554 c 256
 201 410 180 273 158 122 c 256
 148 53 155 -18 194 -18 c 256
EndSplineSet
PickledDataWithLists: "(dp0
Vpublic.markColor
p1
V0.67,0.95,0.38,1
p2
s."
Substitution2: "'swsh' Swash in Latin lookup 30 subtable" W.swsh
Substitution2: "'c2pc' Capitals to Petite Capitals in Latin lookup 22 subtable" W.pc
Substitution2: "'c2sc' Capitals to Small Capitals in Latin lookup 20 subtable" W.sc
Substitution2: "'sups' Superscript in Latin lookup 10 subtable" W.sups
Substitution2: "'sinf' Scientific Inferiors in Latin lookup 9 subtable" W.sinf
Substitution2: "'subs' Subscript in Latin lookup 8 subtable" W.subs
Comment: "+AAoA-W+AAoA"
EndChar
StartChar: X
Encoding: 455 88 454
GlifName: X_
Width: 730
VWidth: 0
Flags: W
AnchorPoint: "bottom.cap" 238 -30 basechar 0
AnchorPoint: "top.cap" 517 675 basechar 0
LayerCount: 2
Back
SplineSet
-2 -7 m 256
 40 -7 68 0 107 0 c 256
 147 0 168 -4 212 -4 c 256
 226 -4 241 1 241 10 c 256
 241 22 224 29 211 32 c 256
 167 42 149 61 175 96 c 258
 302 269 l 258
 312 282 326 283 331 266 c 258
 379 94 l 258
 389 59 370 46 327 35 c 256
 315 32 299 25 299 13 c 256
 299 4 315 -2 326 -2 c 256
 368 -2 408 1 448 1 c 256
 515 1 552 -5 637 -5 c 256
 651 -5 662 0 662 10 c 256
 662 23 638 33 626 36 c 256
 603 42 571 62 561 92 c 258
 497 289 l 258
 487 319 493 335 511 356 c 258
 693 568 l 258
 714 592 753 611 781 620 c 256
 793 624 810 627 810 640 c 256
 810 653 792 657 777 657 c 256
 735 657 707 650 668 650 c 256
 637 650 605 654 575 654 c 256
 561 654 546 649 546 640 c 256
 546 628 563 620 576 618 c 256
 618 612 619 580 600 554 c 258
 487 399 l 258
 477 386 463 385 458 402 c 258
 417 548 l 258
 406 588 427 609 465 618 c 256
 477 621 493 628 493 640 c 256
 493 649 477 655 466 655 c 256
 417 655 374 648 327 648 c 256
 269 648 224 654 157 654 c 256
 147 654 138 649 138 639 c 256
 138 626 147 619 160 618 c 256
 195 615 223 596 236 554 c 258
 289 382 l 258
 299 351 294 337 275 315 c 258
 75 79 l 258
 54 55 22 39 -6 30 c 256
 -18 26 -35 23 -35 10 c 256
 -35 -3 -17 -7 -2 -7 c 256
EndSplineSet
Fore
SplineSet
-2 -7 m 256
 40 -7 68 0 107 0 c 256
 147 0 163 -4 207 -4 c 256
 221 -4 236 1 236 10 c 256
 236 22 219 29 206 32 c 256
 162 42 134 63 190 140 c 258
 296 286 l 258
 306 299 320 300 325 283 c 258
 379 94 l 258
 389 59 370 46 327 35 c 256
 315 32 299 25 299 13 c 256
 299 4 315 -2 326 -2 c 256
 368 -2 408 1 448 1 c 256
 515 1 552 -5 637 -5 c 256
 651 -5 662 0 662 10 c 256
 662 23 638 33 626 36 c 256
 603 42 571 62 561 92 c 258
 495 291 l 258
 485 321 491 337 509 358 c 258
 693 568 l 258
 714 592 753 611 781 620 c 256
 793 624 810 627 810 640 c 256
 810 653 792 657 777 657 c 256
 735 657 715 650 676 650 c 256
 645 650 619 654 589 654 c 256
 575 654 560 649 560 640 c 256
 560 628 577 620 590 618 c 256
 632 612 635 579 576 501 c 258
 492 391 l 258
 482 378 468 377 463 394 c 258
 417 548 l 258
 405 588 427 609 465 618 c 256
 477 621 493 628 493 640 c 256
 493 649 477 655 466 655 c 256
 417 655 374 648 327 648 c 256
 269 648 224 654 157 654 c 256
 147 654 138 649 138 639 c 256
 138 626 147 619 160 618 c 256
 195 615 223 596 236 554 c 258
 289 382 l 258
 299 351 294 337 275 315 c 258
 117 129 l 258
 54 55 22 39 -6 30 c 256
 -18 26 -35 23 -35 10 c 256
 -35 -3 -17 -7 -2 -7 c 256
EndSplineSet
PickledDataWithLists: "(dp0
Vpublic.markColor
p1
V0.67,0.95,0.38,1
p2
s."
Substitution2: "'swsh' Swash in Latin lookup 30 subtable" X.swsh
Substitution2: "'c2pc' Capitals to Petite Capitals in Latin lookup 22 subtable" X.pc
Substitution2: "'c2sc' Capitals to Small Capitals in Latin lookup 20 subtable" X.sc
Substitution2: "'sups' Superscript in Latin lookup 10 subtable" X.sups
Substitution2: "'sinf' Scientific Inferiors in Latin lookup 9 subtable" X.sinf
Substitution2: "'subs' Subscript in Latin lookup 8 subtable" X.subs
Comment: "+AAoA-X+AAoA"
EndChar
StartChar: Y
Encoding: 464 89 463
GlifName: Y_
Width: 669
VWidth: 0
Flags: W
AnchorPoint: "bottom.cap" 288 -30 basechar 0
AnchorPoint: "top.cap" 507 675 basechar 0
LayerCount: 2
Back
SplineSet
119 -6 m 256
 163 -6 232 3 272 3 c 256
 311 3 384 -5 426 -5 c 256
 441 -5 454 2 457 12 c 256
 461 25 448 29 434 33 c 256
 387 47 377 60 393 111 c 258
 437 254 l 258
 450 295 468 327 492 353 c 256
 554 421 615 487 675 557 c 256
 699 585 737 609 780 620 c 257
 793 624 808 627 812 640 c 256
 816 653 803 657 788 657 c 256
 748 657 717 649 676 649 c 256
 638 649 609 654 569 654 c 256
 555 654 538 649 535 640 c 256
 531 628 546 619 559 618 c 256
 614 614 614 580 580 539 c 256
 532 480 479 414 434 360 c 256
 424 348 418 343 413 343 c 256
 408 343 403 346 399 366 c 258
 365 543 l 258
 357 584 368 603 434 618 c 256
 446 621 465 628 468 640 c 256
 470 649 457 655 446 655 c 256
 396 655 355 648 316 648 c 256
 256 648 219 654 156 654 c 256
 146 654 135 649 132 639 c 256
 128 626 137 622 148 618 c 257
 184 607 195 582 204 554 c 258
 265 353 l 258
 276 314 277 286 264 246 c 258
 222 110 l 258
 210 69 187 43 132 33 c 256
 117 30 100 23 97 11 c 256
 94 2 102 -6 119 -6 c 256
EndSplineSet
Fore
SplineSet
119 -6 m 256
 163 -6 232 3 272 3 c 256
 311 3 384 -5 426 -5 c 256
 441 -5 454 2 457 12 c 256
 461 25 448 29 434 33 c 256
 387 47 377 60 393 111 c 258
 438 259 l 258
 451 300 469 332 493 358 c 256
 555 426 610 489 670 559 c 256
 694 587 737 609 780 620 c 257
 793 624 808 627 812 640 c 256
 816 653 803 657 788 657 c 256
 748 657 717 649 676 649 c 256
 638 649 609 654 578 654 c 256
 564 654 547 649 544 640 c 256
 540 628 555 620 568 618 c 256
 625 609 623 575 587 532 c 256
 539 473 487 404 442 350 c 256
 432 338 426 333 421 333 c 256
 416 333 412 336 407 356 c 258
 365 543 l 258
 356 584 368 603 434 618 c 256
 446 621 465 628 468 640 c 256
 470 649 457 655 446 655 c 256
 396 655 355 648 316 648 c 256
 256 648 215 654 152 654 c 256
 142 654 131 649 128 639 c 256
 124 626 133 622 158 613 c 256
 183 604 195 581 204 554 c 258
 265 353 l 258
 276 314 277 286 264 246 c 258
 222 110 l 258
 210 69 187 43 132 33 c 256
 117 30 100 23 97 11 c 256
 94 2 102 -6 119 -6 c 256
EndSplineSet
PickledDataWithLists: "(dp0
Vpublic.markColor
p1
V0.67,0.95,0.38,1
p2
s."
Substitution2: "'swsh' Swash in Latin lookup 30 subtable" Y.swsh
Substitution2: "'c2pc' Capitals to Petite Capitals in Latin lookup 22 subtable" Y.pc
Substitution2: "'c2sc' Capitals to Small Capitals in Latin lookup 20 subtable" Y.sc
Substitution2: "'sups' Superscript in Latin lookup 10 subtable" Y.sups
Substitution2: "'sinf' Scientific Inferiors in Latin lookup 9 subtable" Y.sinf
Substitution2: "'subs' Subscript in Latin lookup 8 subtable" Y.subs
Comment: "+AAoA-Y+AAoA"
EndChar
StartChar: Z
Encoding: 480 90 479
GlifName: Z_
Width: 642
VWidth: 0
Flags: W
AnchorPoint: "bottom.cap" 263 -30 basechar 0
AnchorPoint: "top.cap" 460 675 basechar 0
LayerCount: 2
Back
SplineSet
503 -4 m 256
 518 -4 530 2 538 16 c 256
 566 64 604 124 616 160 c 256
 619 169 613 175 605 175 c 256
 597 175 591 173 583 163 c 257
 537 100 485 58 424 52 c 256
 392 49 374 50 344 50 c 256
 328 50 250 51 227 53 c 256
 206 55 207 63 221 79 c 256
 344 217 476 382 594 516 c 258
 694 630 l 258
 699 635 694 655 684 655 c 256
 640 655 538 650 482 650 c 256
 443 650 418 650 379 650 c 256
 312 650 259 670 217 670 c 256
 201 670 194 662 185 641 c 256
 171 608 161 576 137 533 c 256
 132 524 129 514 127 506 c 256
 125 497 125 488 137 488 c 256
 158 488 169 506 183 523 c 256
 230 580 278 601 333 609 c 256
 354 612 424 615 448 615 c 256
 467 615 463 603 455 594 c 256
 317 438 179 272 47 122 c 256
 19 91 -8 63 -35 30 c 256
 -40 24 -44 -2 -30 -2 c 256
 24 -2 97 1 217 1 c 257
 363 0 493 -4 503 -4 c 256
EndSplineSet
Fore
SplineSet
503 -4 m 256
 518 -4 530 2 538 16 c 256
 566 64 604 124 616 160 c 256
 619 169 613 175 605 175 c 256
 597 175 591 173 583 163 c 257
 552 121 522 95 485 75 c 256
 446 55 403 46 341 45 c 256
 297 44 239 43 216 43 c 256
 195 43 196 53 210 69 c 256
 332 208 476 382 594 516 c 258
 694 630 l 258
 699 635 694 655 684 655 c 256
 640 655 538 650 482 650 c 256
 443 650 418 650 379 650 c 256
 312 650 259 670 217 670 c 256
 201 670 194 662 185 641 c 256
 171 608 161 576 137 533 c 256
 132 524 129 514 127 506 c 256
 125 497 125 488 137 488 c 256
 158 488 169 506 183 523 c 256
 230 580 278 601 333 609 c 256
 354 612 424 615 448 615 c 256
 467 615 463 603 455 594 c 256
 317 438 179 272 47 122 c 256
 19 91 -8 58 -35 25 c 256
 -40 19 -44 -8 -30 -7 c 256
 32 -3 97 1 217 1 c 256
 363 0 493 -4 503 -4 c 256
EndSplineSet
PickledDataWithLists: "(dp0
Vpublic.markColor
p1
V0.67,0.95,0.38,1
p2
s."
Substitution2: "'swsh' Swash in Latin lookup 30 subtable" Z.swsh
Substitution2: "'c2pc' Capitals to Petite Capitals in Latin lookup 22 subtable" Z.pc
Substitution2: "'c2sc' Capitals to Small Capitals in Latin lookup 20 subtable" Z.sc
Substitution2: "'sups' Superscript in Latin lookup 10 subtable" Z.sups
Substitution2: "'sinf' Scientific Inferiors in Latin lookup 9 subtable" Z.sinf
Substitution2: "'subs' Subscript in Latin lookup 8 subtable" Z.subs
Comment: "+AAoA-Z+AAoA"
EndChar
StartChar: bracketleft
Encoding: 622 91 621
GlifName: bracketleft
Width: 377
VWidth: 0
Flags: W
LayerCount: 2
Fore
SplineSet
9 -201 m 258
 200 -200 l 258
 210 -200 221 -195 226 -179 c 256
 231 -162 216 -155 205 -154 c 256
 183 -152 162 -150 140 -148 c 256
 107 -145 101 -114 110 -87 c 256
 179 138 249 362 318 587 c 256
 327 614 352 646 387 649 c 256
 410 651 432 652 455 654 c 256
 466 655 487 662 492 679 c 256
 497 695 488 700 478 700 c 258
 289 701 l 258
 254 701 247 701 229 645 c 258
 -15 -145 l 258
 -33 -201 -26 -201 9 -201 c 258
EndSplineSet
Substitution2: "'smcp' Lowercase to Small Capitals in Latin lookup 21 subtable" bracketleft.sc
Substitution2: "'c2sc' Capitals to Small Capitals in Latin lookup 20 subtable" bracketleft.sc
Substitution2: "'sups' Superscript in Latin lookup 10 subtable" bracketleft.sups
Substitution2: "'sinf' Scientific Inferiors in Latin lookup 9 subtable" bracketleft.sinf
Substitution2: "'subs' Subscript in Latin lookup 8 subtable" bracketleft.subs
Comment: "+AAoA-bracketleft+AAoA"
EndChar
StartChar: backslash
Encoding: 595 92 594
GlifName: backslash
Width: 395
VWidth: 0
Flags: W
LayerCount: 2
Back
SplineSet
271 -68 m 256
 281 -69 293 -65 292 -54 c 258
 199 651 l 258
 197 665 184 669 170 671 c 256
 161 672 151 665 152 655 c 258
 243 -50 l 258
 245 -62 258 -67 271 -68 c 256
EndSplineSet
Fore
SplineSet
274 -63 m 256
 289 -63 302 -53 301 -43 c 258
 214 645 l 258
 211 664 196 668 174 668 c 256
 156 668 144 655 145 646 c 258
 233 -42 l 258
 235 -60 255 -63 274 -63 c 256
EndSplineSet
PickledDataWithLists: "(dp0
Vpublic.markColor
p1
V0.67,0.95,0.38,1
p2
s."
Substitution2: "'smcp' Lowercase to Small Capitals in Latin lookup 21 subtable" backslash.sc
Substitution2: "'c2sc' Capitals to Small Capitals in Latin lookup 20 subtable" backslash.sc
Substitution2: "'sups' Superscript in Latin lookup 10 subtable" backslash.sups
Substitution2: "'sinf' Scientific Inferiors in Latin lookup 9 subtable" backslash.sinf
Substitution2: "'subs' Subscript in Latin lookup 8 subtable" backslash.subs
Comment: "+AAoA-backslash+AAoA"
EndChar
StartChar: asciicircum
Encoding: 561 94 560
GlifName: asciicircum
Width: 518
VWidth: 0
Flags: W
LayerCount: 2
Fore
SplineSet
69 242 m 256
 89 242 106 259 119 279 c 258
 267 500 l 258
 270 505 272 507 277 500 c 258
 428 279 l 258
 441 259 458 242 478 242 c 256
 499 242 506 255 500 266 c 257
 276 609 l 257
 268 609 l 257
 47 266 l 257
 46 264 45 261 45 259 c 256
 45 246 57 242 69 242 c 256
EndSplineSet
Substitution2: "'smcp' Lowercase to Small Capitals in Latin lookup 21 subtable" asciicircum.sc
Substitution2: "'c2sc' Capitals to Small Capitals in Latin lookup 20 subtable" asciicircum.sc
Substitution2: "'sups' Superscript in Latin lookup 10 subtable" asciicircum.sups
Substitution2: "'sinf' Scientific Inferiors in Latin lookup 9 subtable" asciicircum.sinf
Substitution2: "'subs' Subscript in Latin lookup 8 subtable" asciicircum.subs
Comment: "+AAoA-asciicircum+AAoA"
EndChar
StartChar: underscore
Encoding: 1491 95 1490
GlifName: underscore
Width: 609
VWidth: 0
Flags: W
LayerCount: 2
Back
SplineSet
480 -127 m 258
 -76 -127 l 258
 -97 -127 -115 -162 -119 -174 c 256
 -121 -180 -115 -188 -106 -188 c 258
 452 -188 l 258
 471 -188 494 -160 499 -143 c 256
 502 -134 494 -127 480 -127 c 258
EndSplineSet
Fore
SplineSet
475 -127 m 258
 -80 -127 l 258
 -101 -127 -119 -162 -119 -174 c 256
 -119 -180 -115 -188 -106 -188 c 258
 455 -188 l 258
 474 -188 496 -162 496 -145 c 256
 496 -136 489 -127 475 -127 c 258
EndSplineSet
PickledDataWithLists: "(dp0
Vpublic.markColor
p1
V0.67,0.95,0.38,1
p2
s."
Substitution2: "'smcp' Lowercase to Small Capitals in Latin lookup 21 subtable" underscore.sc
Substitution2: "'c2sc' Capitals to Small Capitals in Latin lookup 20 subtable" underscore.sc
Substitution2: "'sups' Superscript in Latin lookup 10 subtable" underscore.sups
Substitution2: "'sinf' Scientific Inferiors in Latin lookup 9 subtable" underscore.sinf
Substitution2: "'subs' Subscript in Latin lookup 8 subtable" underscore.subs
Comment: "+AAoA-underscore+AAoA"
EndChar
StartChar: a
Encoding: 497 97 496
GlifName: a
Width: 552
VWidth: 0
Flags: HW
AnchorPoint: "bottom" 186 -30 basechar 0
AnchorPoint: "top" 318 440 basechar 0
LayerCount: 4
Back
SplineSet
36 -14 m 256
 93 -14 165 38 264 152 c 256
 267 155 274 151 272 146 c 256
 261 120 249 92 240 67 c 256
 237 57 235 49 235 44 c 256
 235 18 274 -14 307 -14 c 256
 337 -14 390 12 441 53 c 256
 485 89 514 126 514 147 c 256
 514 156 508 164 501 164 c 256
 500 164 501 165 497 161 c 256
 463 127 428 102 415 102 c 256
 404 102 400 111 405 126 c 258
 502 392 l 258
 503 393 503 396 503 399 c 256
 503 418 454 447 421 447 c 256
 407 447 397 442 394 435 c 256
 390 425 387 419 379 403 c 256
 375 395 376 396 373 396 c 256
 371 396 371 396 364 403 c 256
 341 421 316 432 298 432 c 256
 272 432 215 388 160 325 c 256
 13 158 -28 95 -28 38 c 256
 -28 15 8 -14 36 -14 c 256
152 101 m 256
 133 101 122 114 122 137 c 256
 122 191 152 267 188 304 c 256
 218 335 260 361 280 361 c 256
 289 361 305 353 319 342 c 256
 334 330 341 322 341 315 c 256
 341 299 315 257 274 206 c 256
 227 147 173 101 152 101 c 256
EndSplineSet
Fore
SplineSet
36 -14 m 256
 93 -14 165 38 264 152 c 256
 267 155 274 151 272 146 c 256
 261 120 249 92 240 67 c 256
 237 57 235 49 235 44 c 256
 235 18 274 -14 307 -14 c 256
 337 -14 390 12 441 53 c 256
 485 89 514 126 514 147 c 256
 514 156 508 164 501 164 c 256
 500 164 501 165 497 161 c 256
 463 127 428 102 415 102 c 256
 404 102 400 111 405 126 c 258
 502 392 l 258
 503 393 503 396 503 399 c 256
 503 418 454 447 421 447 c 256
 407 447 397 442 394 435 c 266
 379 403 l 282
 377 400 375 396 373 396 c 256
 371 396 368 400 364 403 c 256
 342 420 316 432 298 432 c 256
 272 432 215 388 160 325 c 256
 13 158 -28 95 -28 38 c 256
 -28 15 8 -14 36 -14 c 256
152 101 m 256
 133 101 122 114 122 137 c 256
 122 191 154 265 190 302 c 256
 220 333 260 361 280 361 c 256
 289 361 305 353 319 342 c 256
 334 330 341 322 341 315 c 256
 341 299 315 257 274 206 c 256
 227 147 173 101 152 101 c 256
EndSplineSet
PickledDataWithLists: "(dp0
Vcom.schriftgestaltung.Glyphs.glyph.rightMetricsKey
p1
Vi
p2
sVpublic.markColor
p3
V0.67,0.95,0.38,1
p4
s."
Layer: 2
SplineSet
62 -14 m 256
 138 -14 214 43 339 191 c 257
 389 356 l 257
 328 236 222 121 203 121 c 256
 194 121 180 129 182 140 c 256
 194 218 242 326 276 326 c 256
 299 326 344 283 352 275 c 257
 401 388 l 257
 398 393 393 401 387 403 c 256
 369 422 340 443 312 437 c 256
 251 423 11 168 11 30 c 256
 11 5 40 -14 62 -14 c 256
333 -14 m 256
 402 -14 541 95 541 144 c 256
 541 148 537 154 529 154 c 256
 527 154 526 152 525 151 c 256
 499 125 467 97 445 97 c 256
 440 97 437 102 437 108 c 256
 437 113 439 121 441 128 c 258
 532 392 l 258
 545 431 428 470 415 437 c 256
 368 317 331 191 279 67 c 256
 275 58 274 50 274 44 c 256
 274 19 299 -14 333 -14 c 256
EndSplineSet
PickledDataWithLists: "(dp0
Vcom.schriftgestaltung.Glyphs.glyph.rightMetricsKey
p1
Vi
p2
sVpublic.markColor
p3
V0.67,0.95,0.38,1
p4
s."
Layer: 3
SplineSet
300 -14 m 256
 340 -14 382 12 411 39 c 256
 425 53 448 80 448 90 c 256
 448 97 445 100 439 100 c 256
 434 100 422 86 408 74 c 256
 392 61 375 49 360 49 c 256
 341 49 328 63 341 97 c 258
 448 380 l 258
 452 391 455 400 455 405 c 256
 455 415 434 426 417 426 c 256
 407 426 401 407 388 386 c 256
 386 382 384 380 382 380 c 256
 380 380 376 387 370 395 c 256
 364 402 353 409 342 409 c 256
 324 409 285 386 204 315 c 256
 117 239 14 117 14 30 c 256
 14 5 43 -14 65 -14 c 256
 125 -14 186 31 309 168 c 256
 315 175 320 171 311 153 c 256
 296 122 265 60 265 25 c 256
 265 4 282 -14 300 -14 c 256
329 353 m 256
 347 353 367 331 367 323 c 256
 367 309 355 270 285 187 c 256
 193 77 145 49 124 49 c 256
 109 49 98 59 98 70 c 256
 98 122 155 223 225 291 c 256
 261 326 307 353 329 353 c 256
151 -15 m 256
 251 -15 317 57 354 131 c 256
 356 135 358 144 358 148 c 256
 358 154 354 159 347 159 c 256
 342 159 335 155 328 147 c 256
 298 112 264 97 235 97 c 256
 190 97 153 136 153 182 c 256
 153 195 154 209 157 223 c 256
 158 228 160 233 166 232 c 256
 254 217 403 266 403 359 c 256
 403 402 369 437 289 437 c 256
 135 437 14 287 14 124 c 256
 14 39 95 -15 151 -15 c 256
173 271 m 256
 169 271 164 271 166 277 c 256
 182 326 216 399 261 399 c 256
 284 399 296 386 295 368 c 256
 291 293 203 271 173 271 c 256
EndSplineSet
Substitution2: "'ss01' Style Set 1 in Latin lookup 31 subtable" A.pc
Substitution2: "'pcap' Lowercase to Petite Capitals in Latin lookup 23 subtable" a.pc
Substitution2: "'smcp' Lowercase to Small Capitals in Latin lookup 21 subtable" a.sc
Substitution2: "Single Substitution lookup 13 subtable" ordfeminine
Substitution2: "'sups' Superscript in Latin lookup 10 subtable" a.sups
Substitution2: "'sinf' Scientific Inferiors in Latin lookup 9 subtable" a.sinf
Substitution2: "'subs' Subscript in Latin lookup 8 subtable" a.subs
Comment: "+AAoA-a+AAoA"
EndChar
StartChar: b
Encoding: 588 98 587
GlifName: b
Width: 543
VWidth: 0
Flags: W
AnchorPoint: "bottom" 206 -30 basechar 0
LayerCount: 2
Back
SplineSet
190 -14 m 256
 353 -14 546 184 546 351 c 256
 546 398 506 437 456 437 c 256
 393 437 310 372 233 262 c 256
 228 253 224 255 227 264 c 256
 300 499 326 570 364 650 c 256
 371 664 374 676 374 693 c 256
 374 703 365 707 346 707 c 256
 330 707 228 681 172 662 c 256
 149 654 143 649 143 640 c 256
 143 634 148 630 163 624 c 256
 190 614 199 606 199 592 c 256
 199 577 197 567 186 531 c 258
 80 188 l 258
 68 152 63 124 63 99 c 256
 63 27 109 -14 190 -14 c 256
221 26 m 256
 198 26 174 53 174 79 c 256
 174 109 209 180 257 247 c 256
 307 316 353 358 379 358 c 256
 395 358 406 347 406 330 c 256
 406 292 362 184 319 115 c 256
 290 68 244 26 221 26 c 256
EndSplineSet
Fore
SplineSet
190 -14 m 256
 353 -14 546 184 546 351 c 256
 546 398 506 437 456 437 c 256
 393 437 310 372 233 262 c 256
 228 253 224 255 227 264 c 256
 300 499 326 570 364 650 c 256
 371 664 374 676 374 693 c 256
 374 703 365 707 346 707 c 256
 330 707 228 681 172 662 c 256
 149 654 143 649 143 640 c 256
 143 634 148 630 163 624 c 256
 190 614 199 606 199 592 c 256
 199 577 197 567 186 531 c 258
 80 188 l 258
 68 152 63 124 63 99 c 256
 63 27 109 -14 190 -14 c 256
221 26 m 256
 198 26 180 62 180 88 c 256
 180 118 209 180 257 247 c 256
 307 316 353 350 379 350 c 256
 395 350 405 339 405 322 c 256
 405 284 362 184 319 115 c 256
 290 68 244 26 221 26 c 256
EndSplineSet
PickledDataWithLists: "(dp0
Vcom.schriftgestaltung.Glyphs.glyph.leftMetricsKey
p1
Vh
p2
sVcom.schriftgestaltung.Glyphs.glyph.rightMetricsKey
p3
V=|d
p4
sVpublic.markColor
p5
V0.67,0.95,0.38,1
p6
s."
Substitution2: "'ss01' Style Set 1 in Latin lookup 31 subtable" B.pc
Substitution2: "'pcap' Lowercase to Petite Capitals in Latin lookup 23 subtable" b.pc
Substitution2: "'smcp' Lowercase to Small Capitals in Latin lookup 21 subtable" b.sc
Substitution2: "'sups' Superscript in Latin lookup 10 subtable" b.sups
Substitution2: "'sinf' Scientific Inferiors in Latin lookup 9 subtable" b.sinf
Substitution2: "'subs' Subscript in Latin lookup 8 subtable" b.subs
Comment: "+AAoA-b+AAoA"
EndChar
StartChar: c
Encoding: 645 99 644
GlifName: c
Width: 378
VWidth: 0
Flags: W
AnchorPoint: "bottom" 156 -30 basechar 0
AnchorPoint: "top" 265 440 basechar 0
AnchorPoint: "bottom" 156 -30 basechar 0
AnchorPoint: "top" 265 440 basechar 0
LayerCount: 6
Back
SplineSet
155 -14 m 256
 237 -14 338 80 338 156 c 256
 338 162 334 167 328 167 c 256
 322 167 314 162 309 155 c 256
 287 126 253 108 218 108 c 256
 171 108 142 140 143 191 c 256
 145 292 197 385 252 385 c 256
 268 385 287 370 301 345 c 256
 317 318 322 313 333 313 c 256
 353 313 376 344 376 371 c 256
 376 409 337 437 283 437 c 256
 136 437 14 300 10 129 c 256
 8 51 73 -14 155 -14 c 256
EndSplineSet
Fore
SplineSet
155 -14 m 256
 237 -14 338 80 338 156 c 256
 338 162 334 167 328 167 c 256
 322 167 314 162 309 155 c 256
 287 126 253 108 218 108 c 256
 171 108 142 140 143 191 c 256
 145 292 197 391 252 391 c 256
 268 391 287 370 301 345 c 256
 317 318 322 313 333 313 c 256
 353 313 376 344 376 371 c 256
 376 409 337 437 283 437 c 256
 136 437 14 300 10 129 c 256
 8 51 73 -14 155 -14 c 256
EndSplineSet
PickledDataWithLists: "(dp0
Vcom.schriftgestaltung.Glyphs.glyph.leftMetricsKey
p1
Vo
p2
sVpublic.markColor
p3
V0.67,0.95,0.38,1
p4
s."
Layer: 4
SplineSet
158 -14 m 256
 255 -14 345 88 345 149 c 256
 345 155 341 160 334 160 c 256
 329 160 322 156 315 148 c 256
 285 113 257 99 228 98 c 256
 180 97 147 131 147 183 c 256
 147 304 216 400 263 400 c 256
 284 400 303 372 315 353 c 256
 326 336 334 321 350 321 c 256
 375 321 395 357 395 386 c 256
 395 409 367 437 298 437 c 256
 135 437 8 281 8 125 c 256
 8 43 84 -14 158 -14 c 256
EndSplineSet
PickledDataWithLists: "(dp0
Vcom.schriftgestaltung.Glyphs.glyph.leftMetricsKey
p1
Vo
p2
sVpublic.markColor
p3
V0.67,0.95,0.38,1
p4
s."
Layer: 5
SplineSet
80 -15 m 256
 161 -15 233 63 233 84 c 256
 233 91 231 97 225 97 c 256
 217 97 214 93 205 84 c 256
 180 59 159 41 116 41 c 256
 87 41 68 54 68 98 c 256
 68 208 153 387 217 387 c 256
 239 387 250 372 258 357 c 256
 265 344 271 333 282 333 c 256
 296 333 312 360 312 382 c 256
 312 399 293 414 257 414 c 256
 87 414 -2 210 -4 90 c 256
 -5 28 44 -15 80 -15 c 256
EndSplineSet
Substitution2: "'ss01' Style Set 1 in Latin lookup 31 subtable" C.pc
Substitution2: "'pcap' Lowercase to Petite Capitals in Latin lookup 23 subtable" c.pc
Substitution2: "'smcp' Lowercase to Small Capitals in Latin lookup 21 subtable" c.sc
Substitution2: "'sups' Superscript in Latin lookup 10 subtable" c.sups
Substitution2: "'sinf' Scientific Inferiors in Latin lookup 9 subtable" c.sinf
Substitution2: "'subs' Subscript in Latin lookup 8 subtable" c.subs
Comment: "+AAoA-c+AAoA"
EndChar
StartChar: d
Encoding: 695 100 694
GlifName: d
Width: 573
VWidth: 0
Flags: W
AnchorPoint: "bottom" 210 -30 basechar 0
LayerCount: 2
Back
SplineSet
171 96 m 256
 151 96 145 103 145 126 c 256
 145 214 257 383 316 383 c 256
 340 383 354 364 354 333 c 256
 354 244 240 96 171 96 c 256
EndSplineSet
Fore
SplineSet
79 -14 m 256
 134 -14 202 37 293 146 c 256
 299 155 307 152 303 143 c 257
 310 163 274 95 262 67 c 257
 259 57 257 49 257 44 c 256
 257 18 296 -14 329 -14 c 256
 395 -14 535 96 535 148 c 256
 535 157 529 164 521 164 c 256
 520 164 521 165 517 161 c 256
 487 131 443 99 431 99 c 256
 428 99 426 102 426 106 c 256
 426 109 427 113 428 118 c 258
 614 650 l 258
 622 673 624 681 624 693 c 256
 624 703 615 707 596 707 c 256
 572 707 449 684 417 673 c 256
 394 665 388 660 388 651 c 256
 388 645 393 641 408 635 c 256
 437 624 451 612 451 599 c 256
 451 587 459 612 435 537 c 258
 392 403 l 258
 390 397 388 394 385 394 c 256
 379 394 375 396 370 399 c 256
 346 413 315 437 279 437 c 256
 228 437 171 399 112 328 c 256
 40 241 -4 145 -4 73 c 256
 -4 23 31 -14 79 -14 c 256
175 95 m 256
 156 95 145 107 145 127 c 256
 145 215 255 383 313 383 c 256
 339 383 354 364 354 330 c 256
 354 246 239 95 175 95 c 256
EndSplineSet
PickledDataWithLists: "(dp0
Vpublic.markColor
p1
V0.67,0.95,0.38,1
p2
s."
Substitution2: "'ss01' Style Set 1 in Latin lookup 31 subtable" D.pc
Substitution2: "'pcap' Lowercase to Petite Capitals in Latin lookup 23 subtable" d.pc
Substitution2: "'smcp' Lowercase to Small Capitals in Latin lookup 21 subtable" d.sc
Substitution2: "'sups' Superscript in Latin lookup 10 subtable" d.sups
Substitution2: "'sinf' Scientific Inferiors in Latin lookup 9 subtable" d.sinf
Substitution2: "'subs' Subscript in Latin lookup 8 subtable" d.subs
Comment: "+AAoA-d+AAoA"
EndChar
StartChar: e
Encoding: 739 101 738
GlifName: e
Width: 389
VWidth: 0
Flags: W
AnchorPoint: "bottom" 142 -30 basechar 0
AnchorPoint: "top" 280 440 basechar 0
LayerCount: 2
Back
SplineSet
133 -6 m 256
 198 -6 251 31 293 95 c 256
 295 98 295 101 295 103 c 256
 295 109 291 113 285 113 c 256
 280 113 274 110 267 102 c 256
 246 77 213 48 165 48 c 256
 129 48 115 77 115 122 c 256
 115 153 122 189 133 218 c 256
 136 226 140 226 148 228 c 256
 258 255 376 284 376 368 c 256
 376 402 349 423 302 423 c 256
 160 423 41 232 41 98 c 256
 41 51 90 -6 133 -6 c 256
155 251 m 256
 150 251 148 251 148 257 c 256
 148 287 236 398 291 398 c 256
 308 398 318 383 318 366 c 256
 318 286 185 251 155 251 c 256
EndSplineSet
Fore
SplineSet
142 -15 m 256
 242 -15 307 57 345 131 c 256
 348 135 348 142 348 146 c 256
 348 152 346 157 339 157 c 256
 334 157 329 153 322 145 c 256
 290 112 261 93 226 93 c 256
 171 93 144 136 145 183 c 256
 146 189 146 195 148 201 c 256
 149 206 151 209 157 210 c 256
 254 231 394 266 394 359 c 256
 394 400 360 437 276 437 c 256
 144 437 5 283 5 111 c 256
 5 39 86 -15 142 -15 c 256
164 248 m 256
 160 247 156 248 157 254 c 256
 170 334 215 399 260 399 c 256
 280 399 289 380 288 366 c 256
 282 291 226 266 164 248 c 256
EndSplineSet
PickledDataWithLists: "(dp0
Vcom.schriftgestaltung.Glyphs.glyph.leftMetricsKey
p1
Vo
p2
sVpublic.markColor
p3
V0.67,0.95,0.38,1
p4
s."
Substitution2: "'ss01' Style Set 1 in Latin lookup 31 subtable" E.pc
Substitution2: "'fina' Terminal Forms in Latin lookup 26 subtable" e.fina
Substitution2: "'pcap' Lowercase to Petite Capitals in Latin lookup 23 subtable" e.pc
Substitution2: "'smcp' Lowercase to Small Capitals in Latin lookup 21 subtable" e.sc
Substitution2: "'sups' Superscript in Latin lookup 10 subtable" e.sups
Substitution2: "'sinf' Scientific Inferiors in Latin lookup 9 subtable" e.sinf
Substitution2: "'subs' Subscript in Latin lookup 8 subtable" e.subs
Comment: "+AAoA-e+AAoA"
EndChar
StartChar: f
Encoding: 823 102 822
GlifName: f
Width: 396
VWidth: 0
Flags: W
LayerCount: 2
Back
SplineSet
-116 -288 m 256
 -60 -288 50 -215 78 -108 c 256
 117 43 161 195 208 346 c 257
 211 358 219 362 233 362 c 258
 324 363 l 258
 342 363 353 383 353 392 c 256
 353 400 350 403 346 403 c 256
 312 403 276 400 236 400 c 256
 230 400 226 402 226 409 c 256
 226 416 228 419 231 429 c 256
 239 455 244 477 252 503 c 256
 287 618 315 665 371 665 c 256
 400 665 418 651 430 624 c 256
 440 602 447 585 457 585 c 256
 475 585 498 602 498 636 c 256
 498 677 463 706 404 706 c 256
 334 706 223 640 175 450 c 258
 167 418 l 258
 164 406 157 399 148 398 c 258
 78 394 l 257
 68 393 59 379 59 368 c 256
 59 361 63 356 72 356 c 258
 134 357 l 258
 148 357 152 352 148 339 c 258
 14 -113 l 258
 -19 -223 -38 -248 -76 -248 c 256
 -100 -248 -116 -237 -128 -224 c 256
 -141 -210 -150 -196 -160 -196 c 256
 -173 -196 -199 -218 -199 -238 c 256
 -199 -271 -166 -288 -116 -288 c 256
EndSplineSet
Fore
SplineSet
-58 -291 m 256
 10 -291 146 -183 170 -96 c 256
 210 47 252 198 291 340 c 256
 296 358 306 365 332 366 c 258
 411 369 l 257
 418 369 437 399 437 410 c 256
 437 418 432 425 426 425 c 256
 392 425 365 422 331 422 c 256
 322 422 312 424 314 438 c 256
 315 444 316 450 317 457 c 256
 321 478 327 505 335 533 c 256
 354 598 384 665 417 665 c 256
 443 665 455 639 465 612 c 256
 475 584 482 556 508 556 c 256
 537 556 555 595 555 630 c 256
 555 674 506 706 445 706 c 256
 350 706 233 638 173 459 c 258
 165 435 l 258
 162 425 161 422 154 422 c 258
 93 419 l 258
 69 418 56 393 56 383 c 256
 56 369 60 364 75 364 c 258
 134 365 l 258
 148 365 151 360 148 347 c 257
 12 -143 l 258
 -4 -199 -24 -242 -51 -242 c 256
 -76 -242 -89 -218 -104 -196 c 256
 -117 -176 -135 -149 -148 -149 c 256
 -175 -149 -202 -173 -202 -209 c 256
 -202 -248 -162 -291 -58 -291 c 256
EndSplineSet
PickledDataWithLists: "(dp0
Vpublic.markColor
p1
V0.67,0.95,0.38,1
p2
s."
Substitution2: "'ss01' Style Set 1 in Latin lookup 31 subtable" F.pc
Substitution2: "'pcap' Lowercase to Petite Capitals in Latin lookup 23 subtable" f.pc
Substitution2: "'smcp' Lowercase to Small Capitals in Latin lookup 21 subtable" f.sc
Substitution2: "'sups' Superscript in Latin lookup 10 subtable" f.sups
Substitution2: "'sinf' Scientific Inferiors in Latin lookup 9 subtable" f.sinf
Substitution2: "'subs' Subscript in Latin lookup 8 subtable" f.subs
Comment: "+AAoA-f+AAoA"
EndChar
StartChar: g
Encoding: 872 103 871
GlifName: g
Width: 480
VWidth: 0
Flags: W
AnchorPoint: "top" 299 440 basechar 0
LayerCount: 8
Back
SplineSet
123 -290 m 256
 274 -290 391 -216 391 -128 c 256
 391 -100 371 -73 338 -51 c 256
 290 -19 230 14 191 41 c 256
 169 56 154 70 154 84 c 256
 154 88 158 91 164 94 c 256
 175 99 187 98 199 98 c 256
 327 98 417 207 417 315 c 256
 417 324 417 332 415 340 c 257
 412 350 419 351 425 351 c 256
 449 351 473 345 491 345 c 256
 508 345 515 366 515 389 c 256
 515 411 502 416 493 416 c 256
 466 416 437 400 400 400 c 256
 389 400 369 410 346 419 c 256
 324 428 298 437 274 437 c 256
 114 437 42 319 42 228 c 256
 42 173 89 133 124 117 c 256
 133 113 139 108 114 93 c 256
 68 66 33 49 33 17 c 256
 33 -11 61 -32 84 -47 c 256
 95 -55 90 -60 82 -62 c 256
 -27 -93 -103 -129 -103 -187 c 256
 -103 -245 -2 -290 123 -290 c 256
168 -253 m 256
 60 -253 19 -214 19 -172 c 256
 19 -125 54 -105 114 -85 c 256
 121 -83 125 -81 132 -81 c 256
 135 -81 141 -82 145 -84 c 256
 169 -96 214 -127 245 -148 c 256
 260 -158 271 -175 271 -188 c 256
 270 -226 216 -253 168 -253 c 256
194 135 m 256
 182 135 165 147 165 186 c 256
 165 261 226 402 272 402 c 256
 288 402 301 387 299 351 c 256
 295 270 248 135 194 135 c 256
EndSplineSet
Fore
SplineSet
123 -290 m 256
 255 -290 391 -208 391 -128 c 256
 391 -100 371 -73 338 -51 c 256
 290 -19 230 14 191 41 c 256
 169 56 153 71 153 85 c 256
 153 89 157 96 163 99 c 256
 169 102 185 98 199 98 c 256
 327 98 417 207 417 315 c 256
 417 324 417 332 415 340 c 257
 412 350 419 351 425 351 c 256
 449 351 473 345 491 345 c 256
 508 345 520 365 520 388 c 256
 520 410 502 416 493 416 c 256
 466 416 437 400 400 400 c 256
 389 400 369 410 346 419 c 256
 324 428 298 437 274 437 c 256
 118 437 42 311 42 228 c 256
 42 173 89 133 124 117 c 256
 130 114 134 112 134 108 c 256
 134 105 129 100 120 95 c 256
 72 70 33 49 33 17 c 256
 33 -11 61 -40 88 -53 c 256
 94 -56 93 -60 86 -62 c 256
 -22 -90 -103 -129 -103 -187 c 256
 -103 -245 -2 -290 123 -290 c 256
168 -253 m 256
 60 -253 19 -214 19 -172 c 256
 19 -125 48 -104 109 -87 c 256
 116 -85 120 -83 127 -83 c 256
 130 -83 136 -84 140 -86 c 256
 165 -98 214 -127 245 -148 c 256
 260 -158 271 -175 271 -188 c 256
 270 -226 216 -253 168 -253 c 256
178 141 m 256
 167 142 159 153 159 183 c 256
 159 245 238 404 288 404 c 256
 302 404 313 390 313 364 c 256
 313 296 236 133 178 141 c 256
EndSplineSet
PickledDataWithLists: "(dp0
Vpublic.markColor
p1
V0.67,0.95,0.38,1
p2
s."
Layer: 6
SplineSet
102 -289 m 256
 241 -289 427 -263 427 -117 c 256
 427 -90 416 -60 340 -21 c 258
 190 56 l 258
 168 68 156 73 156 90 c 256
 156 97 158 99 164 103 c 256
 169 106 176 110 185 110 c 256
 195 110 227 98 250 98 c 256
 411 98 486 221 486 318 c 256
 486 327 485 335 483 343 c 256
 479 353 488 354 495 354 c 256
 499 354 501 354 503 354 c 256
 539 354 558 345 594 345 c 256
 600 345 606 366 606 402 c 256
 606 411 596 416 586 416 c 256
 544 416 504 403 462 400 c 257
 450 400 442 402 434 410 c 256
 409 427 375 437 341 437 c 256
 169 437 88 314 88 217 c 256
 88 176 113 146 131 134 c 256
 143 127 146 118 117 104 c 256
 65 79 27 65 27 34 c 256
 27 -3 64 -16 88 -32 c 256
 94 -36 92 -45 87 -47 c 256
 66 -56 52 -62 28 -73 c 256
 16 -79 -73 -124 -73 -169 c 256
 -73 -244 23 -289 102 -289 c 256
127 -236 m 256
 85 -237 11 -203 11 -160 c 256
 11 -121 54 -89 118 -67 c 256
 125 -65 129 -63 137 -63 c 256
 140 -63 146 -63 151 -66 c 256
 186 -86 264 -120 266 -164 c 256
 268 -201 219 -236 127 -236 c 256
247 135 m 256
 232 135 222 145 220 163 c 256
 213 252 280 402 330 402 c 256
 353 402 356 384 356 359 c 256
 356 267 302 135 247 135 c 256
EndSplineSet
PickledDataWithLists: "(dp0
Vpublic.markColor
p1
V0.67,0.95,0.38,1
p2
s."
Layer: 7
SplineSet
102 -289 m 256
 241 -289 427 -263 427 -117 c 256
 427 -90 416 -60 340 -21 c 258
 190 56 l 258
 168 68 156 73 156 90 c 256
 156 97 158 99 164 103 c 256
 169 106 176 110 185 110 c 256
 195 110 227 98 250 98 c 256
 411 98 486 221 486 318 c 256
 486 327 485 335 483 343 c 256
 479 353 488 354 495 354 c 256
 499 354 501 354 503 354 c 256
 539 354 558 345 594 345 c 256
 600 345 606 366 606 402 c 256
 606 411 596 416 586 416 c 256
 544 416 504 403 462 400 c 257
 450 400 442 402 434 410 c 256
 409 427 375 437 341 437 c 256
 169 437 88 314 88 217 c 256
 88 176 113 146 132 132 c 256
 140 126 121 116 107 109 c 257
 55 84 27 71 27 40 c 256
 27 3 64 -16 88 -32 c 256
 94 -36 92 -45 87 -47 c 256
 66 -56 52 -62 28 -73 c 256
 16 -79 -73 -124 -73 -169 c 256
 -73 -244 23 -289 102 -289 c 256
127 -236 m 256
 85 -237 11 -203 11 -160 c 256
 11 -121 54 -89 118 -67 c 256
 125 -65 129 -63 137 -63 c 256
 140 -63 146 -63 151 -66 c 256
 186 -86 264 -120 266 -164 c 256
 268 -201 219 -236 127 -236 c 256
247 135 m 256
 232 135 222 145 220 163 c 256
 213 252 280 402 330 402 c 256
 353 402 356 384 356 359 c 256
 356 267 302 135 247 135 c 256
EndSplineSet
Substitution2: "'ss01' Style Set 1 in Latin lookup 31 subtable" G.pc
Substitution2: "'pcap' Lowercase to Petite Capitals in Latin lookup 23 subtable" g.pc
Substitution2: "'smcp' Lowercase to Small Capitals in Latin lookup 21 subtable" g.sc
Substitution2: "'sups' Superscript in Latin lookup 10 subtable" g.sups
Substitution2: "'sinf' Scientific Inferiors in Latin lookup 9 subtable" g.sinf
Substitution2: "'subs' Subscript in Latin lookup 8 subtable" g.subs
Comment: "+AAoA-g+AAoA"
EndChar
StartChar: h
Encoding: 934 104 933
GlifName: h
Width: 579
VWidth: 0
Flags: W
AnchorPoint: "bottom" 207 -30 basechar 0
LayerCount: 2
Back
SplineSet
93 -14 m 256
 162 -14 301 98 301 147 c 256
 301 151 299 164 288 164 c 256
 286 164 285 162 284 161 c 256
 258 135 222 103 206 103 c 256
 198 103 194 108 194 116 c 256
 194 119 195 123 196 127 c 258
 374 638 l 258
 381 657 386 675 389 685 c 256
 391 691 386 706 378 706 c 256
 374 706 359 702 353 700 c 256
 318 688 241 678 186 664 c 256
 170 660 167 655 165 646 c 256
 163 636 164 631 186 628 c 256
 213 624 221 608 204 558 c 258
 39 67 l 258
 36 58 34 50 34 44 c 256
 34 19 59 -14 93 -14 c 256
EndSplineSet
Fore
SplineSet
108 -14 m 256
 128 -14 150 0 173 35 c 256
 260 165 357 358 396 358 c 256
 412 358 419 344 419 324 c 256
 419 241 379 47 348 47 c 256
 335 47 324 58 314 67 c 256
 303 77 299 86 284 86 c 256
 266 86 247 44 247 34 c 256
 247 17 284 -14 312 -14 c 256
 341 -14 454 59 472 83 c 256
 525 153 567 240 567 346 c 256
 567 396 538 437 481 437 c 256
 398 437 307 345 237 233 c 256
 232 225 223 225 226 235 c 258
 366 650 l 258
 371 664 376 676 376 693 c 256
 376 707 358 707 348 707 c 256
 325 707 206 673 173 662 c 256
 147 653 144 648 144 640 c 256
 144 632 154 628 164 624 c 256
 182 617 203 608 203 590 c 256
 203 572 199 555 193 535 c 258
 60 111 l 258
 51 83 46 61 46 39 c 256
 46 6 90 -14 108 -14 c 256
EndSplineSet
PickledDataWithLists: "(dp0
Vpublic.markColor
p1
V0.67,0.95,0.38,1
p2
s."
Substitution2: "'ss01' Style Set 1 in Latin lookup 31 subtable" H.pc
Substitution2: "'pcap' Lowercase to Petite Capitals in Latin lookup 23 subtable" h.pc
Substitution2: "'smcp' Lowercase to Small Capitals in Latin lookup 21 subtable" h.sc
Substitution2: "'sups' Superscript in Latin lookup 10 subtable" h.sups
Substitution2: "'sinf' Scientific Inferiors in Latin lookup 9 subtable" h.sinf
Substitution2: "'subs' Subscript in Latin lookup 8 subtable" h.subs
Comment: "+AAoA-h+AAoA"
EndChar
StartChar: i
Encoding: 963 105 962
GlifName: i
Width: 340
VWidth: 0
Flags: W
AnchorPoint: "bottom" 97 -30 basechar 0
AnchorPoint: "top" 249 437 basechar 0
LayerCount: 2
Back
SplineSet
88 -14 m 256
 157 -14 300 99 300 148 c 256
 300 156 294 164 286 164 c 256
 284 164 283 162 282 161 c 256
 256 135 225 105 203 105 c 256
 198 105 195 110 195 116 c 256
 195 121 197 129 199 136 c 258
 283 387 l 258
 292 413 250 447 218 434 c 256
 172 415 38 325 38 301 c 256
 38 292 46 282 56 282 c 256
 64 282 89 305 107 305 c 256
 112 305 116 302 114 296 c 256
 91 219 62 145 34 67 c 256
 31 58 29 50 29 44 c 256
 29 19 54 -14 88 -14 c 256
293 665 m 256
 242 665 203 621 203 573 c 256
 203 542 227 513 259 513 c 256
 307 513 347 554 347 600 c 256
 347 631 327 665 293 665 c 256
EndSplineSet
Fore
Refer: 733 305 N 1 0 0 1 0 0 2
Refer: 730 729 N 1 0 0 1 47 -3 2
PickledDataWithLists: "(dp0
Vpublic.markColor
p1
V0.67,0.95,0.38,1
p2
s."
Substitution2: "'ss01' Style Set 1 in Latin lookup 31 subtable" I.pc
Substitution2: "'pcap' Lowercase to Petite Capitals in Latin lookup 23 subtable" i.pc
Substitution2: "'smcp' Lowercase to Small Capitals in Latin lookup 21 subtable" i.sc
Substitution2: "'sups' Superscript in Latin lookup 10 subtable" i.sups
Substitution2: "'sinf' Scientific Inferiors in Latin lookup 9 subtable" i.sinf
Substitution2: "'subs' Subscript in Latin lookup 8 subtable" i.subs
Substitution2: "'locl' Localized Forms in Latin lookup 7 subtable" i.TRK
Substitution2: "'locl' Localized Forms in Latin lookup 6 subtable" i.TRK
Substitution2: "'locl' Localized Forms in Latin lookup 2 subtable" i.TRK
Substitution2: "'locl' Localized Forms in Latin lookup 1 subtable" i.TRK
Substitution2: "'locl' Localized Forms in Latin lookup 0 subtable" i.TRK
Comment: "+AAoA-i+AAoA"
EndChar
StartChar: k
Encoding: 1010 107 1009
GlifName: k
Width: 552
VWidth: 0
Flags: W
AnchorPoint: "bottom" 210 -30 basechar 0
LayerCount: 2
Back
SplineSet
315 -14 m 256
 391 -14 526 97 526 146 c 256
 526 154 520 162 512 162 c 256
 510 162 509 160 508 159 c 256
 482 133 421 92 408 92 c 256
 405 92 403 95 403 99 c 256
 403 102 403 107 405 111 c 258
 515 385 l 258
 525 411 483 445 451 434 c 256
 403 417 263 318 263 290 c 256
 263 279 270 270 290 281 c 256
 311 293 334 309 350 309 c 256
 353 309 355 307 354 304 c 256
 328 225 290 146 255 67 c 256
 251 58 250 50 250 44 c 256
 250 19 281 -14 315 -14 c 256
EndSplineSet
Fore
SplineSet
341 -14 m 256
 411 -14 518 84 518 148 c 256
 518 153 516 161 510 161 c 256
 505 161 503 157 497 149 c 256
 478 123 444 98 425 98 c 256
 412 98 404 113 399 123 c 258
 363 202 l 258
 359 211 359 219 366 221 c 256
 448 255 526 319 526 381 c 256
 526 418 499 437 457 437 c 256
 370 437 300 375 250 305 c 256
 245 298 234 298 238 308 c 258
 359 650 l 258
 364 664 369 676 369 693 c 256
 369 707 351 707 341 707 c 256
 318 707 206 673 173 662 c 256
 147 653 144 648 144 640 c 256
 144 632 154 628 164 624 c 256
 182 617 189 608 189 590 c 256
 189 569 182 549 175 529 c 258
 33 92 l 258
 29 81 25 67 25 53 c 256
 25 16 59 -5 82 -5 c 256
 115 -5 143 14 151 31 c 256
 170 75 186 123 205 167 c 256
 212 184 214 189 222 189 c 256
 229 189 235 183 241 166 c 258
 284 36 l 258
 295 2 315 -14 341 -14 c 256
251 213 m 256
 245 213 242 220 242 225 c 256
 242 249 322 355 367 355 c 256
 386 355 399 350 399 331 c 256
 399 291 318 213 251 213 c 256
EndSplineSet
PickledDataWithLists: "(dp0
Vcom.schriftgestaltung.Glyphs.glyph.leftMetricsKey
p1
Vh
p2
sVpublic.markColor
p3
V0.67,0.95,0.38,1
p4
s."
Substitution2: "'ss01' Style Set 1 in Latin lookup 31 subtable" K.pc
Substitution2: "'pcap' Lowercase to Petite Capitals in Latin lookup 23 subtable" k.pc
Substitution2: "'smcp' Lowercase to Small Capitals in Latin lookup 21 subtable" k.sc
Substitution2: "'sups' Superscript in Latin lookup 10 subtable" k.sups
Substitution2: "'sinf' Scientific Inferiors in Latin lookup 9 subtable" k.sinf
Substitution2: "'subs' Subscript in Latin lookup 8 subtable" k.subs
Comment: "+AAoA-k+AAoA"
EndChar
StartChar: l
Encoding: 1027 108 1026
GlifName: l
Width: 319
VWidth: 0
Flags: W
AnchorPoint: "bottom" 77 -30 basechar 0
LayerCount: 2
Back
SplineSet
153 655 m 256
 153 650 160 644 176 640 c 256
 209 631 212 627 198 588 c 256
 139 419 76 239 36 125 c 256
 16 67 9 40 9 31 c 256
 9 14 34 -16 68 -16 c 256
 127 -16 207 24 241 90 c 256
 244 96 250 117 250 124 c 256
 250 129 243 135 237 129 c 257
 214 108 153 38 132 38 c 256
 123 38 117 47 126 70 c 256
 146 126 274 488 343 670 c 256
 349 686 346 701 336 701 c 256
 331 701 319 697 306 694 c 256
 275 687 186 674 175 672 c 256
 163 670 153 660 153 655 c 256
EndSplineSet
Fore
SplineSet
73 -14 m 256
 142 -14 281 98 281 147 c 256
 281 151 279 164 268 164 c 256
 266 164 265 162 264 161 c 256
 238 135 202 103 186 103 c 256
 178 103 174 108 174 116 c 256
 174 119 175 123 176 127 c 258
 354 638 l 258
 361 657 366 675 369 685 c 256
 371 691 366 706 358 706 c 256
 354 706 339 702 333 700 c 256
 298 688 221 678 166 664 c 256
 150 660 147 655 145 646 c 256
 143 636 144 631 166 628 c 256
 193 624 201 608 184 558 c 258
 19 67 l 258
 16 58 14 50 14 44 c 256
 14 19 39 -14 73 -14 c 256
EndSplineSet
PickledDataWithLists: "(dp0
Vcom.schriftgestaltung.Glyphs.glyph.leftMetricsKey
p1
Vh
p2
sVcom.schriftgestaltung.Glyphs.glyph.rightMetricsKey
p3
Vi
p4
sVpublic.markColor
p5
V0.67,0.95,0.38,1
p6
s."
Substitution2: "'ss01' Style Set 1 in Latin lookup 31 subtable" L.pc
Substitution2: "'pcap' Lowercase to Petite Capitals in Latin lookup 23 subtable" l.pc
Substitution2: "'smcp' Lowercase to Small Capitals in Latin lookup 21 subtable" l.sc
Substitution2: "'sups' Superscript in Latin lookup 10 subtable" l.sups
Substitution2: "'sinf' Scientific Inferiors in Latin lookup 9 subtable" l.sinf
Substitution2: "'subs' Subscript in Latin lookup 8 subtable" l.subs
Comment: "+AAoA-l+AAoA"
EndChar
StartChar: m
Encoding: 1077 109 1076
GlifName: m
Width: 840
VWidth: 0
Flags: W
AnchorPoint: "bottom" 363 -30 basechar 0
AnchorPoint: "top" 529 440 basechar 0
LayerCount: 2
Back
SplineSet
-17 -3 m 256
 23 -3 61 2 96 2 c 256
 131 2 155 -3 195 -3 c 256
 203 -3 214 4 217 12 c 256
 221 22 215 29 205 33 c 257
 188 39 187 47 195 70 c 258
 266 266 l 258
 277 297 289 318 310 330 c 256
 327 340 345 345 359 345 c 256
 389 345 398 316 380 267 c 258
 305 63 l 258
 298 44 289 38 270 33 c 257
 258 29 248 23 244 12 c 256
 241 3 246 -3 254 -3 c 256
 294 -3 321 2 356 2 c 256
 391 2 416 -3 456 -3 c 256
 464 -3 476 3 479 12 c 256
 483 23 476 29 466 33 c 257
 449 39 443 43 453 70 c 258
 524 264 l 257
 534 292 546 315 565 329 c 256
 584 343 602 346 616 346 c 256
 646 346 656 316 638 267 c 258
 563 63 l 258
 556 44 547 38 528 33 c 257
 516 29 506 23 502 12 c 256
 499 3 504 -3 512 -3 c 256
 552 -3 579 2 614 2 c 256
 649 2 684 -3 724 -3 c 256
 732 -3 744 3 747 12 c 256
 751 23 744 29 734 33 c 257
 717 39 701 43 711 70 c 258
 792 292 l 258
 821 373 800 437 741 437 c 256
 679 437 612 407 553 357 c 257
 548 357 l 257
 548 401 523 437 483 437 c 256
 425 437 369 410 310 368 c 257
 308 368 l 257
 308 369 309 374 311 380 c 256
 317 399 332 428 337 439 c 256
 340 446 339 451 332 451 c 256
 328 451 323 448 316 445 c 256
 270 425 190 404 137 392 c 256
 128 390 124 385 120 374 c 256
 115 360 119 356 125 355 c 256
 145 352 144 329 135 303 c 258
 50 71 l 258
 40 44 22 39 -1 33 c 257
 -13 29 -27 23 -31 12 c 256
 -34 3 -25 -3 -17 -3 c 256
EndSplineSet
Fore
SplineSet
105 -14 m 256
 131 -14 153 8 175 48 c 256
 223 133 268 229 309 287 c 256
 347 341 375 370 390 370 c 256
 403 370 407 358 398 338 c 258
 287 74 l 258
 280 57 278 43 278 35 c 256
 277 14 313 -14 333 -14 c 256
 354 -14 401 11 421 42 c 256
 482 139 539 238 578 298 c 256
 607 342 628 369 645 369 c 256
 656 369 664 355 654 335 c 258
 514 33 l 258
 502 8 546 -14 565 -14 c 256
 645 -14 727 38 789 110 c 256
 800 122 805 135 806 150 c 256
 806 157 800 163 796 163 c 256
 791 163 781 153 773 145 c 256
 758 131 714 98 701 98 c 256
 691 98 689 106 698 127 c 258
 763 276 l 258
 796 351 801 437 716 437 c 256
 628 437 566 346 510 257 c 256
 504 248 489 249 495 259 c 258
 504 276 l 258
 544 346 534 437 449 437 c 256
 361 437 298 330 226 208 c 256
 221 199 210 200 214 210 c 258
 271 338 l 258
 293 386 272 437 222 437 c 256
 155 437 123 411 87 380 c 256
 71 367 42 330 43 315 c 256
 43 303 58 303 64 310 c 256
 97 342 131 346 143 346 c 256
 156 346 159 338 154 325 c 258
 45 69 l 258
 42 62 41 55 40 48 c 256
 39 8 84 -14 105 -14 c 256
EndSplineSet
PickledDataWithLists: "(dp0
Vcom.schriftgestaltung.Glyphs.glyph.leftMetricsKey
p1
Vn
p2
sVcom.schriftgestaltung.Glyphs.glyph.rightMetricsKey
p3
g2
sVpublic.markColor
p4
V0.67,0.95,0.38,1
p5
s."
Substitution2: "'ss01' Style Set 1 in Latin lookup 31 subtable" M.pc
Substitution2: "'pcap' Lowercase to Petite Capitals in Latin lookup 23 subtable" m.pc
Substitution2: "'smcp' Lowercase to Small Capitals in Latin lookup 21 subtable" m.sc
Substitution2: "'sups' Superscript in Latin lookup 10 subtable" m.sups
Substitution2: "'sinf' Scientific Inferiors in Latin lookup 9 subtable" m.sinf
Substitution2: "'subs' Subscript in Latin lookup 8 subtable" m.subs
Comment: "+AAoA-m+AAoA"
EndChar
StartChar: n
Encoding: 1092 110 1091
GlifName: n
Width: 614
VWidth: 0
Flags: W
AnchorPoint: "bottom" 243 -30 basechar 0
AnchorPoint: "top" 373 440 basechar 0
LayerCount: 2
Back
SplineSet
112 -14 m 256
 188 -14 323 97 323 146 c 256
 323 154 317 162 309 162 c 256
 307 162 306 160 305 159 c 256
 279 133 218 92 205 92 c 256
 202 92 200 95 200 99 c 256
 200 102 200 107 202 111 c 258
 312 385 l 258
 322 411 280 445 248 434 c 256
 200 417 60 318 60 290 c 256
 60 279 67 270 87 281 c 256
 108 293 131 309 147 309 c 256
 150 309 152 307 151 304 c 256
 125 225 87 146 52 67 c 256
 48 58 47 50 47 44 c 256
 47 19 78 -14 112 -14 c 256
EndSplineSet
Fore
SplineSet
128 -14 m 256
 154 -14 178 18 201 58 c 256
 232 112 298 223 320 255 c 256
 355 306 389 367 415 367 c 256
 429 367 430 357 423 338 c 256
 386 237 333 142 289 42 c 256
 278 17 312 -14 341 -14 c 256
 411 -14 504 38 564 110 c 256
 574 122 579 135 579 150 c 256
 579 157 573 163 569 163 c 256
 564 163 554 153 546 145 c 256
 532 131 489 98 476 98 c 256
 466 98 463 106 472 127 c 258
 544 295 l 258
 569 353 562 437 477 437 c 256
 389 437 324 338 257 217 c 256
 252 208 233 209 237 219 c 258
 287 342 l 258
 305 387 288 437 233 437 c 256
 166 437 120 411 85 380 c 256
 70 367 42 330 43 315 c 256
 44 303 59 303 65 310 c 256
 94 344 135 343 147 343 c 256
 160 343 164 335 159 322 c 258
 61 78 l 258
 40 26 104 -14 128 -14 c 256
EndSplineSet
PickledDataWithLists: "(dp0
Vpublic.markColor
p1
V0.67,0.95,0.38,1
p2
s."
Substitution2: "'ss01' Style Set 1 in Latin lookup 31 subtable" N.pc
Substitution2: "'pcap' Lowercase to Petite Capitals in Latin lookup 23 subtable" n.pc
Substitution2: "'smcp' Lowercase to Small Capitals in Latin lookup 21 subtable" n.sc
Substitution2: "'sups' Superscript in Latin lookup 10 subtable" n.sups
Substitution2: "'sinf' Scientific Inferiors in Latin lookup 9 subtable" n.sinf
Substitution2: "'subs' Subscript in Latin lookup 8 subtable" n.subs
Comment: "+AAoA-n+AAoA"
EndChar
StartChar: o
Encoding: 1128 111 1127
GlifName: o
Width: 475
VWidth: 0
Flags: W
AnchorPoint: "bottom" 170 -30 basechar 0
AnchorPoint: "top" 317 440 basechar 0
LayerCount: 2
Back
SplineSet
161 -14 m 256
 324 -14 447 95 494 226 c 256
 535 339 472 437 347 437 c 256
 213 437 68 328 21 197 c 256
 -23 74 39 -14 161 -14 c 256
197 33 m 256
 148 33 146 127 181 222 c 256
 197 266 219 318 247 351 c 256
 273 381 293 390 315 390 c 256
 368 390 367 293 334 202 c 256
 321 166 300 118 279 89 c 256
 252 51 224 33 197 33 c 256
EndSplineSet
Fore
SplineSet
165 -14 m 256
 356 -14 467 167 467 289 c 256
 467 384 403 437 310 437 c 256
 119 437 8 256 8 134 c 256
 8 44 83 -14 165 -14 c 256
185 27 m 256
 166 27 152 40 152 67 c 256
 152 187 239 399 292 399 c 256
 313 399 324 386 324 360 c 256
 324 239 247 27 185 27 c 256
EndSplineSet
PickledDataWithLists: "(dp0
Vpublic.markColor
p1
V0.67,0.95,0.38,1
p2
s."
Substitution2: "'ss01' Style Set 1 in Latin lookup 31 subtable" O.pc
Substitution2: "'pcap' Lowercase to Petite Capitals in Latin lookup 23 subtable" o.pc
Substitution2: "'smcp' Lowercase to Small Capitals in Latin lookup 21 subtable" o.sc
Substitution2: "Single Substitution lookup 14 subtable" ordmasculine
Substitution2: "'sups' Superscript in Latin lookup 10 subtable" o.sups
Substitution2: "'sinf' Scientific Inferiors in Latin lookup 9 subtable" o.sinf
Substitution2: "'subs' Subscript in Latin lookup 8 subtable" o.subs
Comment: "+AAoA-o+AAoA"
EndChar
StartChar: p
Encoding: 1187 112 1186
GlifName: p
Width: 548
VWidth: 0
Flags: W
AnchorPoint: "top" 399 440 basechar 0
LayerCount: 2
Back
SplineSet
-99 -285 m 256
 -62 -285 -7 -281 26 -281 c 256
 57 -281 127 -284 162 -284 c 256
 172 -284 182 -279 182 -272 c 256
 182 -258 173 -253 165 -251 c 256
 115 -236 103 -219 111 -194 c 258
 163 -6 l 258
 170 19 177 20 196 6 c 256
 207 -2 227 -14 253 -14 c 256
 406 -14 543 154 543 299 c 256
 543 379 481 437 374 437 c 256
 354 437 336 433 319 429 c 256
 314 428 313 438 316 451 c 258
 325 486 l 258
 335 525 325 540 297 540 c 256
 253 540 211 510 189 446 c 256
 179 417 171 408 162 404 c 256
 113 382 81 369 60 360 c 256
 47 355 32 346 32 331 c 256
 32 315 47 316 58 320 c 256
 89 331 107 337 140 346 c 256
 163 352 152 328 147 311 c 258
 -18 -204 l 258
 -29 -237 -44 -243 -88 -255 c 256
 -99 -258 -107 -263 -108 -273 c 256
 -109 -280 -105 -285 -99 -285 c 256
249 25 m 256
 226 25 222 38 214 57 c 256
 207 73 206 92 212 111 c 258
 289 353 l 258
 294 370 303 380 323 380 c 256
 384 380 403 336 403 281 c 256
 403 142 296 25 249 25 c 256
EndSplineSet
Fore
SplineSet
-99 -285 m 256
 -62 -285 -7 -281 26 -281 c 256
 57 -281 127 -284 162 -284 c 256
 172 -284 182 -279 182 -272 c 256
 182 -258 173 -253 165 -251 c 256
 115 -236 103 -219 111 -194 c 258
 163 -6 l 258
 170 19 177 20 196 6 c 256
 207 -2 227 -14 253 -14 c 256
 406 -14 543 154 543 299 c 256
 543 379 481 437 374 437 c 256
 354 437 336 433 319 429 c 256
 314 428 313 438 316 451 c 258
 325 486 l 258
 335 525 325 540 297 540 c 256
 253 540 211 510 189 446 c 256
 179 417 171 408 162 404 c 256
 113 382 93 371 72 363 c 256
 59 358 44 349 44 334 c 256
 44 318 59 319 70 323 c 256
 101 334 115 339 140 346 c 256
 163 352 152 328 147 311 c 258
 -18 -204 l 258
 -29 -237 -44 -243 -88 -255 c 256
 -99 -258 -107 -263 -108 -273 c 256
 -109 -280 -105 -285 -99 -285 c 256
249 25 m 256
 226 25 222 38 214 57 c 256
 207 73 206 92 212 111 c 258
 297 379 l 257
 305 380 313 381 321 381 c 256
 370 381 403 351 403 281 c 256
 403 142 296 25 249 25 c 256
EndSplineSet
PickledDataWithLists: "(dp0
Vpublic.markColor
p1
V0.67,0.95,0.38,1
p2
s."
Substitution2: "'ss01' Style Set 1 in Latin lookup 31 subtable" P.pc
Substitution2: "'pcap' Lowercase to Petite Capitals in Latin lookup 23 subtable" p.pc
Substitution2: "'smcp' Lowercase to Small Capitals in Latin lookup 21 subtable" p.sc
Substitution2: "'sups' Superscript in Latin lookup 10 subtable" p.sups
Substitution2: "'sinf' Scientific Inferiors in Latin lookup 9 subtable" p.sinf
Substitution2: "'subs' Subscript in Latin lookup 8 subtable" p.subs
Comment: "+AAoA-p+AAoA"
EndChar
StartChar: q
Encoding: 1251 113 1250
GlifName: q
Width: 558
VWidth: 0
Flags: W
LayerCount: 2
Back
SplineSet
108 -288 m 256
 166 -282 263 -277 373 -277 c 256
 385 -277 395 -272 395 -265 c 256
 395 -256 386 -250 361 -246 c 256
 336 -242 318 -227 328 -198 c 258
 514 355 l 258
 541 438 529 469 507 469 c 256
 486 469 462 458 438 424 c 258
 430 412 l 258
 420 398 411 395 402 395 c 256
 395 395 385 402 375 416 c 256
 363 433 338 444 318 444 c 256
 256 444 184 403 126 344 c 256
 51 267 -7 176 -7 89 c 256
 -7 29 32 -14 83 -14 c 256
 149 -14 220 31 308 148 c 256
 314 156 318 156 314 146 c 256
 270 27 221 -119 189 -205 c 256
 177 -238 163 -244 119 -256 c 256
 108 -259 100 -264 99 -274 c 256
 98 -281 102 -289 108 -288 c 256
163 68 m 256
 146 68 140 80 140 96 c 256
 140 171 255 393 321 393 c 256
 345 393 367 357 367 336 c 256
 367 309 335 267 299 212 c 256
 252 140 198 68 163 68 c 256
EndSplineSet
Fore
SplineSet
108 -288 m 256
 166 -282 263 -277 373 -277 c 256
 385 -277 395 -272 395 -265 c 256
 395 -256 386 -250 361 -246 c 256
 336 -242 318 -227 328 -198 c 258
 514 355 l 258
 541 438 529 469 507 469 c 256
 486 469 462 458 438 424 c 258
 430 412 l 258
 424 404 418 399 412 399 c 256
 405 398 398 404 389 416 c 256
 377 433 352 444 332 444 c 256
 270 444 198 403 140 344 c 256
 65 267 7 176 7 89 c 256
 7 29 46 -14 97 -14 c 256
 163 -14 211 20 299 137 c 256
 305 145 314 145 310 135 c 256
 266 17 221 -119 189 -205 c 256
 177 -238 163 -244 119 -256 c 256
 108 -259 100 -264 99 -274 c 256
 98 -281 102 -289 108 -288 c 256
177 68 m 256
 160 68 154 80 154 96 c 256
 154 171 269 393 335 393 c 256
 359 393 381 357 381 336 c 256
 381 309 349 267 313 212 c 256
 266 140 212 68 177 68 c 256
EndSplineSet
PickledDataWithLists: "(dp0
Vpublic.markColor
p1
V0.67,0.95,0.38,1
p2
s."
Substitution2: "'ss01' Style Set 1 in Latin lookup 31 subtable" Q.pc
Substitution2: "'pcap' Lowercase to Petite Capitals in Latin lookup 23 subtable" q.pc
Substitution2: "'smcp' Lowercase to Small Capitals in Latin lookup 21 subtable" q.sc
Substitution2: "'sups' Superscript in Latin lookup 10 subtable" q.sups
Substitution2: "'sinf' Scientific Inferiors in Latin lookup 9 subtable" q.sinf
Substitution2: "'subs' Subscript in Latin lookup 8 subtable" q.subs
Comment: "+AAoA-q+AAoA"
EndChar
StartChar: r
Encoding: 1287 114 1286
GlifName: r
Width: 474
VWidth: 0
Flags: W
AnchorPoint: "bottom" 156 -30 basechar 0
AnchorPoint: "top" 322 440 basechar 0
LayerCount: 2
Back
SplineSet
113 -14 m 256
 139 -14 163 18 186 58 c 256
 217 112 283 223 305 255 c 256
 340 306 374 367 400 367 c 256
 414 367 415 357 408 338 c 256
 371 237 318 142 274 42 c 256
 263 17 297 -14 326 -14 c 256
 396 -14 489 38 549 110 c 256
 559 122 564 135 564 150 c 256
 564 157 558 163 554 163 c 256
 549 163 539 153 531 145 c 256
 517 131 474 98 461 98 c 256
 451 98 448 106 457 127 c 258
 529 295 l 258
 554 353 547 437 462 437 c 256
 374 437 309 338 242 217 c 256
 237 208 218 209 222 219 c 258
 272 342 l 258
 290 387 273 437 218 437 c 256
 151 437 105 411 70 380 c 256
 55 367 27 330 28 315 c 256
 29 303 44 303 50 310 c 256
 79 344 120 343 132 343 c 256
 145 343 149 335 144 322 c 258
 46 78 l 258
 25 26 89 -14 113 -14 c 256
EndSplineSet
Fore
SplineSet
101 -14 m 256
 127 -14 161 20 184 60 c 256
 215 114 277 224 295 257 c 256
 325 311 347 348 373 348 c 256
 390 348 397 325 402 301 c 256
 408 271 416 258 432 258 c 256
 464 258 512 313 512 370 c 256
 512 408 487 437 443 437 c 256
 364 437 304 352 237 231 c 256
 232 222 221 223 225 233 c 258
 262 319 l 258
 291 386 276 437 221 437 c 256
 188 437 149 425 117 407 c 256
 76 384 44 351 47 320 c 256
 48 308 62 309 69 315 c 256
 90 332 102 346 131 346 c 256
 144 346 148 338 143 325 c 258
 40 59 l 258
 37 51 36 44 36 36 c 256
 36 6 81 -14 101 -14 c 256
EndSplineSet
PickledDataWithLists: "(dp0
Vcom.schriftgestaltung.Glyphs.glyph.leftMetricsKey
p1
Vn
p2
sVpublic.markColor
p3
V0.67,0.95,0.38,1
p4
s."
Substitution2: "'ss01' Style Set 1 in Latin lookup 31 subtable" R.pc
Substitution2: "'pcap' Lowercase to Petite Capitals in Latin lookup 23 subtable" r.pc
Substitution2: "'smcp' Lowercase to Small Capitals in Latin lookup 21 subtable" r.sc
Substitution2: "'sups' Superscript in Latin lookup 10 subtable" r.sups
Substitution2: "'sinf' Scientific Inferiors in Latin lookup 9 subtable" r.sinf
Substitution2: "'subs' Subscript in Latin lookup 8 subtable" r.subs
Comment: "+AAoA-r+AAoA"
EndChar
StartChar: s
Encoding: 1307 115 1306
GlifName: s
Width: 326
VWidth: 0
Flags: W
AnchorPoint: "bottom" 97 -30 basechar 0
AnchorPoint: "top" 238 440 basechar 0
LayerCount: 2
Back
SplineSet
79 -14 m 256
 181 -14 279 86 279 137 c 256
 279 171 254 210 217 256 c 256
 190 288 163 323 163 339 c 256
 163 351 172 366 190 366 c 256
 208 366 230 350 243 330 c 256
 253 315 269 298 286 298 c 256
 311 298 350 344 350 369 c 256
 350 395 292 437 237 437 c 256
 185 437 64 341 64 273 c 256
 64 235 90 191 115 156 c 256
 137 126 165 87 164 69 c 256
 163 49 157 39 138 39 c 256
 113 39 83 70 63 90 c 256
 46 108 31 125 21 125 c 256
 -8 125 -24 95 -24 61 c 256
 -24 16 16 -14 79 -14 c 256
EndSplineSet
Fore
SplineSet
79 -14 m 256
 181 -14 280 93 280 144 c 256
 280 177 264 204 220 259 c 256
 194 292 163 323 163 339 c 256
 163 351 172 366 190 366 c 256
 208 366 230 350 243 330 c 256
 253 315 269 298 286 298 c 256
 311 298 350 344 350 369 c 256
 350 395 292 437 237 437 c 256
 185 437 64 341 64 273 c 256
 64 232 87 189 112 154 c 256
 134 124 162 87 161 69 c 256
 160 49 154 39 135 39 c 256
 110 39 83 70 63 90 c 256
 46 108 31 125 21 125 c 256
 -8 125 -24 95 -24 61 c 256
 -24 16 16 -14 79 -14 c 256
EndSplineSet
PickledDataWithLists: "(dp0
Vpublic.markColor
p1
V0.67,0.95,0.38,1
p2
s."
Substitution2: "'ss07' Style Set 7 in Latin lookup 38 subtable" longs
Substitution2: "'ss01' Style Set 1 in Latin lookup 31 subtable" S.pc
Substitution2: "'hist' Historical Forms in Latin lookup 27 subtable" longs
Substitution2: "'pcap' Lowercase to Petite Capitals in Latin lookup 23 subtable" s.pc
Substitution2: "'smcp' Lowercase to Small Capitals in Latin lookup 21 subtable" s.sc
Substitution2: "'sups' Superscript in Latin lookup 10 subtable" s.sups
Substitution2: "'sinf' Scientific Inferiors in Latin lookup 9 subtable" s.sinf
Substitution2: "'subs' Subscript in Latin lookup 8 subtable" s.subs
Comment: "+AAoA-s+AAoA"
EndChar
StartChar: t
Encoding: 1378 116 1377
GlifName: t
Width: 380
VWidth: 0
Flags: W
AnchorPoint: "bottom" 137 -30 basechar 0
AnchorPoint: "top" 290 534 basechar 0
LayerCount: 2
Back
SplineSet
144 -14 m 256
 224 -14 318 41 323 53 c 256
 328 65 327 75 320 75 c 256
 317 75 314 74 312 73 c 256
 296 65 278 57 241 57 c 256
 202 57 188 86 211 149 c 258
 279 336 l 258
 285 353 299 361 328 361 c 258
 420 361 l 258
 427 361 442 383 448 404 c 256
 450 411 450 423 447 423 c 258
 327 423 l 258
 311 423 301 428 310 445 c 258
 336 496 l 258
 345 514 341 518 328 518 c 256
 317 518 309 512 296 504 c 256
 250 476 157 426 103 408 c 256
 97 406 95 402 94 399 c 256
 90 386 89 364 98 364 c 258
 113 364 l 258
 134 364 141 358 137 346 c 258
 54 116 l 258
 24 33 51 -14 144 -14 c 256
EndSplineSet
Fore
SplineSet
100 -14 m 256
 193 -14 338 122 338 171 c 256
 338 179 332 187 324 187 c 256
 322 187 321 185 320 184 c 256
 294 158 238 107 215 107 c 256
 206 107 193 108 210 155 c 258
 281 353 l 258
 287 369 299 373 325 374 c 256
 349 375 364 377 379 379 c 256
 401 382 408 395 408 399 c 256
 408 409 407 417 375 421 c 256
 350 424 331 426 315 426 c 256
 300 426 294 429 300 451 c 258
 323 530 l 258
 329 552 323 579 299 579 c 256
 273 579 234 545 217 512 c 258
 188 455 l 258
 176 432 174 428 153 428 c 258
 102 428 l 258
 75 428 51 396 51 392 c 256
 51 384 53 372 77 371 c 258
 127 369 l 258
 137 369 147 363 138 338 c 258
 44 89 l 258
 35 65 34 57 34 51 c 256
 34 26 66 -14 100 -14 c 256
EndSplineSet
PickledDataWithLists: "(dp0
Vpublic.markColor
p1
V0.67,0.95,0.38,1
p2
s."
Substitution2: "'ss01' Style Set 1 in Latin lookup 31 subtable" T.pc
Substitution2: "'pcap' Lowercase to Petite Capitals in Latin lookup 23 subtable" t.pc
Substitution2: "'smcp' Lowercase to Small Capitals in Latin lookup 21 subtable" t.sc
Substitution2: "'sups' Superscript in Latin lookup 10 subtable" t.sups
Substitution2: "'sinf' Scientific Inferiors in Latin lookup 9 subtable" t.sinf
Substitution2: "'subs' Subscript in Latin lookup 8 subtable" t.subs
Comment: "+AAoA-t+AAoA"
EndChar
StartChar: u
Encoding: 1436 117 1435
GlifName: u
Width: 615
VWidth: 0
Flags: W
AnchorPoint: "bottom" 233 -30 basechar 0
AnchorPoint: "top" 395 440 basechar 0
LayerCount: 2
Back
SplineSet
108 -14 m 256
 208 -14 293 110 357 206 c 256
 363 215 373 214 369 204 c 256
 344 142 324 98 310 67 c 256
 306 58 303 50 303 44 c 256
 303 21 327 -14 354 -14 c 256
 423 -14 579 104 579 153 c 256
 579 161 573 169 565 169 c 256
 563 169 562 167 561 166 c 256
 535 140 469 94 456 94 c 256
 449 94 450 105 453 113 c 258
 546 364 l 258
 557 395 524 437 480 437 c 256
 454 437 437 406 412 366 c 256
 387 327 359 280 330 240 c 256
 279 169 228 92 208 92 c 256
 194 92 192 106 201 125 c 256
 249 227 287 305 308 353 c 256
 322 384 285 437 253 437 c 256
 183 437 113 385 53 313 c 256
 43 301 34 288 34 273 c 256
 34 260 47 258 67 278 c 256
 81 292 133 328 146 328 c 256
 156 328 159 319 150 299 c 258
 73 127 l 258
 33 38 58 -14 108 -14 c 256
EndSplineSet
Fore
SplineSet
124 -14 m 256
 201 -14 293 110 357 206 c 256
 363 215 373 214 369 204 c 256
 344 142 324 98 310 67 c 256
 306 58 303 50 303 44 c 256
 303 21 327 -14 354 -14 c 256
 423 -14 579 104 579 153 c 256
 579 161 573 169 565 169 c 256
 563 169 562 167 561 166 c 256
 535 140 469 94 456 94 c 256
 449 94 450 105 453 113 c 258
 546 364 l 258
 557 395 524 437 480 437 c 256
 454 437 437 406 412 366 c 256
 387 327 359 280 330 240 c 256
 279 169 228 92 208 92 c 256
 194 92 192 106 201 125 c 256
 249 227 287 305 308 353 c 256
 322 384 285 437 253 437 c 256
 183 437 113 385 53 313 c 256
 43 301 34 288 34 273 c 256
 34 260 47 258 67 278 c 256
 81 292 133 328 146 328 c 256
 156 328 159 319 150 299 c 258
 59 96 l 258
 40 54 79 -14 124 -14 c 256
EndSplineSet
PickledDataWithLists: "(dp0
Vcom.schriftgestaltung.Glyphs.glyph.leftMetricsKey
p1
Vi
p2
sVcom.schriftgestaltung.Glyphs.glyph.rightMetricsKey
p3
g2
sVpublic.markColor
p4
V0.67,0.95,0.38,1
p5
s."
Substitution2: "'ss01' Style Set 1 in Latin lookup 31 subtable" U.pc
Substitution2: "'pcap' Lowercase to Petite Capitals in Latin lookup 23 subtable" u.pc
Substitution2: "'smcp' Lowercase to Small Capitals in Latin lookup 21 subtable" u.sc
Substitution2: "'sups' Superscript in Latin lookup 10 subtable" u.sups
Substitution2: "'sinf' Scientific Inferiors in Latin lookup 9 subtable" u.sinf
Substitution2: "'subs' Subscript in Latin lookup 8 subtable" u.subs
Comment: "+AAoA-u+AAoA"
EndChar
StartChar: v
Encoding: 2971 118 2970
GlifName: v
Width: 492
VWidth: 0
Flags: W
AnchorPoint: "bottom" 197 -30 basechar 0
AnchorPoint: "top" 325 440 basechar 0
LayerCount: 2
Back
SplineSet
163 -14 m 256
 228 -14 298 32 357 93 c 256
 428 167 487 269 487 351 c 256
 487 411 466 437 444 437 c 256
 413 437 344 396 344 379 c 256
 344 364 352 355 366 342 c 256
 386 323 399 302 399 266 c 256
 399 189 316 74 258 74 c 256
 216 74 205 93 219 139 c 258
 296 385 l 258
 301 401 275 437 248 437 c 256
 200 437 96 365 59 320 c 256
 45 303 36 290 36 283 c 256
 36 274 41 270 51 270 c 256
 55 270 64 277 73 285 c 256
 82 293 111 310 126 310 c 256
 129 310 141 308 134 289 c 258
 73 121 l 258
 42 37 81 -14 163 -14 c 256
EndSplineSet
Fore
SplineSet
163 -14 m 256
 228 -14 293 37 352 98 c 256
 423 172 487 269 487 351 c 256
 487 411 466 437 444 437 c 256
 413 437 344 396 344 379 c 256
 344 364 352 355 366 342 c 256
 386 323 399 302 399 266 c 256
 399 192 299 74 250 74 c 256
 213 74 205 93 219 139 c 258
 296 385 l 258
 301 401 275 437 248 437 c 256
 200 437 96 365 59 320 c 256
 45 303 36 290 36 283 c 256
 36 274 41 270 51 270 c 256
 55 270 64 277 73 285 c 256
 82 293 111 310 126 310 c 256
 129 310 141 308 134 289 c 258
 73 121 l 258
 42 37 81 -14 163 -14 c 256
EndSplineSet
PickledDataWithLists: "(dp0
Vcom.schriftgestaltung.Glyphs.glyph.leftMetricsKey
p1
Vi
p2
sVpublic.markColor
p3
V0.67,0.95,0.38,1
p4
s."
Substitution2: "'ss01' Style Set 1 in Latin lookup 31 subtable" V.pc
Substitution2: "'init' Initial Forms in Latin lookup 25 subtable" v.init
Substitution2: "'pcap' Lowercase to Petite Capitals in Latin lookup 23 subtable" v.pc
Substitution2: "'smcp' Lowercase to Small Capitals in Latin lookup 21 subtable" v.sc
Substitution2: "'sups' Superscript in Latin lookup 10 subtable" v.sups
Substitution2: "'sinf' Scientific Inferiors in Latin lookup 9 subtable" v.sinf
Substitution2: "'subs' Subscript in Latin lookup 8 subtable" v.subs
Comment: "+AAoA-v+AAoA"
EndChar
StartChar: w
Encoding: 2986 119 2985
GlifName: w
Width: 710
VWidth: 0
Flags: W
AnchorPoint: "bottom" 272 -30 basechar 0
AnchorPoint: "top" 455 440 basechar 0
LayerCount: 2
Back
SplineSet
100 -14 m 256
 176 -14 311 97 311 146 c 256
 311 154 305 162 297 162 c 256
 295 162 294 160 293 159 c 256
 267 133 206 92 193 92 c 256
 190 92 188 95 188 99 c 256
 188 102 188 107 190 111 c 258
 300 385 l 258
 310 411 268 445 236 434 c 256
 188 417 48 318 48 290 c 256
 48 279 55 270 75 281 c 256
 96 293 119 309 135 309 c 256
 138 309 140 307 139 304 c 256
 113 225 75 146 40 67 c 256
 36 58 35 50 35 44 c 256
 35 19 66 -14 100 -14 c 256
EndSplineSet
Fore
SplineSet
141 -14 m 256
 221 -14 280 27 324 95 c 257
 320 136 l 257
 291 52 320 -14 396 -14 c 256
 455 -14 520 32 574 93 c 256
 642 170 704 269 704 351 c 256
 704 411 681 437 659 437 c 256
 627 437 565 393 565 378 c 256
 565 371 576 356 588 332 c 256
 599 310 605 294 605 266 c 256
 605 179 535 74 475 74 c 256
 443 74 428 97 427 127 c 256
 426 150 434 178 448 203 c 256
 467 237 495 277 507 319 c 256
 528 393 506 413 478 413 c 256
 437 413 423 402 402 382 c 256
 385 366 373 341 372 331 c 256
 360 277 364 255 352 222 c 256
 321 137 269 74 237 74 c 256
 209 74 185 93 203 139 c 258
 274 323 l 258
 308 412 286 437 246 437 c 256
 198 437 103 368 61 328 c 256
 45 312 38 298 38 291 c 256
 38 282 42 276 52 276 c 256
 56 276 66 283 76 289 c 256
 94 300 120 310 128 310 c 256
 131 310 139 308 132 289 c 258
 77 150 l 258
 36 45 82 -14 141 -14 c 256
EndSplineSet
PickledDataWithLists: "(dp0
Vcom.schriftgestaltung.Glyphs.glyph.leftMetricsKey
p1
Vv
p2
sVcom.schriftgestaltung.Glyphs.glyph.rightMetricsKey
p3
g2
sVpublic.markColor
p4
V0.67,0.95,0.38,1
p5
s."
Substitution2: "'ss01' Style Set 1 in Latin lookup 31 subtable" W.pc
Substitution2: "'init' Initial Forms in Latin lookup 25 subtable" w.init
Substitution2: "'pcap' Lowercase to Petite Capitals in Latin lookup 23 subtable" w.pc
Substitution2: "'smcp' Lowercase to Small Capitals in Latin lookup 21 subtable" w.sc
Substitution2: "'sups' Superscript in Latin lookup 10 subtable" w.sups
Substitution2: "'sinf' Scientific Inferiors in Latin lookup 9 subtable" w.sinf
Substitution2: "'subs' Subscript in Latin lookup 8 subtable" w.subs
Comment: "+AAoA-w+AAoA"
EndChar
StartChar: x
Encoding: 3005 120 3004
GlifName: x
Width: 510
VWidth: 0
Flags: W
AnchorPoint: "top" 347 440 basechar 0
LayerCount: 2
Back
SplineSet
328 14 m 256
 389 59 429 229 401 269 c 256
 396 276 385 279 380 274 c 256
 378 272 379 270 378 269 c 256
 352 243 350 162 339 155 c 256
 336 153 334 155 331 158 c 256
 329 160 326 164 325 168 c 258
 248 454 l 258
 241 480 186 482 167 454 c 256
 139 412 87 248 104 226 c 256
 111 217 121 214 131 235 c 256
 141 256 147 287 162 294 c 256
 164 295 167 295 168 292 c 256
 194 213 215 128 232 43 c 256
 234 33 238 26 241 22 c 256
 256 2 301 -6 328 14 c 256
EndSplineSet
Fore
SplineSet
36 -14 m 256
 70 -14 116 16 151 65 c 256
 168 89 183 117 201 141 c 256
 207 149 210 145 212 138 c 256
 218 113 225 74 231 49 c 256
 237 22 266 -14 303 -14 c 256
 376 -14 441 81 441 122 c 256
 441 130 437 135 432 135 c 256
 428 135 422 131 420 128 c 256
 395 90 373 77 364 77 c 256
 354 77 348 81 342 104 c 258
 316 202 l 258
 311 219 316 228 323 240 c 256
 341 270 360 298 379 317 c 256
 406 344 420 345 430 345 c 256
 445 345 450 337 455 328 c 256
 461 319 465 312 482 312 c 256
 500 312 534 343 534 381 c 256
 534 402 507 437 471 437 c 256
 441 437 409 418 366 358 c 258
 309 279 l 258
 302 269 298 272 296 278 c 258
 267 367 l 258
 254 407 237 437 201 437 c 256
 121 437 56 351 56 299 c 256
 56 291 62 288 67 288 c 256
 71 288 75 290 78 293 c 256
 103 322 127 342 143 342 c 256
 149 342 154 336 157 325 c 258
 195 199 l 258
 199 186 197 181 190 170 c 256
 178 152 144 118 131 102 c 256
 115 84 100 77 87 77 c 256
 72 77 63 83 57 89 c 256
 51 97 42 105 35 105 c 256
 11 105 -15 68 -15 36 c 256
 -15 10 0 -14 36 -14 c 256
EndSplineSet
PickledDataWithLists: "(dp0
Vpublic.markColor
p1
V0.67,0.95,0.38,1
p2
s."
Substitution2: "'ss01' Style Set 1 in Latin lookup 31 subtable" X.pc
Substitution2: "'pcap' Lowercase to Petite Capitals in Latin lookup 23 subtable" x.pc
Substitution2: "'smcp' Lowercase to Small Capitals in Latin lookup 21 subtable" x.sc
Substitution2: "'sups' Superscript in Latin lookup 10 subtable" x.sups
Substitution2: "'sinf' Scientific Inferiors in Latin lookup 9 subtable" x.sinf
Substitution2: "'subs' Subscript in Latin lookup 8 subtable" x.subs
Comment: "+AAoA-x+AAoA"
EndChar
StartChar: y
Encoding: 3013 121 3012
GlifName: y
Width: 499
VWidth: 0
Flags: W
AnchorPoint: "top" 296 440 basechar 0
LayerCount: 2
Back
SplineSet
-46 -288 m 256
 18 -288 118 -217 199 -130 c 256
 371 53 487 250 487 374 c 256
 487 413 435 444 416 444 c 256
 404 444 379 429 379 417 c 256
 379 273 368 189 325 98 c 256
 316 81 309 77 310 101 c 256
 316 234 299 307 281 365 c 256
 264 416 235 444 194 444 c 256
 136 444 60 367 60 294 c 256
 60 276 68 261 72 261 c 256
 79 261 85 281 88 287 c 256
 95 308 117 344 134 344 c 256
 153 344 181 285 181 151 c 256
 181 -33 117 -190 49 -190 c 256
 -1 -190 -27 -141 -56 -141 c 256
 -86 -141 -126 -186 -126 -220 c 256
 -126 -265 -86 -288 -46 -288 c 256
EndSplineSet
Fore
SplineSet
-46 -289 m 256
 18 -289 118 -217 199 -130 c 256
 371 53 487 250 487 374 c 256
 487 413 435 444 416 444 c 256
 404 444 379 429 379 417 c 256
 382 273 372 170 325 81 c 256
 316 64 309 60 310 84 c 256
 316 217 299 307 281 365 c 256
 264 416 243 444 202 444 c 256
 141 444 53 359 53 283 c 256
 53 265 58 255 62 255 c 256
 70 255 78 270 81 276 c 256
 91 296 117 344 134 344 c 256
 153 344 187 285 187 115 c 256
 187 36 175 -38 151 -93 c 256
 126 -152 87 -191 49 -191 c 256
 24 -191 5 -178 -12 -166 c 256
 -28 -154 -47 -142 -61 -142 c 256
 -95 -142 -126 -184 -126 -221 c 256
 -126 -266 -86 -289 -46 -289 c 256
EndSplineSet
PickledDataWithLists: "(dp0
Vpublic.markColor
p1
V0.67,0.95,0.38,1
p2
s."
Substitution2: "'ss01' Style Set 1 in Latin lookup 31 subtable" Y.pc
Substitution2: "'pcap' Lowercase to Petite Capitals in Latin lookup 23 subtable" y.pc
Substitution2: "'smcp' Lowercase to Small Capitals in Latin lookup 21 subtable" y.sc
Substitution2: "'sups' Superscript in Latin lookup 10 subtable" y.sups
Substitution2: "'sinf' Scientific Inferiors in Latin lookup 9 subtable" y.sinf
Substitution2: "'subs' Subscript in Latin lookup 8 subtable" y.subs
Comment: "+AAoA-y+AAoA"
EndChar
StartChar: z
Encoding: 3030 122 3029
GlifName: z
Width: 485
VWidth: 0
Flags: W
AnchorPoint: "bottom" 180 -30 basechar 0
AnchorPoint: "top" 303 440 basechar 0
LayerCount: 2
Back
SplineSet
273 -33 m 256
 319 -33 441 63 441 116 c 256
 441 156 416 173 397 173 c 256
 383 173 384 150 384 123 c 256
 384 89 367 61 348 61 c 256
 321 61 297 81 266 103 c 256
 231 127 216 141 182 141 c 256
 163 141 147 133 128 117 c 257
 156 106 l 257
 450 374 l 258
 468 390 489 412 489 422 c 256
 489 429 477 438 469 438 c 256
 458 438 444 427 436 420 c 256
 419 405 411 400 390 400 c 256
 362 400 334 408 307 417 c 256
 275 426 256 437 225 437 c 256
 198 437 139 400 110 377 c 256
 70 346 45 321 45 272 c 256
 45 242 64 227 73 227 c 256
 82 227 112 237 123 247 c 256
 130 253 130 257 123 267 c 256
 116 277 111 291 111 310 c 256
 111 332 118 358 137 358 c 256
 158 358 178 337 199 326 c 256
 231 309 255 287 288 287 c 256
 311 287 339 293 360 312 c 257
 321 316 l 257
 25 66 l 258
 4 49 -2 26 -1 12 c 256
 0 -1 14 -20 18 -20 c 256
 24 -20 34 -19 34 -5 c 256
 34 26 59 54 93 54 c 256
 116 54 140 32 169 11 c 256
 197 -11 231 -33 273 -33 c 256
EndSplineSet
Fore
SplineSet
273 -33 m 256
 319 -33 441 63 441 116 c 256
 441 156 416 173 397 173 c 256
 383 173 384 150 384 123 c 256
 384 89 370 60 351 60 c 256
 324 60 298 83 271 106 c 256
 245 129 217 151 185 151 c 256
 166 151 147 133 128 117 c 257
 156 106 l 257
 450 374 l 258
 468 390 489 412 489 422 c 256
 489 429 477 438 469 438 c 256
 458 438 444 427 436 420 c 256
 419 405 411 400 390 400 c 256
 362 400 334 408 307 417 c 256
 275 426 256 437 225 437 c 256
 198 437 139 400 110 377 c 256
 70 346 45 321 45 272 c 256
 45 242 64 227 73 227 c 256
 82 227 112 237 123 247 c 256
 130 253 130 257 123 267 c 256
 116 277 111 291 111 310 c 256
 111 332 118 358 137 358 c 256
 154 358 172 342 192 325 c 256
 216 304 241 280 269 280 c 256
 292 280 339 293 360 312 c 257
 321 316 l 257
 25 66 l 258
 4 49 -2 26 -1 12 c 256
 0 -1 10 -20 22 -20 c 256
 28 -20 38 -19 38 -5 c 256
 38 26 59 54 93 54 c 256
 116 54 140 32 169 11 c 256
 197 -11 231 -33 273 -33 c 256
EndSplineSet
PickledDataWithLists: "(dp0
Vpublic.markColor
p1
V0.67,0.95,0.38,1
p2
s."
Substitution2: "'ss01' Style Set 1 in Latin lookup 31 subtable" Z.pc
Substitution2: "'pcap' Lowercase to Petite Capitals in Latin lookup 23 subtable" z.pc
Substitution2: "'smcp' Lowercase to Small Capitals in Latin lookup 21 subtable" z.sc
Substitution2: "'sups' Superscript in Latin lookup 10 subtable" z.sups
Substitution2: "'sinf' Scientific Inferiors in Latin lookup 9 subtable" z.sinf
Substitution2: "'subs' Subscript in Latin lookup 8 subtable" z.subs
Comment: "+AAoA-z+AAoA"
EndChar
StartChar: braceleft
Encoding: 610 123 609
GlifName: braceleft
Width: 397
VWidth: 0
Flags: W
LayerCount: 2
Back
SplineSet
227 -152 m 256
 241 -152 262 -146 262 -131 c 256
 262 -115 244 -117 228 -114 c 256
 159 -101 135 -88 154 -24 c 256
 164 9 204 97 217 140 c 256
 239 211 197 264 128 279 c 257
 126 280 122 282 128 283 c 256
 205 298 278 351 300 422 c 256
 313 465 327 553 337 586 c 256
 357 650 400 673 470 673 c 256
 486 673 509 675 514 691 c 256
 518 705 507 714 493 714 c 256
 376 714 243 675 222 581 c 256
 210 531 195 459 178 404 c 256
 156 333 131 324 81 306 c 256
 58 298 40 292 40 279 c 256
 40 262 52 263 66 257 c 256
 108 238 118 214 101 158 c 256
 84 103 55 31 35 -19 c 256
 -3 -113 110 -152 227 -152 c 256
EndSplineSet
Fore
SplineSet
227 -152 m 256
 241 -152 262 -146 262 -131 c 256
 262 -115 244 -117 228 -114 c 256
 159 -101 135 -88 154 -24 c 256
 164 9 204 97 217 140 c 256
 239 211 197 264 128 279 c 257
 126 280 122 282 128 283 c 256
 205 298 278 351 300 422 c 256
 313 465 327 553 337 586 c 256
 357 650 400 673 470 673 c 256
 486 673 509 675 514 691 c 256
 518 705 507 714 493 714 c 256
 376 714 243 675 222 581 c 256
 210 531 197 468 180 413 c 256
 158 342 133 332 83 315 c 256
 60 307 42 301 42 288 c 256
 42 271 54 272 68 266 c 256
 110 248 121 225 104 169 c 256
 87 114 55 31 35 -19 c 256
 -3 -113 110 -152 227 -152 c 256
EndSplineSet
Substitution2: "'smcp' Lowercase to Small Capitals in Latin lookup 21 subtable" braceleft.sc
Substitution2: "'c2sc' Capitals to Small Capitals in Latin lookup 20 subtable" braceleft.sc
Substitution2: "'sups' Superscript in Latin lookup 10 subtable" braceleft.sups
Substitution2: "'sinf' Scientific Inferiors in Latin lookup 9 subtable" braceleft.sinf
Substitution2: "'subs' Subscript in Latin lookup 8 subtable" braceleft.subs
Comment: "+AAoA-braceleft+AAoA"
EndChar
StartChar: asciitilde
Encoding: 567 126 566
GlifName: asciitilde
Width: 555
VWidth: 0
Flags: W
LayerCount: 2
Fore
SplineSet
95 254 m 256
 101 254 154 299 207 299 c 256
 242 299 281 286 319 274 c 256
 351 264 382 254 408 254 c 256
 478 254 557 357 557 373 c 256
 557 380 544 406 534 406 c 256
 525 406 517 395 497 384 c 256
 476 373 449 361 422 361 c 256
 384 361 351 371 320 381 c 256
 284 393 252 406 221 406 c 256
 151 406 72 303 72 287 c 256
 72 280 85 254 95 254 c 256
EndSplineSet
PickledDataWithLists: "(dp0
Vpublic.markColor
p1
V0.67,0.95,0.38,1
p2
s."
Substitution2: "'smcp' Lowercase to Small Capitals in Latin lookup 21 subtable" asciitilde.sc
Substitution2: "'c2sc' Capitals to Small Capitals in Latin lookup 20 subtable" asciitilde.sc
Substitution2: "'sups' Superscript in Latin lookup 10 subtable" asciitilde.sups
Substitution2: "'sinf' Scientific Inferiors in Latin lookup 9 subtable" asciitilde.sinf
Substitution2: "'subs' Subscript in Latin lookup 8 subtable" asciitilde.subs
Comment: "+AAoA-asciitilde+AAoA"
EndChar
StartChar: cent
Encoding: 669 162 668
GlifName: cent
Width: 439
VWidth: 0
Flags: W
LayerCount: 2
Back
SplineSet
120 -82 m 256
 131 -82 144 -74 151 -62 c 257
 171 -14 l 257
 274 -8 344 56 395 134 c 256
 400 143 407 154 409 161 c 256
 412 171 410 177 401 177 c 256
 395 177 390 175 383 167 c 256
 355 136 302 116 252 116 c 256
 242 116 233 117 225 118 c 257
 328 369 l 257
 340 361 350 347 361 323 c 256
 367 310 379 306 394 306 c 256
 424 306 460 329 470 360 c 256
 471 365 470 372 466 378 c 256
 441 414 398 432 355 436 c 257
 378 492 l 258
 379 495 380 498 380 500 c 256
 380 508 375 514 368 514 c 256
 354 514 338 506 332 492 c 257
 309 436 l 257
 178 424 59 321 23 205 c 256
 15 178 11 153 11 130 c 256
 11 50 58 1 126 -11 c 257
 105 -62 l 258
 100 -74 108 -82 120 -82 c 256
185 132 m 257
 162 146 150 169 150 202 c 256
 150 217 152 234 158 253 c 256
 183 331 222 380 286 380 c 258
 287 380 l 257
 185 132 l 257
EndSplineSet
Fore
SplineSet
120 -82 m 256
 131 -82 144 -74 151 -62 c 257
 171 -14 l 257
 279 -8 351 50 402 145 c 256
 410 160 414 177 401 177 c 256
 395 177 390 175 383 167 c 256
 355 136 302 115 252 115 c 256
 242 115 233 116 225 117 c 257
 329 372 l 257
 341 364 350 347 361 323 c 256
 367 310 379 306 394 306 c 256
 426 306 470 337 470 364 c 256
 470 398 403 430 354 435 c 257
 378 492 l 258
 383 505 378 514 368 514 c 256
 354 514 338 506 332 492 c 257
 309 436 l 257
 151 436 13 285 13 155 c 256
 13 68 56 7 126 -11 c 257
 105 -62 l 258
 100 -74 108 -82 120 -82 c 256
183 127 m 257
 160 141 146 171 146 206 c 256
 146 286 203 378 287 380 c 257
 183 127 l 257
EndSplineSet
Substitution2: "'smcp' Lowercase to Small Capitals in Latin lookup 21 subtable" cent.sc
Substitution2: "'c2sc' Capitals to Small Capitals in Latin lookup 20 subtable" cent.sc
Comment: "+AAoA-cent+AAoA"
EndChar
StartChar: sterling
Encoding: 1375 163 1374
GlifName: sterling
Width: 649
VWidth: 0
Flags: W
LayerCount: 2
Back
SplineSet
68 287 m 258
 441 312 l 258
 462 313 492 338 495 348 c 256
 497 355 492 366 482 365 c 258
 97 340 l 258
 79 339 57 316 53 304 c 256
 50 295 58 286 68 287 c 258
EndSplineSet
Fore
SplineSet
109 287 m 258
 479 312 l 258
 500 313 522 338 522 348 c 256
 522 355 514 366 504 365 c 258
 122 340 l 258
 104 339 89 316 89 304 c 256
 89 295 99 286 109 287 c 258
EndSplineSet
Refer: 239 -1 N 1 0 0 1 0 0 2
PickledDataWithLists: "(dp0
Vcom.schriftgestaltung.Glyphs.glyph.leftMetricsKey
p1
VL.script
p2
sVcom.schriftgestaltung.Glyphs.glyph.rightMetricsKey
p3
VL.script
p4
s."
Substitution2: "'smcp' Lowercase to Small Capitals in Latin lookup 21 subtable" sterling.sc
Substitution2: "'c2sc' Capitals to Small Capitals in Latin lookup 20 subtable" sterling.sc
Comment: "+AAoA-sterling+AAoA"
EndChar
StartChar: currency
Encoding: 693 164 692
GlifName: currency
Width: 502
VWidth: 0
Flags: W
LayerCount: 2
Back
SplineSet
-386 54 m 256
 -269 54 -175 148 -175 265 c 256
 -175 383 -269 477 -386 477 c 256
 -504 477 -598 383 -598 265 c 256
 -598 148 -504 54 -386 54 c 256
-576 49 m 256
 -572 49 -569 50 -567 53 c 257
 -494 125 l 257
 -536 171 l 257
 -611 96 l 258
 -613 94 -615 92 -615 87 c 256
 -615 72 -593 49 -576 49 c 256
163 363 m 257
 213 400 l 257
 156 477 l 257
 154 480 152 481 148 482 c 256
 130 486 103 463 103 448 c 256
 103 445 104 443 105 441 c 258
 163 363 l 257
-386 115 m 256
 -470 115 -537 182 -537 265 c 256
 -537 349 -470 416 -386 416 c 256
 -303 416 -236 349 -236 265 c 256
 -236 182 -303 115 -386 115 c 256
395 49 m 256
 413 49 437 68 437 84 c 256
 437 87 437 89 431 97 c 258
 382 163 l 257
 332 126 l 257
 380 61 l 258
 386 52 389 49 395 49 c 256
463 376 m 257
 541 432 l 257
 543 435 544 437 545 441 c 256
 549 460 531 482 509 482 c 256
 505 482 500 480 495 477 c 258
 425 426 l 257
 463 376 l 257
208 54 m 256
 382 54 493 205 493 327 c 256
 493 408 445 477 339 477 c 256
 221 477 98 383 61 265 c 256
 54 243 51 222 51 202 c 256
 51 116 112 54 208 54 c 256
227 115 m 256
 158 115 115 160 115 221 c 256
 115 235 117 250 122 265 c 256
 148 349 236 416 320 416 c 256
 387 416 430 372 430 311 c 256
 430 296 428 281 423 265 c 256
 398 182 310 115 227 115 c 256
22 49 m 256
 26 49 29 49 31 51 c 257
 113 112 l 257
 78 164 l 257
 -6 100 l 258
 -9 98 -11 97 -12 92 c 256
 -15 77 5 49 22 49 c 256
EndSplineSet
Fore
SplineSet
208 54 m 256
 382 54 493 205 493 327 c 256
 493 408 445 477 339 477 c 256
 198 477 51 341 51 202 c 256
 51 116 112 54 208 54 c 256
22 49 m 256
 26 49 28 49 35 54 c 258
 113 112 l 257
 78 164 l 257
 -1 104 l 258
 -9 98 -11 97 -12 92 c 256
 -15 77 5 49 22 49 c 256
397 49 m 256
 415 49 437 68 437 84 c 256
 437 87 437 89 431 97 c 258
 382 163 l 257
 332 126 l 257
 380 61 l 258
 386 52 391 49 397 49 c 256
227 115 m 256
 158 115 115 160 115 221 c 256
 115 317 217 416 320 416 c 256
 387 416 430 372 430 311 c 256
 430 211 328 115 227 115 c 256
163 363 m 257
 213 400 l 257
 156 477 l 257
 154 480 152 481 148 482 c 256
 130 486 103 463 103 448 c 256
 103 445 104 443 105 441 c 258
 163 363 l 257
463 376 m 257
 541 432 l 257
 543 435 544 437 545 441 c 256
 549 460 531 482 509 482 c 256
 505 482 500 480 495 477 c 258
 425 426 l 257
 463 376 l 257
EndSplineSet
Substitution2: "'smcp' Lowercase to Small Capitals in Latin lookup 21 subtable" currency.sc
Substitution2: "'c2sc' Capitals to Small Capitals in Latin lookup 20 subtable" currency.sc
Comment: "+AAoA-currency+AAoA"
EndChar
StartChar: yen
Encoding: 3026 165 3025
GlifName: yen
Width: 665
VWidth: 0
Flags: W
LayerCount: 2
Back
SplineSet
115 -6 m 256
 159 -6 228 3 268 3 c 256
 307 3 380 -5 422 -5 c 256
 437 -5 450 2 453 12 c 256
 457 25 444 29 430 33 c 256
 383 47 373 60 389 111 c 258
 433 254 l 258
 446 295 464 327 488 353 c 256
 550 421 611 487 671 557 c 256
 695 585 733 609 776 620 c 257
 789 624 804 627 808 640 c 256
 812 653 799 657 784 657 c 256
 744 657 713 649 672 649 c 256
 634 649 605 654 565 654 c 256
 551 654 534 649 531 640 c 256
 527 628 542 619 555 618 c 256
 610 614 610 580 576 539 c 256
 528 480 475 414 430 360 c 256
 420 348 414 343 409 343 c 256
 404 343 399 346 395 366 c 258
 361 543 l 258
 353 584 364 603 430 618 c 256
 442 621 461 628 464 640 c 256
 466 649 453 655 442 655 c 256
 392 655 351 648 312 648 c 256
 252 648 215 654 152 654 c 256
 142 654 131 649 128 639 c 256
 124 626 133 622 144 618 c 257
 180 607 191 582 200 554 c 258
 261 353 l 258
 272 314 273 286 260 246 c 258
 218 110 l 258
 206 69 183 43 128 33 c 256
 113 30 96 23 93 11 c 256
 90 2 98 -6 115 -6 c 256
501 180 m 258
 522 180 545 203 546 213 c 257
 547 220 539 231 529 231 c 258
 148 233 l 258
 130 233 114 211 113 199 c 256
 112 190 122 181 132 181 c 257
 501 180 l 258
529 272 m 258
 550 272 573 295 574 305 c 257
 575 312 567 323 557 323 c 258
 181 325 l 258
 163 325 147 303 146 291 c 256
 145 282 155 273 165 273 c 258
 529 272 l 258
EndSplineSet
Fore
SplineSet
115 -6 m 256
 159 -6 228 3 268 3 c 256
 307 3 380 -5 422 -5 c 256
 437 -5 450 2 453 12 c 256
 457 25 444 29 430 33 c 256
 383 47 373 60 389 111 c 258
 410 180 l 257
 501 180 l 258
 522 180 545 203 546 213 c 257
 547 220 539 231 529 231 c 258
 426 232 l 257
 439 272 l 257
 529 272 l 258
 550 272 573 295 574 305 c 257
 575 312 567 323 557 323 c 258
 465 323 l 257
 472 334 480 344 488 353 c 256
 550 421 611 487 671 557 c 256
 695 585 733 609 776 620 c 257
 789 624 804 627 808 640 c 256
 812 653 799 657 784 657 c 256
 744 657 713 649 672 649 c 256
 634 649 605 654 565 654 c 256
 551 654 534 649 531 640 c 256
 527 628 542 619 555 618 c 256
 610 614 610 580 576 539 c 256
 528 480 475 414 430 360 c 256
 420 348 414 343 409 343 c 256
 404 343 399 346 395 366 c 258
 361 543 l 258
 353 584 364 603 430 618 c 256
 442 621 461 628 464 640 c 256
 466 649 453 655 442 655 c 256
 392 655 351 648 312 648 c 256
 252 648 215 654 152 654 c 256
 142 654 131 649 128 639 c 256
 124 626 133 622 144 618 c 257
 180 607 191 582 200 554 c 258
 261 353 l 258
 264 343 266 334 267 325 c 257
 181 325 l 258
 163 325 147 303 146 291 c 256
 145 282 155 273 165 273 c 258
 267 273 l 257
 265 264 263 255 260 246 c 257
 256 232 l 257
 148 233 l 258
 130 233 114 211 113 199 c 256
 112 190 122 181 132 181 c 258
 240 181 l 257
 218 110 l 258
 206 69 183 43 128 33 c 256
 113 30 96 23 93 11 c 257
 90 2 98 -6 115 -6 c 256
EndSplineSet
PickledDataWithLists: "(dp0
Vcom.schriftgestaltung.Glyphs.glyph.leftMetricsKey
p1
VY
p2
sVcom.schriftgestaltung.Glyphs.glyph.rightMetricsKey
p3
g2
s."
Substitution2: "'smcp' Lowercase to Small Capitals in Latin lookup 21 subtable" yen.sc
Substitution2: "'c2sc' Capitals to Small Capitals in Latin lookup 20 subtable" yen.sc
Comment: "+AAoA-yen+AAoA"
EndChar
StartChar: brokenbar
Encoding: 635 166 634
GlifName: brokenbar
Width: 281
VWidth: 0
Flags: W
LayerCount: 2
Fore
SplineSet
103 -290 m 256
 121 -290 198 -284 198 -242 c 258
 198 159 l 258
 198 173 184 185 170 185 c 256
 158 185 79 167 79 124 c 258
 79 -262 l 258
 79 -276 90 -290 103 -290 c 256
101 251 m 256
 119 251 196 257 196 299 c 258
 196 679 l 258
 196 693 182 705 168 705 c 256
 156 705 77 687 77 644 c 258
 77 279 l 258
 77 265 88 251 101 251 c 256
EndSplineSet
PickledDataWithLists: "(dp0
Vpublic.markColor
p1
V0.67,0.95,0.38,1
p2
s."
Substitution2: "'smcp' Lowercase to Small Capitals in Latin lookup 21 subtable" brokenbar.sc
Substitution2: "'c2sc' Capitals to Small Capitals in Latin lookup 20 subtable" brokenbar.sc
Substitution2: "'sups' Superscript in Latin lookup 10 subtable" brokenbar.sups
Substitution2: "'sinf' Scientific Inferiors in Latin lookup 9 subtable" brokenbar.sinf
Substitution2: "'subs' Subscript in Latin lookup 8 subtable" brokenbar.subs
Comment: "+AAoA-brokenbar+AAoA"
EndChar
StartChar: section
Encoding: 1326 167 1325
GlifName: section
Width: 453
VWidth: 0
Flags: W
LayerCount: 2
Back
SplineSet
96 -119 m 256
 120 -123 147 -122 170 -116 c 256
 307 -80 392 0 415 134 c 256
 433 241 394 308 341 369 c 256
 285 434 234 496 240 532 c 256
 245 563 262 586 306 579 c 256
 325 576 360 549 380 520 c 257
 386 513 389 510 395 509 c 256
 420 505 456 561 457 568 c 256
 459 579 452 587 445 596 c 257
 433 613 385 633 350 639 c 256
 274 652 198 600 164 527 c 257
 115 494 68 459 54 371 c 256
 45 313 72 250 134 176 c 256
 187 113 251 46 243 -4 c 256
 236 -46 215 -67 182 -61 c 256
 152 -56 115 -39 95 -15 c 257
 89 -9 77 2 66 -3 c 256
 31 -19 21 -53 19 -64 c 256
 15 -88 48 -111 96 -119 c 256
314 63 m 257
 304 101 242 185 211 227 c 257
 166 282 136 347 143 395 c 256
 146 417 154 441 169 454 c 257
 172 457 177 458 178 453 c 257
 188 416 238 338 269 296 c 257
 314 241 347 177 339 122 c 256
 336 101 332 80 323 62 c 256
 321 58 315 58 314 63 c 257
EndSplineSet
Fore
SplineSet
41 -148 m 256
 125 -148 213 -101 292 -22 c 256
 362 48 413 134 413 209 c 256
 413 269 381 318 346 362 c 256
 307 411 267 456 267 504 c 256
 267 543 303 578 344 578 c 256
 365 578 383 563 398 548 c 256
 413 533 424 519 434 519 c 256
 454 519 508 569 508 592 c 256
 508 620 449 640 402 640 c 256
 325 640 243 578 197 500 c 257
 128 451 69 400 69 311 c 256
 69 256 105 208 140 159 c 256
 176 109 213 61 213 4 c 256
 213 -47 182 -78 139 -78 c 256
 110 -78 93 -67 78 -56 c 256
 64 -46 52 -37 35 -37 c 256
 10 -37 -32 -89 -32 -114 c 256
 -32 -134 -2 -148 41 -148 c 256
283 66 m 257
 283 116 253 163 223 207 c 256
 190 254 156 298 156 339 c 256
 156 386 168 410 191 429 c 257
 195 432 200 434 200 429 c 257
 205 381 237 341 267 300 c 256
 296 260 324 217 324 164 c 256
 324 131 309 97 292 66 c 256
 290 62 283 61 283 66 c 257
EndSplineSet
PickledDataWithLists: "(dp0
Vpublic.markColor
p1
V0.67,0.95,0.38,1
p2
s."
Substitution2: "'smcp' Lowercase to Small Capitals in Latin lookup 21 subtable" section.sc
Substitution2: "'c2sc' Capitals to Small Capitals in Latin lookup 20 subtable" section.sc
Substitution2: "'sups' Superscript in Latin lookup 10 subtable" section.sups
Substitution2: "'sinf' Scientific Inferiors in Latin lookup 9 subtable" section.sinf
Substitution2: "'subs' Subscript in Latin lookup 8 subtable" section.subs
Comment: "+AAoA-section+AAoA"
EndChar
StartChar: copyright
Encoding: 691 169 690
GlifName: copyright
Width: 684
VWidth: 0
Flags: W
LayerCount: 2
Fore
SplineSet
376 15 m 256
 548 15 689 155 689 327 c 256
 689 499 549 639 377 639 c 256
 205 639 65 499 65 327 c 256
 65 155 204 15 376 15 c 256
390 134 m 256
 438 134 476 150 503 164 c 256
 511 168 516 166 519 175 c 257
 526 204 530 219 530 247 c 256
 530 258 524 265 516 267 c 256
 508 269 498 266 493 254 c 256
 473 206 449 188 401 188 c 256
 329 188 306 243 306 331 c 256
 306 399 334 457 401 457 c 256
 435 457 456 444 469 429 c 256
 479 417 483 405 488 390 c 257
 491 379 499 374 507 374 c 256
 517 374 527 381 527 395 c 256
 527 421 527 440 523 472 c 256
 522 481 518 485 510 488 c 257
 483 502 442 512 405 512 c 256
 263 512 173 421 173 321 c 256
 173 211 273 134 390 134 c 256
376 68 m 256
 236 68 124 186 124 327 c 256
 124 466 237 580 377 580 c 256
 517 580 630 466 630 327 c 256
 630 185 518 68 376 68 c 256
EndSplineSet
PickledDataWithLists: "(dp0
Vpublic.markColor
p1
V0.67,0.95,0.38,1
p2
s."
Substitution2: "'smcp' Lowercase to Small Capitals in Latin lookup 21 subtable" copyright.sc
Substitution2: "'c2sc' Capitals to Small Capitals in Latin lookup 20 subtable" copyright.sc
Comment: "+AAoA-copyright+AAoA"
EndChar
StartChar: ordfeminine
Encoding: 1178 170 1177
GlifName: ordfeminine
Width: 361
VWidth: 0
Flags: W
LayerCount: 2
Fore
SplineSet
35 159 m 258
 265 159 l 258
 284 159 306 177 306 190 c 256
 306 199 296 206 288 206 c 258
 48 206 l 258
 32 206 17 186 17 175 c 256
 17 168 26 159 35 159 c 258
EndSplineSet
Refer: 497 -1 N 1 0 0 1 -3 -7 2
PickledDataWithLists: "(dp0
Vcom.schriftgestaltung.Glyphs.glyph.leftMetricsKey
p1
Va.ordn
p2
sVcom.schriftgestaltung.Glyphs.glyph.rightMetricsKey
p3
Va.ordn
p4
sVpublic.markColor
p5
V0.67,0.95,0.38,1
p6
s."
Substitution2: "'smcp' Lowercase to Small Capitals in Latin lookup 21 subtable" ordfeminine.sc
Comment: "+AAoA-ordfeminine+AAoA"
EndChar
StartChar: logicalnot
Encoding: 1052 172 1051
GlifName: logicalnot
Width: 600
VWidth: 0
Flags: W
LayerCount: 2
Fore
SplineSet
497 42 m 256
 515 42 556 51 556 76 c 257
 556 368 l 257
 556 380 552 389 538 389 c 258
 65 389 l 257
 40 389 30 348 30 330 c 256
 30 323 40 315 50 315 c 258
 467 315 l 258
 478 315 482 308 482 299 c 258
 482 62 l 258
 482 51 490 42 497 42 c 256
EndSplineSet
PickledDataWithLists: "(dp0
Vpublic.markColor
p1
V0.67,0.95,0.38,1
p2
s."
Substitution2: "'smcp' Lowercase to Small Capitals in Latin lookup 21 subtable" logicalnot.sc
Substitution2: "'c2sc' Capitals to Small Capitals in Latin lookup 20 subtable" logicalnot.sc
Comment: "+AAoA-logicalnot+AAoA"
EndChar
StartChar: registered
Encoding: 1299 174 1298
GlifName: registered
Width: 719
VWidth: 0
Flags: W
LayerCount: 2
Fore
SplineSet
394 15 m 256
 566 15 707 155 707 327 c 256
 707 499 567 639 395 639 c 256
 223 639 83 499 83 327 c 256
 83 155 222 15 394 15 c 256
394 68 m 256
 254 68 142 186 142 327 c 256
 142 466 255 580 395 580 c 256
 535 580 648 466 648 327 c 256
 648 185 536 68 394 68 c 256
519 170 m 256
 567 170 587 184 587 202 c 256
 587 208 584 211 580 211 c 256
 553 211 495 241 459 327 c 256
 458 330 457 333 460 334 c 257
 490 348 521 368 521 413 c 256
 521 467 476 493 391 493 c 256
 351 493 342 489 317 489 c 256
 290 489 276 493 242 493 c 256
 236 493 232 489 232 486 c 256
 232 479 235 476 243 475 c 256
 267 469 274 462 274 441 c 258
 274 227 l 258
 274 207 267 202 240 195 c 257
 233 194 228 190 228 182 c 256
 228 176 235 169 239 169 c 256
 262 169 296 172 317 172 c 256
 338 172 383 169 405 169 c 256
 411 169 416 175 416 182 c 256
 416 191 410 194 404 195 c 257
 374 202 363 207 363 227 c 258
 363 309 l 258
 363 315 365 318 369 318 c 256
 374 318 379 314 382 308 c 256
 416 233 478 170 519 170 c 256
380 355 m 256
 367 355 360 360 360 370 c 258
 360 438 l 258
 360 450 366 456 386 456 c 256
 421 456 438 441 438 402 c 256
 438 376 420 355 380 355 c 256
EndSplineSet
PickledDataWithLists: "(dp0
Vpublic.markColor
p1
V0.67,0.95,0.38,1
p2
s."
Substitution2: "'smcp' Lowercase to Small Capitals in Latin lookup 21 subtable" registered.sc
Substitution2: "'c2sc' Capitals to Small Capitals in Latin lookup 20 subtable" registered.sc
Substitution2: "'sups' Superscript in Latin lookup 10 subtable" registered.sups
Comment: "+AAoA-registered+AAoA"
EndChar
StartChar: degree
Encoding: 716 176 715
GlifName: degree
Width: 359
VWidth: 0
Flags: W
LayerCount: 2
Fore
SplineSet
280 376 m 256
 371 376 433 452 433 531 c 256
 433 610 371 675 280 675 c 256
 187 675 124 610 124 531 c 256
 124 452 187 376 280 376 c 256
279 436 m 256
 232 436 195 473 195 525 c 256
 195 577 232 613 279 613 c 256
 324 613 362 577 362 525 c 256
 362 473 324 436 279 436 c 256
EndSplineSet
PickledDataWithLists: "(dp0
Vpublic.markColor
p1
V0.67,0.95,0.38,1
p2
s."
Substitution2: "'smcp' Lowercase to Small Capitals in Latin lookup 21 subtable" degree.sc
Substitution2: "'c2sc' Capitals to Small Capitals in Latin lookup 20 subtable" degree.sc
Comment: "+AAoA-degree+AAoA"
EndChar
StartChar: plusminus
Encoding: 1246 177 1245
GlifName: plusminus
Width: 600
VWidth: 0
Flags: W
LayerCount: 2
Fore
SplineSet
284 126 m 256
 299 126 330 134 330 155 c 258
 330 344 l 258
 330 353 334 357 343 357 c 258
 536 357 l 258
 555 357 570 383 570 400 c 256
 570 410 559 416 547 416 c 258
 343 416 l 258
 334 416 330 420 330 430 c 258
 330 611 l 258
 330 623 324 634 314 634 c 256
 297 634 271 619 271 600 c 258
 271 430 l 258
 271 420 270 416 257 416 c 258
 59 416 l 258
 38 416 30 385 30 370 c 256
 30 364 38 357 47 357 c 258
 258 357 l 258
 268 357 271 351 271 344 c 258
 271 143 l 258
 271 134 278 126 284 126 c 256
49 29 m 258
 534 29 l 258
 555 29 572 56 572 75 c 256
 572 85 560 93 545 93 c 258
 63 93 l 258
 39 93 30 58 30 44 c 256
 30 38 39 29 49 29 c 258
EndSplineSet
PickledDataWithLists: "(dp0
Vpublic.markColor
p1
V0.67,0.95,0.38,1
p2
s."
Substitution2: "'smcp' Lowercase to Small Capitals in Latin lookup 21 subtable" plusminus.sc
Substitution2: "'c2sc' Capitals to Small Capitals in Latin lookup 20 subtable" plusminus.sc
Comment: "+AAoA-plusminus+AAoA"
EndChar
StartChar: mu
Encoding: 1089 181 1088
GlifName: mu
Width: 586
VWidth: 0
Flags: W
LayerCount: 2
Back
SplineSet
26 -289 m 256
 56 -289 115 -227 115 -200 c 256
 115 -184 101 -169 86 -149 c 256
 65 -120 56 -80 56 -44 c 256
 56 -2 66 38 73 55 c 256
 80 73 85 80 94 80 c 256
 101 80 117 54 125 46 c 256
 152 14 168 -13 216 -13 c 256
 266 -13 358 110 370 126 c 257
 373 125 l 257
 368 114 364 104 362 93 c 256
 351 32 389 -15 430 -15 c 256
 491 -15 570 41 570 127 c 256
 570 133 566 139 560 139 c 256
 553 139 506 106 471 106 c 256
 428 106 399 125 411 163 c 257
 487 254 551 353 551 377 c 256
 551 415 517 437 470 437 c 256
 440 437 417 419 397 365 c 256
 383 328 368 280 344 213 c 257
 301 152 239 85 182 81 c 256
 153 79 136 108 136 125 c 256
 136 148 252 330 262 362 c 256
 277 411 237 437 196 437 c 256
 166 437 136 424 127 396 c 256
 110 340 51 125 41 92 c 256
 31 60 11 17 5 0 c 256
 -18 -75 -38 -157 -38 -208 c 256
 -38 -240 -19 -289 26 -289 c 256
EndSplineSet
Fore
SplineSet
19 -289 m 256
 46 -289 115 -223 115 -200 c 256
 115 -184 101 -169 86 -149 c 256
 65 -120 52 -74 52 -38 c 256
 52 4 61 46 68 63 c 256
 75 81 80 88 89 88 c 256
 96 88 117 54 125 46 c 256
 152 14 168 -13 216 -13 c 256
 266 -13 345 106 357 122 c 257
 360 121 l 257
 355 110 351 100 349 89 c 256
 338 28 377 -15 418 -15 c 256
 479 -15 558 41 558 127 c 256
 558 133 554 139 548 139 c 256
 541 139 494 106 459 106 c 256
 416 106 387 125 399 163 c 257
 475 254 539 353 539 377 c 256
 539 406 472 437 438 437 c 256
 421 437 409 427 398 397 c 256
 374 331 356 280 332 213 c 257
 289 152 233 88 176 84 c 256
 147 82 131 112 131 129 c 256
 131 133 135 144 141 157 c 257
 183 219 254 336 262 362 c 256
 270 389 222 437 168 437 c 256
 150 437 132 429 127 413 c 256
 110 340 51 125 41 92 c 256
 31 60 11 17 5 0 c 256
 -18 -75 -38 -157 -38 -208 c 256
 -38 -240 -26 -289 19 -289 c 256
EndSplineSet
PickledDataWithLists: "(dp0
Vpublic.markColor
p1
V0.67,0.95,0.38,1
p2
s."
Comment: "+AAoA-mu+AAoA"
EndChar
StartChar: paragraph
Encoding: 1195 182 1194
GlifName: paragraph
Width: 612
VWidth: 0
Flags: W
LayerCount: 2
Back
SplineSet
142 -288 m 256
 231 -288 306 -245 351 -98 c 258
 560 589 l 258
 564 602 573 607 582 607 c 256
 587 607 665 603 671 603 c 256
 681 603 685 614 686 624 c 256
 687 633 684 641 675 642 c 256
 652 645 608 645 580 645 c 256
 319 645 101 578 101 322 c 256
 101 194 197 119 354 119 c 256
 363 119 365 111 362 100 c 258
 295 -120 l 258
 269 -206 208 -246 140 -246 c 256
 92 -246 45 -221 45 -162 c 256
 45 -146 54 -123 67 -123 c 256
 76 -123 86 -132 97 -140 c 256
 108 -149 121 -157 135 -157 c 256
 174 -157 194 -135 194 -101 c 256
 194 -71 169 -48 126 -48 c 256
 56 -48 4 -104 4 -177 c 256
 4 -245 62 -288 142 -288 c 256
358 156 m 256
 324 156 307 176 307 224 c 256
 307 261 318 316 341 392 c 256
 399 582 441 593 487 593 c 256
 493 593 502 591 502 586 c 256
 502 585 502 585 502 584 c 258
 371 169 l 258
 368 160 363 156 358 156 c 256
EndSplineSet
Fore
SplineSet
116 -287 m 256
 261 -287 319 -183 352 -78 c 258
 552 568 l 258
 556 581 570 595 582 595 c 256
 641 595 689 579 696 579 c 256
 705 579 715 595 720 609 c 256
 724 622 722 636 712 639 c 257
 695 642 622 648 558 648 c 256
 278 648 145 624 78 402 c 256
 18 204 139 76 332 76 c 256
 341 76 345 67 341 56 c 258
 294 -90 l 258
 264 -183 206 -240 117 -240 c 256
 57 -240 33 -204 33 -174 c 256
 33 -154 42 -138 57 -138 c 256
 69 -138 80 -145 91 -151 c 256
 105 -159 124 -168 142 -168 c 256
 182 -168 215 -138 215 -94 c 256
 215 -49 184 -29 141 -29 c 256
 59 -29 -14 -84 -14 -184 c 256
 -14 -244 38 -287 116 -287 c 256
342 124 m 256
 302 124 282 146 282 199 c 256
 282 240 295 300 322 384 c 256
 390 594 430 593 483 593 c 256
 490 593 501 591 501 585 c 256
 501 584 501 584 501 583 c 258
 357 138 l 258
 354 128 347 124 342 124 c 256
EndSplineSet
PickledDataWithLists: "(dp0
Vpublic.markColor
p1
V0.67,0.95,0.38,1
p2
s."
Substitution2: "'smcp' Lowercase to Small Capitals in Latin lookup 21 subtable" paragraph.sc
Substitution2: "'c2sc' Capitals to Small Capitals in Latin lookup 20 subtable" paragraph.sc
Substitution2: "'sups' Superscript in Latin lookup 10 subtable" paragraph.sups
Substitution2: "'sinf' Scientific Inferiors in Latin lookup 9 subtable" paragraph.sinf
Substitution2: "'subs' Subscript in Latin lookup 8 subtable" paragraph.subs
Comment: "+AAoA-paragraph+AAoA"
EndChar
StartChar: ordmasculine
Encoding: 1180 186 1179
GlifName: ordmasculine
Width: 397
VWidth: 0
Flags: W
LayerCount: 2
Fore
SplineSet
46 159 m 258
 283 159 l 258
 302 159 324 177 324 190 c 256
 324 199 314 206 306 206 c 258
 59 206 l 258
 43 206 28 186 28 175 c 256
 28 168 37 159 46 159 c 258
EndSplineSet
Refer: 1128 -1 N 1 0 0 1 0 0 2
PickledDataWithLists: "(dp0
Vcom.schriftgestaltung.Glyphs.glyph.leftMetricsKey
p1
Vo.ordn
p2
sVcom.schriftgestaltung.Glyphs.glyph.rightMetricsKey
p3
Vo.ordn
p4
sVpublic.markColor
p5
V0.67,0.95,0.38,1
p6
s."
Substitution2: "'smcp' Lowercase to Small Capitals in Latin lookup 21 subtable" ordmasculine.sc
Comment: "+AAoA-ordmasculine+AAoA"
EndChar
StartChar: AE
Encoding: 9 198 9
GlifName: A_E_
Width: 913
VWidth: 0
Flags: W
AnchorPoint: "top.cap" 764 675 basechar 0
LayerCount: 2
Back
SplineSet
-46 -5 m 256
 -4 -5 31 1 70 1 c 256
 110 1 149 -2 193 -2 c 256
 207 -2 215 3 218 12 c 256
 222 24 215 31 203 34 c 256
 152 45 137 61 169 109 c 256
 190 141 238 201 271 242 c 256
 283 257 291 259 302 259 c 258
 435 259 l 258
 449 259 448 249 446 241 c 256
 432 195 414 142 400 95 c 256
 387 54 368 45 320 32 c 256
 306 28 296 19 294 11 c 256
 291 3 296 -5 308 -5 c 256
 347 -5 413 0 453 0 c 256
 574 0 767 -4 780 -4 c 256
 790 -4 802 -1 808 8 c 257
 837 58 876 124 887 160 c 256
 890 169 885 175 877 175 c 256
 869 175 862 173 854 163 c 257
 831 132 806 101 777 82 c 256
 753 66 723 59 697 59 c 258
 608 59 l 258
 574 59 563 73 574 110 c 256
 592 167 610 231 627 288 c 256
 631 302 641 311 656 311 c 256
 687 311 719 311 750 311 c 256
 775 311 784 285 782 242 c 256
 782 228 789 218 799 218 c 256
 806 218 813 226 818 246 c 256
 824 276 831 302 839 329 c 256
 848 356 858 383 870 412 c 257
 876 427 871 435 865 435 c 256
 857 435 847 429 838 417 c 257
 817 385 795 355 760 355 c 256
 732 355 703 355 675 355 c 256
 659 355 652 361 657 379 c 256
 672 432 688 493 703 547 c 256
 711 576 729 603 767 603 c 258
 844 603 l 258
 881 603 902 585 911 569 c 256
 920 553 922 531 926 495 c 256
 927 483 934 478 941 478 c 256
 948 478 957 485 961 498 c 256
 972 534 979 592 985 642 c 256
 987 658 976 663 966 663 c 256
 943 663 895 649 788 649 c 256
 743 649 696 650 655 650 c 256
 615 650 526 655 482 655 c 256
 466 655 453 649 453 639 c 256
 453 628 459 623 474 620 c 258
 519 612 l 258
 526 611 527 605 522 599 c 258
 69 98 l 258
 44 71 4 46 -38 34 c 256
 -51 30 -63 25 -67 12 c 256
 -71 -1 -61 -5 -46 -5 c 256
349 307 m 258
 336 307 326 310 339 325 c 258
 516 531 l 258
 519 535 522 537 525 537 c 256
 529 537 529 531 528 526 c 258
 471 320 l 258
 469 314 464 307 452 307 c 258
 349 307 l 258
EndSplineSet
Fore
SplineSet
-46 -5 m 256
 -4 -5 31 1 70 1 c 256
 110 1 149 -2 193 -2 c 256
 207 -2 215 3 218 12 c 256
 222 24 215 31 203 34 c 256
 152 45 137 61 169 109 c 256
 190 141 238 201 271 242 c 256
 283 257 291 259 302 259 c 258
 435 259 l 258
 449 259 448 249 446 241 c 256
 432 195 414 142 400 95 c 256
 387 54 368 45 320 32 c 256
 306 28 296 19 294 11 c 256
 291 3 296 -5 308 -5 c 256
 347 -5 413 0 453 0 c 256
 574 0 767 -4 780 -4 c 256
 790 -4 802 -1 808 8 c 257
 832 43 870 109 882 145 c 256
 885 154 880 160 872 160 c 256
 864 160 857 158 849 148 c 257
 826 117 801 86 772 67 c 256
 748 51 718 44 692 44 c 258
 605 44 l 258
 571 44 560 58 571 95 c 256
 588 152 610 231 627 288 c 256
 631 302 641 311 656 311 c 256
 687 311 719 311 750 311 c 256
 775 311 784 285 782 242 c 256
 782 228 789 218 799 218 c 256
 806 218 813 226 818 246 c 256
 824 276 831 302 839 329 c 256
 848 356 858 383 870 412 c 257
 876 427 871 435 865 435 c 256
 857 435 847 429 838 417 c 257
 817 385 795 355 760 355 c 256
 732 355 703 355 675 355 c 256
 659 355 652 361 657 379 c 256
 672 432 690 503 705 557 c 256
 713 586 731 613 769 613 c 258
 846 613 l 258
 883 613 904 595 913 579 c 256
 922 563 925 541 928 505 c 256
 929 493 936 488 943 488 c 256
 950 488 959 495 963 508 c 256
 974 544 981 602 985 642 c 256
 987 658 976 663 966 663 c 256
 943 663 895 649 788 649 c 256
 743 649 696 650 655 650 c 256
 615 650 526 655 482 655 c 256
 466 655 453 649 453 639 c 256
 453 628 459 623 474 620 c 258
 519 612 l 258
 526 611 527 605 522 599 c 258
 69 98 l 258
 44 71 4 46 -38 34 c 256
 -51 30 -63 25 -67 12 c 256
 -71 -1 -61 -5 -46 -5 c 256
349 307 m 258
 336 307 326 310 339 325 c 258
 516 531 l 258
 519 535 522 537 525 537 c 256
 529 537 529 531 528 526 c 258
 471 320 l 258
 469 314 464 307 452 307 c 258
 349 307 l 258
EndSplineSet
PickledDataWithLists: "(dp0
Vcom.schriftgestaltung.Glyphs.glyph.leftMetricsKey
p1
VA
p2
sVcom.schriftgestaltung.Glyphs.glyph.rightMetricsKey
p3
VE
p4
sVpublic.markColor
p5
V0.67,0.95,0.38,1
p6
s."
Substitution2: "'c2sc' Capitals to Small Capitals in Latin lookup 20 subtable" AE.sc
Comment: "+AAoA-AE+AAoA"
EndChar
StartChar: Eth
Encoding: 128 208 128
GlifName: E_th
Width: 729
VWidth: 0
Flags: W
AnchorPoint: "bottom.cap" 290 -30 basechar 0
AnchorPoint: "top.cap" 454 675 basechar 0
LayerCount: 2
Back
SplineSet
100 304 m 258
 385 304 l 258
 408 304 430 325 439 342 c 257
 440 344 441 345 442 347 c 256
 447 356 437 366 424 366 c 258
 124 366 l 258
 107 366 91 353 86 335 c 256
 82 321 83 304 100 304 c 258
332 -7 m 256
 566 -7 742 159 797 335 c 256
 857 528 733 659 547 659 c 256
 493 659 372 650 333 650 c 256
 293 650 229 655 185 655 c 256
 177 655 165 649 162 640 c 256
 158 628 163 621 174 618 c 256
 224 604 233 594 220 551 c 258
 79 97 l 258
 66 56 48 46 -6 34 c 256
 -19 31 -28 24 -32 12 c 256
 -35 3 -27 -3 -19 -3 c 256
 25 -3 92 0 132 0 c 256
 158 0 252 -7 332 -7 c 256
333 48 m 256
 265 48 242 72 261 134 c 258
 384 533 l 258
 399 580 434 601 494 601 c 256
 631 601 659 481 605 306 c 256
 557 149 464 48 333 48 c 256
EndSplineSet
Fore
SplineSet
58 304 m 258
 344 304 l 258
 363 304 387 322 401 347 c 256
 406 356 396 366 383 366 c 258
 82 366 l 258
 65 366 49 353 44 335 c 256
 40 321 41 304 58 304 c 258
EndSplineSet
Refer: 68 68 N 1 0 0 1 0 0 2
PickledDataWithLists: "(dp0
Vcom.schriftgestaltung.Glyphs.glyph.leftMetricsKey
p1
VD
p2
sVcom.schriftgestaltung.Glyphs.glyph.rightMetricsKey
p3
VO
p4
sVpublic.markColor
p5
V0.67,0.95,0.38,1
p6
s."
Substitution2: "'c2sc' Capitals to Small Capitals in Latin lookup 20 subtable" Eth.sc
Comment: "+AAoA-Eth+AAoA"
EndChar
StartChar: multiply
Encoding: 1090 215 1089
GlifName: multiply
Width: 568
VWidth: 0
Flags: W
LayerCount: 2
Fore
SplineSet
464 49 m 256
 478 49 489 78 489 92 c 256
 489 100 487 106 482 111 c 258
 348 243 l 258
 341 250 342 255 348 261 c 258
 481 395 l 258
 485 399 487 404 487 409 c 256
 487 425 475 443 467 451 c 256
 465 453 462 454 458 454 c 256
 454 454 449 452 445 448 c 258
 303 306 l 258
 296 299 291 300 285 306 c 258
 145 448 l 258
 139 454 128 456 123 451 c 256
 115 443 103 425 103 409 c 256
 103 404 105 399 109 395 c 258
 240 262 l 258
 248 254 248 250 240 242 c 258
 113 116 l 258
 108 111 107 105 107 98 c 256
 107 78 121 54 131 54 c 256
 137 54 144 57 150 63 c 258
 284 198 l 258
 290 204 297 205 303 199 c 258
 445 58 l 258
 451 52 458 49 464 49 c 256
EndSplineSet
PickledDataWithLists: "(dp0
Vpublic.markColor
p1
V0.67,0.95,0.38,1
p2
s."
Substitution2: "'smcp' Lowercase to Small Capitals in Latin lookup 21 subtable" multiply.sc
Substitution2: "'c2sc' Capitals to Small Capitals in Latin lookup 20 subtable" multiply.sc
Comment: "+AAoA-multiply+AAoA"
EndChar
StartChar: Oslash
Encoding: 309 216 308
GlifName: O_slash
Width: 692
VWidth: 0
Flags: W
AnchorPoint: "top.cap" 512 675 basechar 0
AnchorPoint: "bottom.cap" 278 -30 basechar 0
LayerCount: 2
Back
SplineSet
7 -13 m 256
 16 -13 21 -10 26 -5 c 257
 773 585 l 257
 785 594 792 607 795 619 c 256
 797 628 797 639 797 647 c 257
 795 664 771 668 756 653 c 257
 -6 61 l 257
 -19 50 -30 37 -34 23 c 256
 -39 4 -18 -13 7 -13 c 256
EndSplineSet
Fore
SplineSet
18 -14 m 256
 27 -14 35 -11 43 -4 c 258
 144 79 l 257
 183 103 l 257
 592 446 l 257
 667 499 l 257
 777 587 l 258
 787 595 794 609 794 629 c 256
 794 648 782 664 765 664 c 256
 757 664 747 660 737 652 c 258
 623 562 l 257
 581 537 l 257
 172 199 l 257
 116 162 l 257
 -8 63 l 257
 -20 54 -26 41 -26 27 c 256
 -26 10 -7 -14 18 -14 c 256
EndSplineSet
Refer: 277 79 N 1 0 0 1 0 0 2
Guideline: "" "" 856 828 73 0 0
Guideline: "" "" 228 864 73 0 0
PickledDataWithLists: "(dp0
Vpublic.markColor
p1
V0.67,0.95,0.38,1
p2
s."
Substitution2: "'c2sc' Capitals to Small Capitals in Latin lookup 20 subtable" Oslash.sc
Comment: "+AAoA-Oslash+AAoA"
EndChar
StartChar: Thorn
Encoding: 390 222 389
GlifName: T_horn
Width: 629
VWidth: 0
Flags: W
LayerCount: 2
Back
SplineSet
-66 -103 m 256
 -22 -103 46 -98 86 -98 c 256
 125 -98 211 -102 253 -102 c 256
 267 -102 287 -97 287 -87 c 256
 287 -74 276 -69 265 -66 c 256
 213 -52 190 -44 203 -2 c 258
 337 429 l 258
 362 510 374 514 394 514 c 256
 443 514 488 488 488 366 c 256
 488 283 443 191 351 175 c 256
 334 172 325 170 312 168 c 256
 300 166 290 161 290 152 c 256
 290 136 300 129 336 129 c 256
 507 129 633 230 639 367 c 256
 644 476 561 557 419 557 c 256
 365 557 319 552 287 550 c 256
 247 548 184 555 140 555 c 256
 128 555 111 548 108 539 c 256
 105 531 115 522 130 518 c 256
 173 507 186 494 173 451 c 258
 32 -3 l 258
 19 -44 1 -54 -53 -66 c 256
 -66 -69 -84 -76 -84 -88 c 256
 -84 -97 -74 -103 -66 -103 c 256
EndSplineSet
Fore
SplineSet
-33 -3 m 256
 11 -3 79 2 119 2 c 256
 158 2 230 -2 272 -2 c 256
 282 -2 290 3 293 13 c 256
 297 26 291 30 281 34 c 256
 234 53 224 61 235 98 c 258
 336 425 l 258
 361 505 373 515 399 515 c 256
 441 515 489 483 489 367 c 256
 489 308 452 187 345 174 c 256
 328 172 318 171 305 169 c 256
 293 167 283 162 283 153 c 256
 283 137 294 129 330 129 c 256
 501 129 633 232 638 360 c 256
 643 476 560 558 420 558 c 256
 366 558 320 553 288 551 c 257
 369 529 l 257
 375 550 l 257
 387 590 401 601 461 618 c 256
 475 622 483 626 487 639 c 256
 490 649 486 654 476 654 c 256
 434 654 358 650 319 650 c 256
 279 650 215 655 171 655 c 256
 163 655 151 649 148 640 c 256
 144 628 149 621 160 618 c 256
 210 604 219 594 206 551 c 258
 65 97 l 258
 52 56 34 46 -20 34 c 256
 -33 31 -42 24 -46 12 c 256
 -49 3 -41 -3 -33 -3 c 256
EndSplineSet
PickledDataWithLists: "(dp0
Vcom.schriftgestaltung.Glyphs.glyph.leftMetricsKey
p1
VH
p2
sVcom.schriftgestaltung.Glyphs.glyph.rightMetricsKey
p3
VP
p4
sVpublic.markColor
p5
V0.67,0.95,0.38,1
p6
s."
Substitution2: "'c2sc' Capitals to Small Capitals in Latin lookup 20 subtable" Thorn.sc
Comment: "+AAoA-Thorn+AAoA"
EndChar
